<svg width="139" height="127" viewBox="0 0 139 127" fill="none" xmlns="http://www.w3.org/2000/svg">
<path d="M46.4716 33.6031C47.1327 29.3559 50.434 26.0063 54.6711 25.2835L81.1217 20.7715C84.2932 20.2305 87.5313 21.2484 89.8227 23.5068L115.097 48.4157C117.388 50.6741 118.453 53.897 117.958 57.076L113.832 83.5895C113.171 87.8367 109.869 91.1863 105.632 91.9091L79.1815 96.4211C76.01 96.9621 72.7719 95.9442 70.4805 93.6858L45.2065 68.7769C42.915 66.5185 41.8501 63.2956 42.3449 60.1166L46.4716 33.6031Z" fill="#CAE1F2"/>
<path fill-rule="evenodd" clip-rule="evenodd" d="M24.6808 82.4048C24.1118 81.844 23.6185 81.2238 23.2059 80.5596C22.9409 80.1331 22.7092 79.6883 22.5122 79.2296C22.4829 79.1615 22.4545 79.0932 22.4267 79.0245C22.266 78.6262 22.1311 78.2179 22.0229 77.8022C22.0042 77.7306 21.9864 77.6587 21.9693 77.5867C21.8542 77.1008 21.7753 76.6056 21.734 76.1052C21.6696 75.3259 21.6963 74.5338 21.8192 73.7445L23.3123 64.1518C24.9494 64.4066 26.07 65.9404 25.8152 67.5775L24.7835 74.2059C24.6974 74.7588 24.6788 75.3131 24.7238 75.8582C24.7809 76.55 24.5986 77.2064 24.246 77.7455C24.8504 77.9685 25.3879 78.3869 25.7542 78.9766C26.0428 79.4412 26.388 79.8752 26.7866 80.2681L33.1051 86.4953C34.2852 87.6583 34.299 89.5578 33.136 90.7378L24.6808 82.4048ZM90.4717 102.775C89.6115 101.596 87.9955 101.191 86.6623 101.886C86.0287 102.217 85.3365 102.454 84.6019 102.58L77.9893 103.708C76.356 103.986 75.2578 105.536 75.5365 107.169L85.1064 105.537C86.1534 105.358 87.1432 105.019 88.0502 104.546C88.4959 104.314 88.9216 104.049 89.3242 103.754C89.7313 103.457 90.1149 103.129 90.4717 102.775ZM94.7989 87.6247C93.1618 87.3699 91.6281 88.4905 91.3732 90.1276L90.3416 96.756C90.227 97.4923 89.9997 98.1879 89.6784 98.8262C89.0022 100.169 89.4304 101.779 90.6218 102.622C90.971 102.26 91.293 101.872 91.5847 101.461C91.8731 101.054 92.1319 100.624 92.3579 100.175C92.818 99.2615 93.1425 98.2668 93.3059 97.2174L94.7989 87.6247ZM28.7801 41.6738C29.6403 42.8528 31.2563 43.2576 32.5895 42.5619C33.2231 42.2313 33.9153 41.994 34.6499 41.8687L41.2625 40.7407C42.8958 40.462 43.994 38.9122 43.7154 37.2789L34.1454 38.9114C33.0984 39.09 32.1086 39.429 31.2016 39.9022C30.7559 40.1348 30.3302 40.3998 29.9276 40.6941C29.5205 40.9918 29.1369 41.3194 28.7801 41.6738ZM24.4529 56.8237C26.09 57.0785 27.6237 55.9579 27.8786 54.3208L28.9102 47.6924C29.0249 46.9561 29.2521 46.2605 29.5734 45.6221C30.2497 44.279 29.8214 42.6691 28.63 41.826C28.2808 42.188 27.9588 42.5763 27.6671 42.9877C27.3787 43.3946 27.1199 43.8241 26.8939 44.2731C26.4338 45.1869 26.1093 46.1816 25.9459 47.231L24.4529 56.8237ZM51.0261 36.0318C51.3047 37.6651 52.8546 38.7632 54.4878 38.4846L61.1005 37.3566C61.6522 37.2625 62.2061 37.2358 62.7518 37.2729C63.4444 37.32 64.098 37.1281 64.632 36.7677C64.8637 37.3688 65.2899 37.9001 65.8848 38.2578C66.3536 38.5397 66.7926 38.8785 67.1912 39.2713L73.5097 45.4986C74.6897 46.6616 76.5892 46.6478 77.7522 45.4677L69.297 37.1346C68.7281 36.5739 68.1007 36.0896 67.4306 35.6867C67.0002 35.428 66.5522 35.2028 66.0906 35.0124C66.0221 34.9842 65.9534 34.9567 65.8843 34.93C65.4837 34.7751 65.0735 34.6462 64.6563 34.544C64.5844 34.5264 64.5123 34.5096 64.44 34.4935C63.9525 34.3855 63.4562 34.3139 62.9552 34.2798C62.175 34.2268 61.3835 34.265 60.596 34.3994L51.0261 36.0318ZM86.1158 53.7105C84.9528 54.8906 84.9666 56.79 86.1467 57.9531L92.4652 64.1803C92.8638 64.5731 93.209 65.0072 93.4976 65.4718C93.8639 66.0615 94.4014 66.4799 95.0058 66.7029C94.6532 67.242 94.4709 67.8983 94.528 68.5901C94.573 69.1353 94.5544 69.6895 94.4683 70.2425L93.4366 76.8709C93.1818 78.508 94.3024 80.0417 95.9395 80.2966L97.4326 70.7039C97.5555 69.9146 97.5822 69.1225 97.5178 68.3432C97.4765 67.8428 97.3976 67.3476 97.2825 66.8617C97.2654 66.7896 97.2476 66.7178 97.2289 66.6461C97.1207 66.2305 96.9858 65.8222 96.8251 65.4239C96.7974 65.3552 96.7689 65.2869 96.7397 65.2188C96.5426 64.76 96.3109 64.3153 96.0459 63.8888C95.6333 63.2245 95.14 62.6043 94.571 62.0436L86.1158 53.7105ZM68.2257 108.417C67.9471 106.783 66.3972 105.685 64.764 105.964L58.1513 107.092C57.5997 107.186 57.0457 107.213 56.5 107.175C55.8074 107.128 55.1538 107.32 54.6199 107.681C54.3882 107.08 53.9619 106.548 53.367 106.191C52.8982 105.909 52.4592 105.57 52.0606 105.177L45.7421 98.9498C44.5621 97.7868 42.6626 97.8006 41.4996 98.9807L49.9548 107.314C50.5237 107.874 51.1511 108.359 51.8212 108.762C52.2516 109.02 52.6996 109.246 53.1612 109.436C53.2297 109.464 53.2984 109.492 53.3675 109.518C53.7681 109.673 54.1783 109.802 54.5955 109.904C54.6674 109.922 54.7395 109.939 54.8118 109.955C55.2993 110.063 55.7956 110.135 56.2966 110.169C57.0768 110.222 57.8683 110.183 58.6558 110.049L68.2257 108.417Z" fill="#97B3CF"/>
<path fill-rule="evenodd" clip-rule="evenodd" d="M3.8789 98.5827C3.30995 98.022 2.81661 97.4018 2.40398 96.7376C2.13901 96.311 1.90732 95.8663 1.71027 95.4076C1.68104 95.3395 1.65257 95.2711 1.62487 95.2025C1.46416 94.8042 1.32925 94.3959 1.221 93.9802C1.20234 93.9086 1.18448 93.8367 1.16741 93.7646C1.05233 93.2788 0.973446 92.7836 0.932118 92.2831C0.86776 91.5038 0.894459 90.7118 1.01731 89.9225L2.51039 80.3298C4.14753 80.5846 5.26812 82.1183 5.01331 83.7555L3.98162 90.3839C3.89556 90.9368 3.87692 91.4911 3.92194 92.0362C3.97907 92.728 3.79671 93.3843 3.44409 93.9235C4.04853 94.1464 4.58602 94.5649 4.95231 95.1545C5.24096 95.6192 5.58615 96.0532 5.98473 96.446L12.3032 102.673C13.4833 103.836 13.4971 105.736 12.3341 106.916L3.8789 98.5827ZM69.6699 118.953C68.8096 117.774 67.1936 117.369 65.8605 118.064C65.2268 118.395 64.5347 118.632 63.8 118.758L57.1874 119.886C55.5541 120.164 54.456 121.714 54.7346 123.347L64.3045 121.715C65.3515 121.536 66.3413 121.197 67.2483 120.724C67.694 120.492 68.1197 120.227 68.5223 119.932C68.9295 119.635 69.313 119.307 69.6699 118.953ZM73.9971 103.803C72.3599 103.548 70.8262 104.668 70.5714 106.306L69.5397 112.934C69.4251 113.67 69.1979 114.366 68.8765 115.004C68.2003 116.347 68.6285 117.957 69.8199 118.8C70.1691 118.438 70.4911 118.05 70.7828 117.639C71.0712 117.232 71.33 116.802 71.5561 116.353C72.0161 115.439 72.3406 114.445 72.504 113.395L73.9971 103.803ZM7.97818 57.8518C8.83846 59.0308 10.4544 59.4356 11.7876 58.7399C12.4212 58.4093 13.1134 58.172 13.848 58.0466L20.4607 56.9186C22.0939 56.64 23.1921 55.0902 22.9135 53.4569L13.3435 55.0894C12.2966 55.268 11.3067 55.6069 10.3997 56.0802C9.95405 56.3128 9.52836 56.5778 9.12573 56.8721C8.71858 57.1698 8.33502 57.4974 7.97818 57.8518ZM3.65098 73.0017C5.28813 73.2565 6.82186 72.1359 7.07668 70.4988L8.10836 63.8704C8.22297 63.134 8.45018 62.4385 8.77156 61.8001C9.44777 60.4569 9.01952 58.8471 7.82816 58.004C7.47896 58.366 7.15695 58.7543 6.86527 59.1657C6.57682 59.5726 6.31804 60.0021 6.09198 60.4511C5.63195 61.3649 5.3074 62.3595 5.14405 63.409L3.65098 73.0017ZM30.2242 52.2098C30.5028 53.8431 32.0527 54.9412 33.686 54.6626L40.2986 53.5346C40.8503 53.4405 41.4042 53.4138 41.9499 53.4509C42.6425 53.498 43.2961 53.3061 43.8301 52.9456C44.0618 53.5468 44.488 54.0781 45.0829 54.4358C45.5517 54.7177 45.9907 55.0565 46.3893 55.4493L52.7078 61.6766C53.8879 62.8396 55.7873 62.8258 56.9503 61.6457L48.4951 53.3126C47.9262 52.7519 47.2989 52.2676 46.6287 51.8647C46.1984 51.606 45.7503 51.3808 45.2887 51.1904C45.2203 51.1622 45.1515 51.1347 45.0824 51.108C44.6818 50.9531 44.2716 50.8242 43.8544 50.722C43.7825 50.7043 43.7104 50.6875 43.6381 50.6715C43.1506 50.5635 42.6543 50.4918 42.1533 50.4578C41.3732 50.4048 40.5816 50.443 39.7942 50.5773L30.2242 52.2098ZM65.3139 69.8885C64.1509 71.0686 64.1647 72.968 65.3448 74.131L71.6633 80.3583C72.0619 80.7511 72.4071 81.1851 72.6957 81.6498C73.062 82.2394 73.5995 82.6579 74.204 82.8808C73.8513 83.42 73.669 84.0763 73.7261 84.7681C73.7711 85.3133 73.7525 85.8675 73.6664 86.4205L72.6347 93.0488C72.3799 94.686 73.5005 96.2197 75.1377 96.4745L76.6307 86.8819C76.7536 86.0925 76.7803 85.3005 76.7159 84.5212C76.6746 84.0208 76.5957 83.5256 76.4806 83.0397C76.4636 82.9676 76.4457 82.8958 76.427 82.8241C76.3188 82.4085 76.1839 82.0002 76.0232 81.6019C75.9955 81.5332 75.967 81.4648 75.9378 81.3968C75.7407 80.938 75.509 80.4933 75.2441 80.0668C74.8314 79.4025 74.3381 78.7823 73.7691 78.2216L65.3139 69.8885ZM47.4238 124.595C47.1452 122.961 45.5954 121.863 43.9621 122.142L37.3494 123.27C36.7978 123.364 36.2439 123.391 35.6981 123.353C35.0056 123.306 34.352 123.498 33.818 123.859C33.5863 123.258 33.16 122.726 32.5651 122.369C32.0963 122.087 31.6573 121.748 31.2587 121.355L24.9402 115.128C23.7602 113.965 21.8607 113.979 20.6977 115.159L29.1529 123.492C29.7219 124.052 30.3492 124.537 31.0193 124.94C31.4497 125.198 31.8977 125.424 32.3593 125.614C32.4278 125.642 32.4966 125.67 32.5656 125.696C32.9662 125.851 33.3764 125.98 33.7936 126.082C33.8655 126.1 33.9376 126.117 34.01 126.133C34.4974 126.241 34.9937 126.312 35.4947 126.347C36.2749 126.4 37.0664 126.361 37.8539 126.227L47.4238 124.595Z" fill="#93C9FF"/>
</svg>
