<svg width="219" height="622" viewBox="0 0 219 622" fill="none" xmlns="http://www.w3.org/2000/svg">
<g clip-path="url(#clip0_18_984)">
<g clip-path="url(#clip1_18_984)">
<circle cx="213.263" cy="32.4793" r="3.79201" transform="rotate(66.258 213.263 32.4793)" fill="#053964"/>
<circle cx="222.424" cy="53.3057" r="3.79201" transform="rotate(66.258 222.424 53.3057)" fill="#053964"/>
</g>
<g clip-path="url(#clip2_18_984)">
<circle cx="192.437" cy="41.6395" r="3.79201" transform="rotate(66.258 192.437 41.6395)" fill="#053964"/>
<circle cx="201.597" cy="62.466" r="3.79201" transform="rotate(66.258 201.597 62.466)" fill="#053964"/>
<circle cx="210.758" cy="83.2926" r="3.79201" transform="rotate(66.258 210.758 83.2926)" fill="#053964"/>
<circle cx="219.918" cy="104.119" r="3.79201" transform="rotate(66.258 219.918 104.119)" fill="#053964"/>
</g>
<g clip-path="url(#clip3_18_984)">
<circle cx="171.61" cy="50.7999" r="3.79201" transform="rotate(66.258 171.61 50.7999)" fill="#053964"/>
<circle cx="180.77" cy="71.6264" r="3.79201" transform="rotate(66.258 180.77 71.6264)" fill="#053964"/>
<circle cx="189.931" cy="92.453" r="3.79201" transform="rotate(66.258 189.931 92.453)" fill="#053964"/>
<circle cx="199.091" cy="113.28" r="3.79201" transform="rotate(66.258 199.091 113.28)" fill="#053964"/>
<circle cx="208.252" cy="134.106" r="3.79201" transform="rotate(66.258 208.252 134.106)" fill="#053964"/>
<circle cx="217.412" cy="154.933" r="3.79201" transform="rotate(66.258 217.412 154.933)" fill="#053964"/>
</g>
<g clip-path="url(#clip4_18_984)">
<circle cx="150.784" cy="59.9605" r="3.79201" transform="rotate(66.258 150.784 59.9605)" fill="#053964"/>
<circle cx="159.944" cy="80.7869" r="3.79201" transform="rotate(66.258 159.944 80.7869)" fill="#053964"/>
<circle cx="169.104" cy="101.614" r="3.79201" transform="rotate(66.258 169.104 101.614)" fill="#053964"/>
<circle cx="178.265" cy="122.44" r="3.79201" transform="rotate(66.258 178.265 122.44)" fill="#053964"/>
<circle cx="187.425" cy="143.266" r="3.79201" transform="rotate(66.258 187.425 143.266)" fill="#053964"/>
<circle cx="196.586" cy="164.093" r="3.79201" transform="rotate(66.258 196.586 164.093)" fill="#053964"/>
<circle cx="205.746" cy="184.92" r="3.79201" transform="rotate(66.258 205.746 184.92)" fill="#053964"/>
<circle cx="214.907" cy="205.746" r="3.79201" transform="rotate(66.258 214.907 205.746)" fill="#053964"/>
</g>
<g clip-path="url(#clip5_18_984)">
<circle cx="129.957" cy="69.1209" r="3.79201" transform="rotate(66.258 129.957 69.1209)" fill="#053964"/>
<circle cx="139.117" cy="89.9473" r="3.79201" transform="rotate(66.258 139.117 89.9473)" fill="#053964"/>
<circle cx="148.278" cy="110.774" r="3.79201" transform="rotate(66.258 148.278 110.774)" fill="#053964"/>
<circle cx="157.438" cy="131.6" r="3.79201" transform="rotate(66.258 157.438 131.6)" fill="#053964"/>
<circle cx="166.599" cy="152.427" r="3.79201" transform="rotate(66.258 166.599 152.427)" fill="#053964"/>
<circle cx="175.759" cy="173.254" r="3.79201" transform="rotate(66.258 175.759 173.254)" fill="#053964"/>
<circle cx="184.92" cy="194.08" r="3.79201" transform="rotate(66.258 184.92 194.08)" fill="#053964"/>
<circle cx="194.08" cy="214.907" r="3.79201" transform="rotate(66.258 194.08 214.907)" fill="#053964"/>
<circle cx="203.24" cy="235.733" r="3.79201" transform="rotate(66.258 203.24 235.733)" fill="#053964"/>
<circle cx="212.401" cy="256.56" r="3.79201" transform="rotate(66.258 212.401 256.56)" fill="#053964"/>
<circle cx="221.561" cy="277.386" r="3.79201" transform="rotate(66.258 221.561 277.386)" fill="#053964"/>
</g>
<g clip-path="url(#clip6_18_984)">
<circle cx="109.13" cy="78.2813" r="3.79201" transform="rotate(66.258 109.13 78.2813)" fill="#053964"/>
<circle cx="118.291" cy="99.1078" r="3.79201" transform="rotate(66.258 118.291 99.1078)" fill="#053964"/>
<circle cx="127.451" cy="119.934" r="3.79201" transform="rotate(66.258 127.451 119.934)" fill="#053964"/>
<circle cx="136.612" cy="140.761" r="3.79201" transform="rotate(66.258 136.612 140.761)" fill="#053964"/>
<circle cx="145.772" cy="161.587" r="3.79201" transform="rotate(66.258 145.772 161.587)" fill="#053964"/>
<circle cx="154.933" cy="182.414" r="3.79201" transform="rotate(66.258 154.933 182.414)" fill="#053964"/>
<circle cx="164.093" cy="203.24" r="3.79201" transform="rotate(66.258 164.093 203.24)" fill="#053964"/>
<circle cx="173.254" cy="224.067" r="3.79201" transform="rotate(66.258 173.254 224.067)" fill="#053964"/>
<circle cx="182.414" cy="244.894" r="3.79201" transform="rotate(66.258 182.414 244.894)" fill="#053964"/>
<circle cx="191.574" cy="265.72" r="3.79201" transform="rotate(66.258 191.574 265.72)" fill="#053964"/>
<circle cx="200.735" cy="286.547" r="3.79201" transform="rotate(66.258 200.735 286.547)" fill="#053964"/>
<circle cx="209.895" cy="307.373" r="3.79201" transform="rotate(66.258 209.895 307.373)" fill="#053964"/>
<circle cx="219.056" cy="328.199" r="3.79201" transform="rotate(66.258 219.056 328.199)" fill="#053964"/>
</g>
<g clip-path="url(#clip7_18_984)">
<circle cx="88.3041" cy="87.4418" r="3.79201" transform="rotate(66.258 88.3041 87.4418)" fill="#053964"/>
<circle cx="97.4646" cy="108.268" r="3.79201" transform="rotate(66.258 97.4646 108.268)" fill="#053964"/>
<circle cx="106.625" cy="129.095" r="3.79201" transform="rotate(66.258 106.625 129.095)" fill="#053964"/>
<circle cx="115.785" cy="149.921" r="3.79201" transform="rotate(66.258 115.785 149.921)" fill="#053964"/>
<circle cx="124.946" cy="170.748" r="3.79201" transform="rotate(66.258 124.946 170.748)" fill="#053964"/>
<circle cx="134.106" cy="191.574" r="3.79201" transform="rotate(66.258 134.106 191.574)" fill="#053964"/>
<circle cx="143.267" cy="212.401" r="3.79201" transform="rotate(66.258 143.267 212.401)" fill="#053964"/>
<circle cx="152.427" cy="233.228" r="3.79201" transform="rotate(66.258 152.427 233.228)" fill="#053964"/>
<circle cx="161.588" cy="254.054" r="3.79201" transform="rotate(66.258 161.588 254.054)" fill="#053964"/>
<circle cx="170.748" cy="274.88" r="3.79201" transform="rotate(66.258 170.748 274.88)" fill="#053964"/>
<circle cx="179.908" cy="295.707" r="3.79201" transform="rotate(66.258 179.908 295.707)" fill="#053964"/>
<circle cx="189.069" cy="316.534" r="3.79201" transform="rotate(66.258 189.069 316.534)" fill="#053964"/>
<circle cx="198.229" cy="337.36" r="3.79201" transform="rotate(66.258 198.229 337.36)" fill="#053964"/>
<circle cx="207.39" cy="358.187" r="3.79201" transform="rotate(66.258 207.39 358.187)" fill="#053964"/>
<circle cx="216.55" cy="379.013" r="3.79201" transform="rotate(66.258 216.55 379.013)" fill="#053964"/>
</g>
<g clip-path="url(#clip8_18_984)">
<circle cx="67.4774" cy="96.6021" r="3.79201" transform="rotate(66.258 67.4774 96.6021)" fill="#053964"/>
<circle cx="76.6379" cy="117.428" r="3.79201" transform="rotate(66.258 76.6379 117.428)" fill="#053964"/>
<circle cx="85.7983" cy="138.255" r="3.79201" transform="rotate(66.258 85.7983 138.255)" fill="#053964"/>
<circle cx="94.9588" cy="159.082" r="3.79201" transform="rotate(66.258 94.9588 159.082)" fill="#053964"/>
<circle cx="104.119" cy="179.908" r="3.79201" transform="rotate(66.258 104.119 179.908)" fill="#053964"/>
<circle cx="113.28" cy="200.735" r="3.79201" transform="rotate(66.258 113.28 200.735)" fill="#053964"/>
<circle cx="122.44" cy="221.561" r="3.79201" transform="rotate(66.258 122.44 221.561)" fill="#053964"/>
<circle cx="131.6" cy="242.388" r="3.79201" transform="rotate(66.258 131.6 242.388)" fill="#053964"/>
<circle cx="140.761" cy="263.214" r="3.79201" transform="rotate(66.258 140.761 263.214)" fill="#053964"/>
<circle cx="149.921" cy="284.041" r="3.79201" transform="rotate(66.258 149.921 284.041)" fill="#053964"/>
<circle cx="159.082" cy="304.867" r="3.79201" transform="rotate(66.258 159.082 304.867)" fill="#053964"/>
<circle cx="168.242" cy="325.694" r="3.79201" transform="rotate(66.258 168.242 325.694)" fill="#053964"/>
<circle cx="177.403" cy="346.52" r="3.79201" transform="rotate(66.258 177.403 346.52)" fill="#053964"/>
<circle cx="186.563" cy="367.347" r="3.79201" transform="rotate(66.258 186.563 367.347)" fill="#053964"/>
<circle cx="195.723" cy="388.173" r="3.79201" transform="rotate(66.258 195.723 388.173)" fill="#053964"/>
<circle cx="204.884" cy="409" r="3.79201" transform="rotate(66.258 204.884 409)" fill="#053964"/>
<circle cx="214.044" cy="429.826" r="3.79201" transform="rotate(66.258 214.044 429.826)" fill="#053964"/>
<circle cx="223.205" cy="450.653" r="3.79201" transform="rotate(66.258 223.205 450.653)" fill="#053964"/>
</g>
<g clip-path="url(#clip9_18_984)">
<circle cx="46.651" cy="105.762" r="3.79201" transform="rotate(66.258 46.651 105.762)" fill="#053964"/>
<circle cx="55.8114" cy="126.589" r="3.79201" transform="rotate(66.258 55.8114 126.589)" fill="#053964"/>
<circle cx="64.9719" cy="147.416" r="3.79201" transform="rotate(66.258 64.9719 147.416)" fill="#053964"/>
<circle cx="74.1323" cy="168.242" r="3.79201" transform="rotate(66.258 74.1323 168.242)" fill="#053964"/>
<circle cx="83.2926" cy="189.068" r="3.79201" transform="rotate(66.258 83.2926 189.068)" fill="#053964"/>
<circle cx="92.4531" cy="209.895" r="3.79201" transform="rotate(66.258 92.4531 209.895)" fill="#053964"/>
<circle cx="101.614" cy="230.722" r="3.79201" transform="rotate(66.258 101.614 230.722)" fill="#053964"/>
<circle cx="110.774" cy="251.548" r="3.79201" transform="rotate(66.258 110.774 251.548)" fill="#053964"/>
<circle cx="119.934" cy="272.375" r="3.79201" transform="rotate(66.258 119.934 272.375)" fill="#053964"/>
<circle cx="129.095" cy="293.201" r="3.79201" transform="rotate(66.258 129.095 293.201)" fill="#053964"/>
<circle cx="138.255" cy="314.028" r="3.79201" transform="rotate(66.258 138.255 314.028)" fill="#053964"/>
<circle cx="147.416" cy="334.854" r="3.79201" transform="rotate(66.258 147.416 334.854)" fill="#053964"/>
<circle cx="156.576" cy="355.681" r="3.79201" transform="rotate(66.258 156.576 355.681)" fill="#053964"/>
<circle cx="165.737" cy="376.507" r="3.79201" transform="rotate(66.258 165.737 376.507)" fill="#053964"/>
<circle cx="174.897" cy="397.334" r="3.79201" transform="rotate(66.258 174.897 397.334)" fill="#053964"/>
<circle cx="184.057" cy="418.16" r="3.79201" transform="rotate(66.258 184.057 418.16)" fill="#053964"/>
<circle cx="193.218" cy="438.987" r="3.79201" transform="rotate(66.258 193.218 438.987)" fill="#053964"/>
<circle cx="202.378" cy="459.813" r="3.79201" transform="rotate(66.258 202.378 459.813)" fill="#053964"/>
<circle cx="211.539" cy="480.64" r="3.79201" transform="rotate(66.258 211.539 480.64)" fill="#053964"/>
<circle cx="220.699" cy="501.467" r="3.79201" transform="rotate(66.258 220.699 501.467)" fill="#053964"/>
</g>
<g clip-path="url(#clip10_18_984)">
<circle cx="25.8246" cy="114.923" r="3.79201" transform="rotate(66.258 25.8246 114.923)" fill="#053964"/>
<circle cx="34.985" cy="135.749" r="3.79201" transform="rotate(66.258 34.985 135.749)" fill="#053964"/>
<circle cx="44.1454" cy="156.576" r="3.79201" transform="rotate(66.258 44.1454 156.576)" fill="#053964"/>
<circle cx="53.3059" cy="177.402" r="3.79201" transform="rotate(66.258 53.3059 177.402)" fill="#053964"/>
<circle cx="62.4662" cy="198.229" r="3.79201" transform="rotate(66.258 62.4662 198.229)" fill="#053964"/>
<circle cx="71.6266" cy="219.056" r="3.79201" transform="rotate(66.258 71.6266 219.056)" fill="#053964"/>
<circle cx="80.7871" cy="239.882" r="3.79201" transform="rotate(66.258 80.7871 239.882)" fill="#053964"/>
<circle cx="89.9475" cy="260.709" r="3.79201" transform="rotate(66.258 89.9475 260.709)" fill="#053964"/>
<circle cx="99.108" cy="281.535" r="3.79201" transform="rotate(66.258 99.108 281.535)" fill="#053964"/>
<circle cx="108.268" cy="302.362" r="3.79201" transform="rotate(66.258 108.268 302.362)" fill="#053964"/>
<circle cx="117.429" cy="323.188" r="3.79201" transform="rotate(66.258 117.429 323.188)" fill="#053964"/>
<circle cx="126.589" cy="344.015" r="3.79201" transform="rotate(66.258 126.589 344.015)" fill="#053964"/>
<circle cx="135.75" cy="364.841" r="3.79201" transform="rotate(66.258 135.75 364.841)" fill="#053964"/>
<circle cx="144.91" cy="385.668" r="3.79201" transform="rotate(66.258 144.91 385.668)" fill="#053964"/>
<circle cx="154.071" cy="406.494" r="3.79201" transform="rotate(66.258 154.071 406.494)" fill="#053964"/>
<circle cx="163.231" cy="427.321" r="3.79201" transform="rotate(66.258 163.231 427.321)" fill="#053964"/>
<circle cx="172.391" cy="448.147" r="3.79201" transform="rotate(66.258 172.391 448.147)" fill="#053964"/>
<circle cx="181.552" cy="468.974" r="3.79201" transform="rotate(66.258 181.552 468.974)" fill="#053964"/>
<circle cx="190.712" cy="489.801" r="3.79201" transform="rotate(66.258 190.712 489.801)" fill="#053964"/>
<circle cx="199.873" cy="510.627" r="3.79201" transform="rotate(66.258 199.873 510.627)" fill="#053964"/>
<circle cx="209.033" cy="531.454" r="3.79201" transform="rotate(66.258 209.033 531.454)" fill="#053964"/>
<circle cx="218.194" cy="552.28" r="3.79201" transform="rotate(66.258 218.194 552.28)" fill="#053964"/>
</g>
<g clip-path="url(#clip11_18_984)">
<circle cx="4.99791" cy="124.083" r="3.79201" transform="rotate(66.258 4.99791 124.083)" fill="#053964"/>
<circle cx="14.1583" cy="144.91" r="3.79201" transform="rotate(66.258 14.1583 144.91)" fill="#053964"/>
<circle cx="23.3188" cy="165.736" r="3.79201" transform="rotate(66.258 23.3188 165.736)" fill="#053964"/>
<circle cx="32.4792" cy="186.563" r="3.79201" transform="rotate(66.258 32.4792 186.563)" fill="#053964"/>
<circle cx="41.6395" cy="207.389" r="3.79201" transform="rotate(66.258 41.6395 207.389)" fill="#053964"/>
<circle cx="50.7999" cy="228.216" r="3.79201" transform="rotate(66.258 50.7999 228.216)" fill="#053964"/>
<circle cx="59.9604" cy="249.042" r="3.79201" transform="rotate(66.258 59.9604 249.042)" fill="#053964"/>
<circle cx="69.1208" cy="269.869" r="3.79201" transform="rotate(66.258 69.1208 269.869)" fill="#053964"/>
<circle cx="78.2814" cy="290.696" r="3.79201" transform="rotate(66.258 78.2814 290.696)" fill="#053964"/>
<circle cx="87.4418" cy="311.522" r="3.79201" transform="rotate(66.258 87.4418 311.522)" fill="#053964"/>
<circle cx="96.602" cy="332.349" r="3.79201" transform="rotate(66.258 96.602 332.349)" fill="#053964"/>
<circle cx="105.763" cy="353.175" r="3.79201" transform="rotate(66.258 105.763 353.175)" fill="#053964"/>
<circle cx="114.923" cy="374.002" r="3.79201" transform="rotate(66.258 114.923 374.002)" fill="#053964"/>
<circle cx="124.083" cy="394.828" r="3.79201" transform="rotate(66.258 124.083 394.828)" fill="#053964"/>
<circle cx="133.244" cy="415.655" r="3.79201" transform="rotate(66.258 133.244 415.655)" fill="#053964"/>
<circle cx="142.404" cy="436.481" r="3.79201" transform="rotate(66.258 142.404 436.481)" fill="#053964"/>
<circle cx="151.565" cy="457.308" r="3.79201" transform="rotate(66.258 151.565 457.308)" fill="#053964"/>
<circle cx="160.725" cy="478.134" r="3.79201" transform="rotate(66.258 160.725 478.134)" fill="#053964"/>
<circle cx="169.885" cy="498.961" r="3.79201" transform="rotate(66.258 169.885 498.961)" fill="#053964"/>
<circle cx="179.046" cy="519.787" r="3.79201" transform="rotate(66.258 179.046 519.787)" fill="#053964"/>
<circle cx="188.206" cy="540.614" r="3.79201" transform="rotate(66.258 188.206 540.614)" fill="#053964"/>
<circle cx="197.367" cy="561.44" r="3.79201" transform="rotate(66.258 197.367 561.44)" fill="#053964"/>
<circle cx="206.527" cy="582.267" r="3.79201" transform="rotate(66.258 206.527 582.267)" fill="#053964"/>
<circle cx="215.688" cy="603.094" r="3.79201" transform="rotate(66.258 215.688 603.094)" fill="#053964"/>
</g>
</g>
<defs>
<clipPath id="clip0_18_984">
<rect width="546.05" height="303.361" fill="white" transform="translate(277.687) rotate(66.258)"/>
</clipPath>
<clipPath id="clip1_18_984">
<rect width="546.05" height="22.7521" fill="white" transform="translate(215.208 27.4814) rotate(66.258)"/>
</clipPath>
<clipPath id="clip2_18_984">
<rect width="546.05" height="22.7521" fill="white" transform="translate(194.381 36.6417) rotate(66.258)"/>
</clipPath>
<clipPath id="clip3_18_984">
<rect width="546.05" height="22.7521" fill="white" transform="translate(173.554 45.8021) rotate(66.258)"/>
</clipPath>
<clipPath id="clip4_18_984">
<rect width="546.05" height="22.7521" fill="white" transform="translate(152.728 54.9626) rotate(66.258)"/>
</clipPath>
<clipPath id="clip5_18_984">
<rect width="546.05" height="22.7521" fill="white" transform="translate(131.901 64.123) rotate(66.258)"/>
</clipPath>
<clipPath id="clip6_18_984">
<rect width="546.05" height="22.7521" fill="white" transform="translate(111.075 73.2834) rotate(66.258)"/>
</clipPath>
<clipPath id="clip7_18_984">
<rect width="546.05" height="22.7521" fill="white" transform="translate(90.2484 82.444) rotate(66.258)"/>
</clipPath>
<clipPath id="clip8_18_984">
<rect width="546.05" height="22.7521" fill="white" transform="translate(69.4218 91.6042) rotate(66.258)"/>
</clipPath>
<clipPath id="clip9_18_984">
<rect width="546.05" height="22.7521" fill="white" transform="translate(48.5953 100.765) rotate(66.258)"/>
</clipPath>
<clipPath id="clip10_18_984">
<rect width="546.05" height="22.7521" fill="white" transform="translate(27.7689 109.925) rotate(66.258)"/>
</clipPath>
<clipPath id="clip11_18_984">
<rect width="546.05" height="22.7521" fill="white" transform="translate(6.94226 119.086) rotate(66.258)"/>
</clipPath>
</defs>
</svg>
