<svg width="214" height="250" viewBox="0 0 214 250" fill="none" xmlns="http://www.w3.org/2000/svg">
<path d="M80.6868 99.9276C86.1156 100.673 91.5077 105.81 94.742 113.318L118.989 169.606C125.688 185.158 120.151 202.222 108.907 200.678L68.2085 195.093C62.7797 194.348 57.3876 189.211 54.1533 181.703L29.9063 125.415C23.2072 109.863 28.744 92.7992 39.9884 94.3423L80.6868 99.9276Z" fill="#042C4C"/>
<path d="M142.731 49.675C148.568 49.8444 154.652 54.793 158.391 62.4136L184.681 115.99C191.875 130.651 187.186 147.305 175.955 146.979L134.915 145.788C129.078 145.619 122.994 140.67 119.255 133.049L92.9649 79.4733C85.7707 64.8123 90.4601 48.1581 101.691 48.484L142.731 49.675Z" stroke="#185C96" stroke-width="8" stroke-linecap="round" stroke-linejoin="round" stroke-dasharray="49 49"/>
<path d="M110.159 75.1403C115.996 75.3098 122.08 80.2583 125.819 87.8789L152.109 141.455C159.303 156.116 154.614 172.77 143.383 172.444L102.343 171.253C96.506 171.084 90.4223 166.135 86.6828 158.515L60.393 104.939C53.1988 90.2776 57.8882 73.6234 69.1187 73.9493L110.159 75.1403Z" stroke="#113D63" stroke-width="8" stroke-linecap="round" stroke-linejoin="round" stroke-dasharray="49 49"/>
</svg>
