<svg width="214" height="251" viewBox="0 0 214 251" fill="none" xmlns="http://www.w3.org/2000/svg">
<path d="M80.6868 99.9276C86.1156 100.673 91.5077 105.81 94.742 113.318L118.989 169.606C125.688 185.158 120.151 202.222 108.907 200.678L68.2085 195.093C62.7797 194.348 57.3876 189.211 54.1533 181.703L29.9063 125.415C23.2072 109.863 28.744 92.7992 39.9884 94.3423L80.6868 99.9276Z" fill="#042C4C"/>
<path d="M111.951 48.7818L132.471 49.3773L131.741 44.7743L142.001 45.0721C149.067 45.2772 156.432 51.2675 160.958 60.4925L167.531 73.8865L164.964 75.8076L178.109 102.596L180.676 100.675L187.248 114.069C195.957 131.816 190.28 151.976 176.685 151.582L166.425 151.284L165.695 146.681L145.175 146.086L145.905 150.689L135.645 150.391C128.579 150.186 121.214 144.195 116.688 134.97L110.115 121.576L112.682 119.655L99.5374 92.8673L96.9704 94.7884L90.3979 81.3944C81.6892 63.6469 87.3658 43.4865 100.961 43.8811L111.221 44.1788L111.951 48.7818Z" stroke="#185C96" stroke-width="8" stroke-linejoin="round" stroke-dasharray="49 49"/>
<path d="M79.3787 74.2471L99.8987 74.8426L99.1687 70.2397L109.429 70.5374C116.495 70.7425 123.86 76.7329 128.386 85.9578L134.959 99.3518L132.392 101.273L145.537 128.061L148.104 126.14L154.676 139.534C163.385 157.281 157.708 177.442 144.113 177.047L133.853 176.749L133.123 172.147L112.603 171.551L113.333 176.154L103.073 175.856C96.007 175.651 88.6425 169.661 84.1159 160.436L77.5434 147.042L80.1104 145.121L66.9655 118.333L64.3985 120.254L57.826 106.86C49.1173 89.1122 54.7939 68.9519 68.3887 69.3464L78.6487 69.6442L79.3787 74.2471Z" stroke="#113D63" stroke-width="8" stroke-linejoin="round" stroke-dasharray="49 49"/>
</svg>
