<svg width="334" height="349" viewBox="0 0 334 349" fill="none" xmlns="http://www.w3.org/2000/svg">
<path d="M142.31 96.5681C147.739 97.3131 153.131 102.45 156.366 109.958L211.153 237.145C217.852 252.697 212.316 269.761 201.071 268.218L109.11 255.597C103.681 254.852 98.2893 249.715 95.055 242.207L40.2673 115.02C33.5681 99.4686 39.1049 82.4046 50.3494 83.9478L142.31 96.5681Z" fill="#042C4C"/>
<path fill-rule="evenodd" clip-rule="evenodd" d="M161.097 69.5908L153.915 73.115L139.087 42.8972C134.717 33.9901 133.756 24.1386 136.022 16.09C138.273 8.09485 144.594 0.0784633 155.227 0.387051L178.374 1.0588L178.142 9.05544L154.995 8.38368C143.764 8.05777 139.075 24.712 146.269 39.373L161.097 69.5908ZM224.437 10.3989L224.669 2.4023L247.816 3.07405C257.873 3.36592 266.044 11.3534 270.426 20.2851L285.254 50.5029L278.072 54.0271L263.244 23.8093C259.505 16.1887 253.421 11.2401 247.584 11.0707L224.437 10.3989ZM307.728 114.463L314.91 110.938L329.738 141.156C334.109 150.063 335.069 159.915 332.803 167.963C330.552 175.959 324.232 183.975 313.598 183.666L290.451 182.995L290.683 174.998L313.83 175.67C325.061 175.996 329.75 159.341 322.556 144.68L307.728 114.463ZM244.389 173.655L244.157 181.651L221.009 180.979C210.952 180.688 202.782 172.7 198.399 163.768L183.571 133.551L190.753 130.026L205.581 160.244C209.32 167.865 215.404 172.813 221.241 172.983L244.389 173.655Z" fill="#185C96"/>
<path fill-rule="evenodd" clip-rule="evenodd" d="M106.097 112.591L98.9151 116.115L84.0872 85.8972C79.7165 76.9901 78.7559 67.1386 81.0222 59.09C83.2734 51.0949 89.5936 43.0785 100.227 43.3871L123.374 44.0588L123.142 52.0554L99.9949 51.3837C88.7643 51.0578 84.075 67.712 91.2692 82.373L106.097 112.591ZM169.437 53.3989L169.669 45.4023L192.816 46.0741C202.873 46.3659 211.044 54.3534 215.426 63.2851L230.254 93.5029L223.072 97.0271L208.244 66.8093C204.505 59.1887 198.421 54.2401 192.584 54.0707L169.437 53.3989ZM252.728 157.463L259.91 153.938L274.738 184.156C279.109 193.063 280.069 202.915 277.803 210.963C275.552 218.959 269.232 226.975 258.598 226.666L235.451 225.995L235.683 217.998L258.83 218.67C270.061 218.996 274.75 202.341 267.556 187.68L252.728 157.463ZM189.389 216.655L189.157 224.651L166.009 223.979C155.952 223.688 147.782 215.7 143.399 206.768L128.571 176.551L135.753 173.026L150.581 203.244C154.32 210.865 160.404 215.813 166.241 215.983L189.389 216.655Z" fill="#113D63"/>
</svg>
