<svg width="116" height="214" viewBox="0 0 116 214" fill="none" xmlns="http://www.w3.org/2000/svg">
<circle cx="99" cy="179" r="17" fill="#FFB45C"/>
<path d="M-158.262 66.692C-158.85 65.4427 -158.314 63.9534 -157.065 63.3654C-155.815 62.7774 -154.326 63.3136 -153.738 64.5628L-158.262 66.692ZM65.3541 149.569C62.4378 147.336 59.5678 145.223 56.7432 143.223L59.6321 139.142C62.5092 141.179 65.4293 143.329 68.3937 145.599L65.3541 149.569ZM38.9984 131.763C32.5125 127.986 26.2855 124.823 20.3002 122.187L22.3152 117.611C28.4808 120.326 34.8746 123.576 41.5144 127.442L38.9984 131.763ZM0.55486 115.047C-6.65082 113.018 -13.4823 111.732 -19.9815 110.998L-19.4199 106.029C-12.6591 106.794 -5.56189 108.13 1.91031 110.234L0.55486 115.047ZM-40.8927 110.343C-48.2774 110.684 -55.2248 111.564 -61.8389 112.603L-62.6145 107.663C-55.9011 106.609 -48.7573 105.7 -41.1231 105.348L-40.8927 110.343ZM-82.9109 116.134C-90.4728 117.273 -97.7409 117.969 -104.776 117.324L-104.319 112.345C-97.8879 112.934 -91.0914 112.31 -83.6554 111.19L-82.9109 116.134ZM-125.871 110.122C-131.306 106.59 -136.572 101.62 -141.78 94.8311L-137.813 91.7878C-132.877 98.2216 -128.013 102.767 -123.146 105.929L-125.871 110.122ZM-153.424 76.3694C-155.031 73.3538 -156.643 70.1321 -158.262 66.692L-153.738 64.5628C-152.151 67.9348 -150.576 71.0818 -149.012 74.0176L-153.424 76.3694Z" fill="#7E2626"/>
</svg>
