<svg width="256" height="358" viewBox="0 0 256 358" fill="none" xmlns="http://www.w3.org/2000/svg">
<circle cx="44" cy="40" r="27" fill="#56A08A"/>
<circle cx="32" cy="32" r="29.5" stroke="#0F251F" stroke-width="5" stroke-linecap="round" stroke-linejoin="round" stroke-dasharray="20 20"/>
<path d="M284.516 357.453C285.871 357.72 287.185 356.839 287.453 355.484C287.72 354.129 286.839 352.815 285.484 352.547L284.516 357.453ZM120.542 114.349C123.746 115.518 126.836 116.728 129.817 117.974L131.746 113.361C128.692 112.084 125.531 110.847 122.257 109.652L120.542 114.349ZM147.34 126.386C153.402 129.722 158.892 133.248 163.869 136.935L166.845 132.917C161.679 129.09 156 125.445 149.751 122.006L147.34 126.386ZM178.508 149.648C183.207 154.452 187.272 159.453 190.804 164.609L194.929 161.784C191.237 156.393 186.987 151.167 182.083 146.152L178.508 149.648ZM200.362 181.503C203.109 187.46 205.346 193.561 207.195 199.752L211.986 198.321C210.078 191.934 207.761 185.608 204.902 179.409L200.362 181.503ZM211.751 218.803C212.971 225.281 213.914 231.789 214.717 238.276L219.679 237.662C218.868 231.109 217.91 224.49 216.665 217.878L211.751 218.803ZM216.877 257.969C217.571 264.691 218.266 271.331 219.122 277.782L224.079 277.124C223.233 270.755 222.545 264.185 221.851 257.455L216.877 257.969ZM222.586 297.571C224.154 304.343 226.163 310.817 228.861 316.861L233.427 314.823C230.892 309.143 228.973 302.99 227.457 296.443L222.586 297.571ZM239.82 334.207C244.172 339.156 249.426 343.524 255.793 347.207L258.296 342.879C252.392 339.464 247.563 335.44 243.575 330.905L239.82 334.207ZM274.604 355.059C277.729 355.965 281.029 356.765 284.516 357.453L285.484 352.547C282.131 351.885 278.973 351.12 275.997 350.257L274.604 355.059Z" fill="#7E2626"/>
</svg>
