<svg width="127" height="122" viewBox="0 0 127 122" fill="none" xmlns="http://www.w3.org/2000/svg">
<path d="M77.3785 40.6662C54.5497 20.76 19.9061 23.1294 -1.41989e-06 45.9582L13.9507 58.1228C27.1385 42.9987 50.0898 41.429 65.2139 54.6168C80.338 67.8046 81.9077 90.756 68.7199 105.88L82.6706 118.045C102.577 95.2158 100.207 60.5723 77.3785 40.6662Z" fill="#042C4D"/>
<path d="M90.8284 41.4731C71.0098 18.5682 36.3756 16.0662 13.4707 35.8847L25.5818 49.8819C40.7563 36.7521 63.7014 38.4097 76.8312 53.5842C89.961 68.7587 88.3034 91.7039 73.1289 104.834L85.24 118.831C108.145 99.0123 110.647 64.3781 90.8284 41.4731Z" stroke="#61A3D9" stroke-width="5" stroke-linecap="round" stroke-linejoin="round" stroke-dasharray="30 30"/>
</svg>
