<svg width="522" height="534" viewBox="0 0 522 534" fill="none" xmlns="http://www.w3.org/2000/svg">
<path d="M290.613 147.01C325.949 127.914 367.99 157.109 362.439 196.89L339.911 358.332C334.863 394.508 293.434 412.642 263.432 391.808L142.553 307.862C112.551 287.028 115.072 241.873 147.207 224.507L290.613 147.01Z" fill="#093C65"/>
<path d="M269.5 140.446C268.918 141.035 268.925 141.985 269.514 142.567L243.001 169.441C242.411 168.859 241.461 168.866 240.88 169.455L212.259 198.465C211.677 199.055 211.684 200.005 212.273 200.586L185.76 227.461C185.17 226.879 184.22 226.885 183.639 227.475L169.328 241.98C162.917 248.478 158.708 256.074 156.532 264.017C156.313 264.816 156.783 265.641 157.582 265.86C157.589 265.862 157.597 265.864 157.604 265.866C153.889 281.293 157.958 297.854 168.399 309.802C168.394 309.807 168.388 309.812 168.382 309.817C167.776 310.382 167.741 311.331 168.306 311.937C173.916 317.967 181.165 322.748 189.858 325.535L224.893 336.769C225.682 337.022 226.527 336.587 226.78 335.799L293.993 357.35C293.74 358.139 294.174 358.984 294.963 359.237L329.998 370.471C338.691 373.258 347.369 373.584 355.439 371.941C356.251 371.776 356.775 370.984 356.61 370.172C356.608 370.165 356.607 370.157 356.605 370.149C372.048 366.501 384.988 355.394 390.936 340.684C390.943 340.686 390.951 340.689 390.958 340.692C391.735 340.978 392.598 340.58 392.884 339.803C395.732 332.075 396.725 323.448 395.288 314.433L392.081 294.311C391.951 293.493 391.182 292.936 390.364 293.066L384.421 255.785C385.239 255.655 385.797 254.886 385.666 254.068L379.252 213.824C379.121 213.006 378.353 212.448 377.534 212.579L371.592 175.298C372.41 175.167 372.968 174.398 372.837 173.58L369.63 153.458C368.057 143.593 363.93 135.153 358.155 128.452C357.615 127.824 356.667 127.754 356.04 128.294C356.034 128.299 356.028 128.305 356.022 128.31C344.348 115.59 326.399 109.835 309.505 113.394C309.503 113.386 309.501 113.379 309.499 113.371C309.303 112.566 308.492 112.073 307.687 112.269C299.092 114.363 290.827 118.829 283.81 125.941L269.5 140.446Z" stroke="#61A3D9" stroke-width="3" stroke-linecap="round" stroke-linejoin="round" stroke-dasharray="50 50"/>
</svg>
