<?xml version="1.0" encoding="utf-8"?>
<!-- Generator: Adobe Illustrator 26.0.0, SVG Export Plug-In . SVG Version: 6.00 Build 0)  -->
<svg version="1.1" id="Camada_1" xmlns="http://www.w3.org/2000/svg" xmlns:xlink="http://www.w3.org/1999/xlink" x="0px" y="0px"
	 viewBox="0 0 1080 1080" style="enable-background:new 0 0 1080 1080;" xml:space="preserve">
<style type="text/css">
	.st0{fill:none;stroke:#000000;stroke-width:20;stroke-miterlimit:10;}
	.st1{fill:#FFFFFF;}
	.st2{fill:none;}
	.st3{fill:none;stroke:#000000;stroke-width:15;stroke-miterlimit:10;}
</style>
<g>
	<path class="st0" d="M688.2,209.9h19.7c9.7,0,17.6,7.9,17.6,17.6v55c0,9.7-7.9,17.6-17.6,17.6h-19.7c-9.7,0-17.6-7.8-17.6-17.5
		c0-22.6,0-55,0-55C670.6,217.8,678.4,209.9,688.2,209.9z"/>
	<polygon class="st0" points="680,713.8 681,300 716.6,300 716.6,713.8 	"/>
	<path class="st0" d="M680.3,713.8h35.4c9.7,0,17.6,7.9,17.6,17.6v51.7h-70.6v-51.7C662.7,721.7,670.6,713.8,680.3,713.8z"/>
	<path class="st1" d="M529.4,787"/>
	<path class="st0" d="M522.4,800.7c0-9.7,7.9-17.6,17.6-17.6h20h190.2c9.7,0,17.6,7.9,17.6,17.6v51.8c0,9.7-7.9,17.6-17.6,17.6H540
		c-9.7,0-17.6-7.9-17.6-17.6L522.4,800.7L522.4,800.7z"/>
	<path class="st0" d="M342.3,401.1c171.2,282.5,136.9,252.6,214.5,381h94.1L401.8,431.5c-10.4-14.6-2.1-35,15.5-38.3
		c31.7-5.9,63.5-11.8,95.2-17.7c28.2-5.9,45-22.1,59.3-41.2c19.4-32.4,62.4-48.1,98.7-41.1c2.7-2.1-2.7-3,0-5.2v-67.7
		c0-0.3-0.2-0.5-0.5-0.4c-13,1.5-26,2.9-39,4.4c-10.7,1.1-20.3,3.1-28.8,5.7c-70.9,21.6-105.5,90.5-116.5,115.2
		c-31,5.9-61.5,16.9-93,17.6c-4.8,0.1-47-4.9-55.8-0.8c-0.1,0.1-0.3,0.2-0.4,0.2C321.5,371.3,333.2,386,342.3,401.1z"/>
	<path class="st2" d="M312.2,378.5"/>
	<line class="st3" x1="458.1" y1="387.3" x2="458.1" y2="509.8"/>
	<line class="st3" x1="498.2" y1="379.8" x2="498.2" y2="566.3"/>
	<line class="st3" x1="539.5" y1="364.8" x2="539.5" y2="624.4"/>
	<line class="st3" x1="588.6" y1="313.7" x2="588.6" y2="693.9"/>
	<line class="st3" x1="637.8" y1="292.3" x2="637.8" y2="763.4"/>
</g>
</svg>
