<svg width="400" height="400" viewBox="0 0 400 400" fill="none" xmlns="http://www.w3.org/2000/svg">
<g clip-path="url(#clip0_403_442)">
<mask id="mask0_403_442" style="mask-type:alpha" maskUnits="userSpaceOnUse" x="-80" y="-93" width="197" height="221">
<path fill-rule="evenodd" clip-rule="evenodd" d="M116.559 0.0717905C117.765 21.0466 108.435 41.2356 95.6091 57.841C84.4891 72.2377 65.1016 75.1718 50.3476 85.7932C32.1293 98.9085 21.7333 126.401 -0.692495 127.168C-22.9656 127.93 -39.4784 106.374 -53.9339 89.36C-67.2049 73.7401 -76.7373 55.2525 -79.1022 34.8803C-81.3686 15.3556 -73.2016 -2.72307 -66.7783 -21.2877C-59.3525 -42.7499 -57.3194 -68.4587 -38.8124 -81.5657C-19.7083 -95.0954 6.17374 -93.3018 29.2324 -89.2838C51.6865 -85.3711 72.9177 -75.64 88.8704 -59.3167C104.51 -43.3137 115.273 -22.284 116.559 0.0717905Z" fill="#C4C4C4"/>
</mask>
<g mask="url(#mask0_403_442)">
<circle cx="123.304" cy="0.693815" r="6.4173" transform="rotate(38.3302 123.304 0.693815)" fill="#FEDBC7"/>
<circle cx="85.8427" cy="-7.10855" r="6.4173" transform="rotate(38.3302 85.8427 -7.10855)" fill="#FEDBC7"/>
<circle cx="99.2675" cy="3.50473" r="6.4173" transform="rotate(38.3302 99.2675 3.50473)" fill="#FEDBC7"/>
<circle cx="112.691" cy="14.1179" r="6.4173" transform="rotate(38.3302 112.691 14.1179)" fill="#FEDBC7"/>
<circle cx="61.8055" cy="-4.29758" r="6.4173" transform="rotate(38.3302 61.8055 -4.29758)" fill="#FEDBC7"/>
<circle cx="75.2289" cy="6.31558" r="6.4173" transform="rotate(38.3302 75.2289 6.31558)" fill="#FEDBC7"/>
<circle cx="88.6542" cy="16.9288" r="6.4173" transform="rotate(38.3302 88.6542 16.9288)" fill="#FEDBC7"/>
<circle cx="102.078" cy="27.542" r="6.4173" transform="rotate(38.3302 102.078 27.542)" fill="#FEDBC7"/>
<circle cx="37.7684" cy="-1.48673" r="6.4173" transform="rotate(38.3302 37.7684 -1.48673)" fill="#FEDBC7"/>
<circle cx="51.1928" cy="9.12643" r="6.4173" transform="rotate(38.3302 51.1928 9.12643)" fill="#FEDBC7"/>
<circle cx="64.6166" cy="19.7397" r="6.4173" transform="rotate(38.3302 64.6166 19.7397)" fill="#FEDBC7"/>
<circle cx="78.0409" cy="30.3529" r="6.4173" transform="rotate(38.3302 78.0409 30.3529)" fill="#FEDBC7"/>
<circle cx="91.4652" cy="40.9662" r="6.4173" transform="rotate(38.3302 91.4652 40.9662)" fill="#FEDBC7"/>
<circle cx="13.7308" cy="1.32419" r="6.4173" transform="rotate(38.3302 13.7308 1.32419)" fill="#FEDBC7"/>
<circle cx="27.1556" cy="11.9373" r="6.4173" transform="rotate(38.3302 27.1556 11.9373)" fill="#FEDBC7"/>
<circle cx="40.579" cy="22.5506" r="6.4173" transform="rotate(38.3302 40.579 22.5506)" fill="#FEDBC7"/>
<circle cx="54.0028" cy="33.1638" r="6.4173" transform="rotate(38.3302 54.0028 33.1638)" fill="#FEDBC7"/>
<circle cx="67.4276" cy="43.777" r="6.4173" transform="rotate(38.3302 67.4276 43.777)" fill="#FEDBC7"/>
<circle cx="80.8514" cy="54.3903" r="6.4173" transform="rotate(38.3302 80.8514 54.3903)" fill="#FEDBC7"/>
<circle cx="3.11756" cy="14.7483" r="6.4173" transform="rotate(38.3302 3.11756 14.7483)" fill="#FEDBC7"/>
<circle cx="16.5424" cy="25.3615" r="6.4173" transform="rotate(38.3302 16.5424 25.3615)" fill="#FEDBC7"/>
<circle cx="29.9667" cy="35.9748" r="6.4173" transform="rotate(38.3302 29.9667 35.9748)" fill="#FEDBC7"/>
<circle cx="43.3905" cy="46.5879" r="6.4173" transform="rotate(38.3302 43.3905 46.5879)" fill="#FEDBC7"/>
<circle cx="56.8143" cy="57.2012" r="6.4173" transform="rotate(38.3302 56.8143 57.2012)" fill="#FEDBC7"/>
<circle cx="70.2382" cy="67.8144" r="6.4173" transform="rotate(38.3302 70.2382 67.8144)" fill="#FEDBC7"/>
<circle cx="-7.49572" cy="28.1723" r="6.4173" transform="rotate(38.3302 -7.49572 28.1723)" fill="#FEDBC7"/>
<circle cx="5.92859" cy="38.7856" r="6.4173" transform="rotate(38.3302 5.92859 38.7856)" fill="#FEDBC7"/>
<circle cx="19.3529" cy="49.3988" r="6.4173" transform="rotate(38.3302 19.3529 49.3988)" fill="#FEDBC7"/>
<circle cx="32.7767" cy="60.0121" r="6.4173" transform="rotate(38.3302 32.7767 60.0121)" fill="#FEDBC7"/>
<circle cx="46.2015" cy="70.6253" r="6.4173" transform="rotate(38.3302 46.2015 70.6253)" fill="#FEDBC7"/>
<circle cx="59.6254" cy="81.2386" r="6.4173" transform="rotate(38.3302 59.6254 81.2386)" fill="#FEDBC7"/>
<circle cx="-4.68469" cy="52.2097" r="6.4173" transform="rotate(38.3302 -4.68469 52.2097)" fill="#FEDBC7"/>
<circle cx="8.73914" cy="62.823" r="6.4173" transform="rotate(38.3302 8.73914 62.823)" fill="#FEDBC7"/>
<circle cx="22.1635" cy="73.4362" r="6.4173" transform="rotate(38.3302 22.1635 73.4362)" fill="#FEDBC7"/>
<circle cx="35.5878" cy="84.0494" r="6.4173" transform="rotate(38.3302 35.5878 84.0494)" fill="#FEDBC7"/>
<circle cx="49.0121" cy="94.6627" r="6.4173" transform="rotate(38.3302 49.0121 94.6627)" fill="#FEDBC7"/>
<circle cx="-1.87316" cy="76.247" r="6.4173" transform="rotate(38.3302 -1.87316 76.247)" fill="#FEDBC7"/>
<circle cx="11.5507" cy="86.8603" r="6.4173" transform="rotate(38.3302 11.5507 86.8603)" fill="#FEDBC7"/>
<circle cx="24.974" cy="97.4735" r="6.4173" transform="rotate(38.3302 24.974 97.4735)" fill="#FEDBC7"/>
<circle cx="38.3988" cy="108.087" r="6.4173" transform="rotate(38.3302 38.3988 108.087)" fill="#FEDBC7"/>
<circle cx="0.936895" cy="100.284" r="6.4173" transform="rotate(38.3302 0.936895 100.284)" fill="#FEDBC7"/>
<circle cx="14.3612" cy="110.898" r="6.4173" transform="rotate(38.3302 14.3612 110.898)" fill="#FEDBC7"/>
<circle cx="27.7855" cy="121.511" r="6.4173" transform="rotate(38.3302 27.7855 121.511)" fill="#FEDBC7"/>
<circle cx="3.74793" cy="124.322" r="6.4173" transform="rotate(38.3302 3.74793 124.322)" fill="#FEDBC7"/>
<circle cx="17.1727" cy="134.935" r="6.4173" transform="rotate(38.3302 17.1727 134.935)" fill="#FEDBC7"/>
<circle cx="125.305" cy="-1.30612" r="6.4173" transform="rotate(38.3302 125.305 -1.30612)" stroke="#973E0C" stroke-width="0.5" stroke-linecap="round" stroke-linejoin="round" stroke-dasharray="10 10"/>
<circle cx="87.8431" cy="-9.10855" r="6.4173" transform="rotate(38.3302 87.8431 -9.10855)" stroke="#973E0C" stroke-width="0.5" stroke-linecap="round" stroke-linejoin="round" stroke-dasharray="10 10"/>
<circle cx="101.268" cy="1.50467" r="6.4173" transform="rotate(38.3302 101.268 1.50467)" stroke="#973E0C" stroke-width="0.5" stroke-linecap="round" stroke-linejoin="round" stroke-dasharray="10 10"/>
<circle cx="114.692" cy="12.1179" r="6.4173" transform="rotate(38.3302 114.692 12.1179)" stroke="#973E0C" stroke-width="0.5" stroke-linecap="round" stroke-linejoin="round" stroke-dasharray="10 10"/>
<circle cx="63.8065" cy="-6.29764" r="6.4173" transform="rotate(38.3302 63.8065 -6.29764)" stroke="#973E0C" stroke-width="0.5" stroke-linecap="round" stroke-linejoin="round" stroke-dasharray="10 10"/>
<circle cx="77.2299" cy="4.31564" r="6.4173" transform="rotate(38.3302 77.2299 4.31564)" stroke="#973E0C" stroke-width="0.5" stroke-linecap="round" stroke-linejoin="round" stroke-dasharray="10 10"/>
<circle cx="90.6547" cy="14.9288" r="6.4173" transform="rotate(38.3302 90.6547 14.9288)" stroke="#973E0C" stroke-width="0.5" stroke-linecap="round" stroke-linejoin="round" stroke-dasharray="10 10"/>
<circle cx="104.078" cy="25.5421" r="6.4173" transform="rotate(38.3302 104.078 25.5421)" stroke="#973E0C" stroke-width="0.5" stroke-linecap="round" stroke-linejoin="round" stroke-dasharray="10 10"/>
<circle cx="39.7684" cy="-3.48679" r="6.4173" transform="rotate(38.3302 39.7684 -3.48679)" stroke="#973E0C" stroke-width="0.5" stroke-linecap="round" stroke-linejoin="round" stroke-dasharray="10 10"/>
<circle cx="53.1928" cy="7.12649" r="6.4173" transform="rotate(38.3302 53.1928 7.12649)" stroke="#973E0C" stroke-width="0.5" stroke-linecap="round" stroke-linejoin="round" stroke-dasharray="10 10"/>
<circle cx="66.6171" cy="17.7397" r="6.4173" transform="rotate(38.3302 66.6171 17.7397)" stroke="#973E0C" stroke-width="0.5" stroke-linecap="round" stroke-linejoin="round" stroke-dasharray="10 10"/>
<circle cx="80.0414" cy="28.3529" r="6.4173" transform="rotate(38.3302 80.0414 28.3529)" stroke="#973E0C" stroke-width="0.5" stroke-linecap="round" stroke-linejoin="round" stroke-dasharray="10 10"/>
<circle cx="93.4657" cy="38.9662" r="6.4173" transform="rotate(38.3302 93.4657 38.9662)" stroke="#973E0C" stroke-width="0.5" stroke-linecap="round" stroke-linejoin="round" stroke-dasharray="10 10"/>
<circle cx="15.7308" cy="-0.675753" r="6.4173" transform="rotate(38.3302 15.7308 -0.675753)" stroke="#973E0C" stroke-width="0.5" stroke-linecap="round" stroke-linejoin="round" stroke-dasharray="10 10"/>
<circle cx="29.1556" cy="9.93741" r="6.4173" transform="rotate(38.3302 29.1556 9.93741)" stroke="#973E0C" stroke-width="0.5" stroke-linecap="round" stroke-linejoin="round" stroke-dasharray="10 10"/>
<circle cx="42.579" cy="20.5506" r="6.4173" transform="rotate(38.3302 42.579 20.5506)" stroke="#973E0C" stroke-width="0.5" stroke-linecap="round" stroke-linejoin="round" stroke-dasharray="10 10"/>
<circle cx="56.0028" cy="31.1638" r="6.4173" transform="rotate(38.3302 56.0028 31.1638)" stroke="#973E0C" stroke-width="0.5" stroke-linecap="round" stroke-linejoin="round" stroke-dasharray="10 10"/>
<circle cx="69.4276" cy="41.777" r="6.4173" transform="rotate(38.3302 69.4276 41.777)" stroke="#973E0C" stroke-width="0.5" stroke-linecap="round" stroke-linejoin="round" stroke-dasharray="10 10"/>
<circle cx="82.8514" cy="52.3903" r="6.4173" transform="rotate(38.3302 82.8514 52.3903)" stroke="#973E0C" stroke-width="0.5" stroke-linecap="round" stroke-linejoin="round" stroke-dasharray="10 10"/>
<circle cx="-8.30627" cy="2.1351" r="6.4173" transform="rotate(38.3302 -8.30627 2.1351)" stroke="#973E0C" stroke-width="0.5" stroke-linecap="round" stroke-linejoin="round" stroke-dasharray="10 10"/>
<circle cx="5.11756" cy="12.7483" r="6.4173" transform="rotate(38.3302 5.11756 12.7483)" stroke="#973E0C" stroke-width="0.5" stroke-linecap="round" stroke-linejoin="round" stroke-dasharray="10 10"/>
<circle cx="18.5424" cy="23.3615" r="6.4173" transform="rotate(38.3302 18.5424 23.3615)" stroke="#973E0C" stroke-width="0.5" stroke-linecap="round" stroke-linejoin="round" stroke-dasharray="10 10"/>
<circle cx="31.9667" cy="33.9748" r="6.4173" transform="rotate(38.3302 31.9667 33.9748)" stroke="#973E0C" stroke-width="0.5" stroke-linecap="round" stroke-linejoin="round" stroke-dasharray="10 10"/>
<circle cx="45.3905" cy="44.5879" r="6.4173" transform="rotate(38.3302 45.3905 44.5879)" stroke="#973E0C" stroke-width="0.5" stroke-linecap="round" stroke-linejoin="round" stroke-dasharray="10 10"/>
<circle cx="58.8148" cy="55.2011" r="6.4173" transform="rotate(38.3302 58.8148 55.2011)" stroke="#973E0C" stroke-width="0.5" stroke-linecap="round" stroke-linejoin="round" stroke-dasharray="10 10"/>
<circle cx="72.2382" cy="65.8145" r="6.4173" transform="rotate(38.3302 72.2382 65.8145)" stroke="#973E0C" stroke-width="0.5" stroke-linecap="round" stroke-linejoin="round" stroke-dasharray="10 10"/>
<circle cx="-5.49572" cy="26.1724" r="6.4173" transform="rotate(38.3302 -5.49572 26.1724)" stroke="#973E0C" stroke-width="0.5" stroke-linecap="round" stroke-linejoin="round" stroke-dasharray="10 10"/>
<circle cx="7.92859" cy="36.7856" r="6.4173" transform="rotate(38.3302 7.92859 36.7856)" stroke="#973E0C" stroke-width="0.5" stroke-linecap="round" stroke-linejoin="round" stroke-dasharray="10 10"/>
<circle cx="21.3529" cy="47.3989" r="6.4173" transform="rotate(38.3302 21.3529 47.3989)" stroke="#973E0C" stroke-width="0.5" stroke-linecap="round" stroke-linejoin="round" stroke-dasharray="10 10"/>
<circle cx="34.7767" cy="58.0121" r="6.4173" transform="rotate(38.3302 34.7767 58.0121)" stroke="#973E0C" stroke-width="0.5" stroke-linecap="round" stroke-linejoin="round" stroke-dasharray="10 10"/>
<circle cx="48.2015" cy="68.6253" r="6.4173" transform="rotate(38.3302 48.2015 68.6253)" stroke="#973E0C" stroke-width="0.5" stroke-linecap="round" stroke-linejoin="round" stroke-dasharray="10 10"/>
<circle cx="61.6254" cy="79.2386" r="6.4173" transform="rotate(38.3302 61.6254 79.2386)" stroke="#973E0C" stroke-width="0.5" stroke-linecap="round" stroke-linejoin="round" stroke-dasharray="10 10"/>
<circle cx="-2.68469" cy="50.2097" r="6.4173" transform="rotate(38.3302 -2.68469 50.2097)" stroke="#973E0C" stroke-width="0.5" stroke-linecap="round" stroke-linejoin="round" stroke-dasharray="10 10"/>
<circle cx="10.7391" cy="60.823" r="6.4173" transform="rotate(38.3302 10.7391 60.823)" stroke="#973E0C" stroke-width="0.5" stroke-linecap="round" stroke-linejoin="round" stroke-dasharray="10 10"/>
<circle cx="24.1635" cy="71.4362" r="6.4173" transform="rotate(38.3302 24.1635 71.4362)" stroke="#973E0C" stroke-width="0.5" stroke-linecap="round" stroke-linejoin="round" stroke-dasharray="10 10"/>
<circle cx="37.5878" cy="82.0494" r="6.4173" transform="rotate(38.3302 37.5878 82.0494)" stroke="#973E0C" stroke-width="0.5" stroke-linecap="round" stroke-linejoin="round" stroke-dasharray="10 10"/>
<circle cx="51.0121" cy="92.6627" r="6.4173" transform="rotate(38.3302 51.0121 92.6627)" stroke="#973E0C" stroke-width="0.5" stroke-linecap="round" stroke-linejoin="round" stroke-dasharray="10 10"/>
<circle cx="0.127325" cy="74.2467" r="6.4173" transform="rotate(38.3302 0.127325 74.2467)" stroke="#973E0C" stroke-width="0.5" stroke-linecap="round" stroke-linejoin="round" stroke-dasharray="10 10"/>
<circle cx="13.5512" cy="84.8599" r="6.4173" transform="rotate(38.3302 13.5512 84.8599)" stroke="#973E0C" stroke-width="0.5" stroke-linecap="round" stroke-linejoin="round" stroke-dasharray="10 10"/>
<circle cx="26.9745" cy="95.4731" r="6.4173" transform="rotate(38.3302 26.9745 95.4731)" stroke="#973E0C" stroke-width="0.5" stroke-linecap="round" stroke-linejoin="round" stroke-dasharray="10 10"/>
<circle cx="40.3993" cy="106.086" r="6.4173" transform="rotate(38.3302 40.3993 106.086)" stroke="#973E0C" stroke-width="0.5" stroke-linecap="round" stroke-linejoin="round" stroke-dasharray="10 10"/>
<circle cx="2.93738" cy="98.284" r="6.4173" transform="rotate(38.3302 2.93738 98.284)" stroke="#973E0C" stroke-width="0.5" stroke-linecap="round" stroke-linejoin="round" stroke-dasharray="10 10"/>
<circle cx="16.3617" cy="108.897" r="6.4173" transform="rotate(38.3302 16.3617 108.897)" stroke="#973E0C" stroke-width="0.5" stroke-linecap="round" stroke-linejoin="round" stroke-dasharray="10 10"/>
<circle cx="29.786" cy="119.511" r="6.4173" transform="rotate(38.3302 29.786 119.511)" stroke="#973E0C" stroke-width="0.5" stroke-linecap="round" stroke-linejoin="round" stroke-dasharray="10 10"/>
<circle cx="-7.67541" cy="111.708" r="6.4173" transform="rotate(38.3302 -7.67541 111.708)" stroke="#973E0C" stroke-width="0.5" stroke-linecap="round" stroke-linejoin="round" stroke-dasharray="10 10"/>
<circle cx="5.74842" cy="122.321" r="6.4173" transform="rotate(38.3302 5.74842 122.321)" stroke="#973E0C" stroke-width="0.5" stroke-linecap="round" stroke-linejoin="round" stroke-dasharray="10 10"/>
<circle cx="19.1732" cy="132.935" r="6.4173" transform="rotate(38.3302 19.1732 132.935)" stroke="#973E0C" stroke-width="0.5" stroke-linecap="round" stroke-linejoin="round" stroke-dasharray="10 10"/>
<circle cx="-4.86437" cy="135.745" r="6.4173" transform="rotate(38.3302 -4.86437 135.745)" stroke="#973E0C" stroke-width="0.5" stroke-linecap="round" stroke-linejoin="round" stroke-dasharray="10 10"/>
</g>
<path d="M128.5 37.5C128.5 37.5 186 96.5 229 78.5C272 60.5 262.946 46.9137 306 37.5C389.726 19.1934 366.5 130.5 366.5 130.5" stroke="#CEA58E" stroke-opacity="0.5" stroke-width="5" stroke-linecap="round" stroke-linejoin="round" stroke-dasharray="15 15"/>
<path d="M128.5 35.5C128.5 35.5 186 94.5 229 76.5C272 58.5 262.946 44.9137 306 35.5C389.726 17.1934 366.5 128.5 366.5 128.5" stroke="#FFDCC9" stroke-opacity="0.5" stroke-width="5" stroke-linecap="round" stroke-linejoin="round" stroke-dasharray="15 15"/>
<path d="M369.145 138.942C373.316 137.056 377.743 141.023 376.322 145.376C375.61 147.558 376.393 149.951 378.258 151.289C381.978 153.959 380.756 159.776 376.276 160.722C374.029 161.196 372.349 163.071 372.123 165.356C371.671 169.912 366.021 171.762 362.962 168.355C361.428 166.647 358.965 166.129 356.873 167.075C352.701 168.962 348.275 164.994 349.695 160.641C350.408 158.459 349.624 156.066 347.759 154.728C344.039 152.058 345.262 146.241 349.742 145.295C351.988 144.821 353.668 142.946 353.895 140.662C354.347 136.105 359.996 134.256 363.055 137.662C364.589 139.371 367.053 139.889 369.145 138.942Z" fill="#FFDCC8"/>
<path d="M370.248 137.17C374.221 135.373 378.438 139.152 377.085 143.298C376.338 145.584 377.159 148.09 379.113 149.492C382.656 152.035 381.491 157.576 377.224 158.477C374.871 158.974 373.111 160.938 372.874 163.331C372.443 167.671 367.062 169.433 364.148 166.188C362.542 164.399 359.961 163.856 357.77 164.847C353.796 166.644 349.58 162.865 350.933 158.719C351.679 156.433 350.859 153.927 348.905 152.525C345.362 149.982 346.526 144.441 350.793 143.54C353.146 143.043 354.906 141.079 355.144 138.686C355.574 134.346 360.955 132.585 363.869 135.83C365.476 137.619 368.057 138.161 370.248 137.17Z" stroke="#EC8B55" stroke-width="0.5"/>
<path fill-rule="evenodd" clip-rule="evenodd" d="M71 435L75.5 436.5C81.816 445.455 82.622 413.794 89.08 404.555C95.26 395.379 95.8223 358.928 99.8583 339.857C104.173 320.723 112.239 318.905 121.098 322.098C130.236 325.228 140.168 333.368 149.306 336.498C158.166 339.691 166.232 337.873 175.37 341.003C184.23 344.195 194.44 352.273 204.908 362.887C215.653 373.438 226.657 386.526 236.867 394.603C247.077 402.681 255.937 405.873 260.787 389.213C265.359 372.615 265.921 336.165 269.421 314.62C273.2 293.012 280.194 286.247 291.197 299.334C302.479 312.359 317.771 345.237 326.909 348.367C335.769 351.56 338.475 325.004 345.469 318.239C352.185 311.537 363.467 324.562 372.863 330.228C382.537 335.832 390.325 334.077 394.497 333.137L404.144 330.228L444 414.394L404.144 425C399.972 425.94 390.566 434.074 382.5 435.892C374.712 437.647 369.288 444.745 361.5 446.5C353.434 448.318 353.257 450.245 345.469 452C337.403 453.818 325.066 488.182 317 490C309.212 491.755 296.783 401.858 288.717 403.676C280.929 405.431 272.863 407.248 265.075 409.003C257.009 410.821 249.221 412.576 241.155 414.394C233.089 416.211 225.301 417.966 217.235 419.784C209.447 421.539 201.381 423.357 193.593 425.111C185.527 426.929 177.461 428.747 169.673 430.502C161.607 432.319 153.819 434.074 145.753 435.892C137.966 437.647 129.899 439.465 121.833 441.282C114.046 443.037 105.98 444.855 98.1917 446.61C90.1257 448.427 82.3378 450.182 78.1657 451.122L74.2718 452L71 435Z" fill="#FFF1E9"/>
<path fill-rule="evenodd" clip-rule="evenodd" d="M65.4999 440.5L72.6643 416.5C78.9803 425.455 87.605 408.713 94.0631 399.474C100.243 390.297 100.805 353.847 104.841 334.775C109.156 315.641 117.222 313.824 126.081 317.016C135.219 320.146 145.151 328.286 154.289 331.416C163.149 334.609 171.215 332.791 180.353 335.921C189.213 339.114 199.423 347.191 209.891 357.805C220.637 368.357 231.64 381.444 241.85 389.522C252.06 397.599 260.92 400.792 265.77 384.132C270.342 367.534 270.904 331.083 274.405 309.538C278.183 287.93 285.177 281.165 296.181 294.253C307.462 307.278 322.754 340.156 331.892 343.286C340.752 346.478 343.458 319.923 350.452 313.158C357.168 306.455 368.45 319.48 377.846 325.147C387.52 330.75 395.308 328.995 399.48 328.055L403.374 327.178L413.021 371.706L409.127 372.583C404.955 373.523 434.566 451.182 426.5 453C418.712 454.755 387.52 467.465 379.732 469.22C371.666 471.037 363.6 472.855 355.812 474.61C347.746 476.427 339.958 478.182 331.892 480C324.104 481.755 304.247 451.182 296.181 453C288.393 454.755 277.846 402.167 270.058 403.922C261.992 405.739 254.204 407.494 246.138 409.312C238.072 411.13 230.284 412.885 222.218 414.702C214.43 416.457 206.364 418.275 198.576 420.03C190.51 421.847 182.444 423.665 174.656 425.42C166.59 427.238 158.802 428.993 150.736 430.81C142.949 432.565 134.883 434.383 126.817 436.201C119.029 437.955 110.963 439.773 103.175 441.528C95.1087 443.346 87.3208 445.101 83.1488 446.041L79.2548 446.918L65.4999 440.5Z" stroke="#FFC7A8"/>
<path fill-rule="evenodd" clip-rule="evenodd" d="M74.5006 444.5L62.5004 432.135C68.8164 441.09 93.5843 404.648 100.042 395.409C106.222 386.232 106.785 349.782 110.821 330.71C115.135 311.576 123.201 309.758 132.061 312.951C141.199 316.081 151.131 324.221 160.268 327.351C169.128 330.544 177.194 328.726 186.332 331.856C195.192 335.049 205.402 343.126 215.87 353.74C226.616 364.291 237.62 377.379 247.83 385.457C258.039 393.534 266.899 396.727 271.749 380.066C276.321 363.469 276.884 327.018 280.384 305.473C284.162 283.865 291.156 277.1 302.16 290.187C313.442 303.213 328.733 336.091 337.871 339.22C346.731 342.413 349.437 315.858 356.431 309.092C363.147 302.39 374.429 315.415 383.825 321.081C393.499 326.685 401.287 324.93 405.459 323.99L409.353 323.112L419.001 367.641L415.107 368.518C410.935 369.458 427.067 424.927 419.001 426.745C411.213 428.5 413.247 452.745 405.459 454.5C397.393 456.318 368.288 490.745 360.5 492.5C352.434 494.318 333.066 432.182 325 434C317.212 435.755 307.321 521.971 299.5 465.5C297.321 521.971 285.288 452.745 277.5 454.5C269.434 456.318 260.183 403.429 252.117 405.247C244.051 407.065 236.263 408.819 228.197 410.637C220.41 412.392 212.344 414.21 204.556 415.965C196.49 417.782 188.424 419.6 180.636 421.355C172.57 423.173 164.782 424.927 156.716 426.745C148.928 428.5 140.862 430.318 132.796 432.135C125.008 433.89 116.942 435.708 109.154 437.463C101.088 439.281 93.3001 441.036 89.1281 441.976L85.2341 442.853L74.5006 444.5Z" stroke="#FF975C"/>
<rect x="26" y="252" width="40" height="40" rx="20" fill="#F9D7C4"/>
<rect x="39.3306" y="241.391" width="35.8387" height="35.8387" rx="17.9194" transform="rotate(16.1046 39.3306 241.391)" stroke="#FFA06C" stroke-width="2" stroke-linecap="round" stroke-linejoin="round" stroke-dasharray="12 12"/>
<rect x="354.761" y="208.296" width="84.8381" height="21.2095" rx="10.6048" transform="rotate(7.08452 354.761 208.296)" fill="#FFAC7D" fill-opacity="0.5"/>
<rect x="379.424" y="264.366" width="84.8381" height="21.2095" rx="10.6048" transform="rotate(-82.9155 379.424 264.366)" fill="#FFAC7D" fill-opacity="0.5"/>
<rect x="363.165" y="208.165" width="83.8381" height="20.2095" rx="10.1048" transform="rotate(7.08452 363.165 208.165)" stroke="#D56223"/>
<rect x="387.951" y="263.242" width="83.8381" height="20.2095" rx="10.1048" transform="rotate(-82.9155 387.951 263.242)" stroke="#D56223"/>
</g>
<defs>
<clipPath id="clip0_403_442">
<rect width="400" height="400" fill="white"/>
</clipPath>
</defs>
</svg>
