<svg width="400" height="400" viewBox="0 0 400 400" fill="none" xmlns="http://www.w3.org/2000/svg">
<g clip-path="url(#clip0_403_441)">
<path d="M312.007 243.472C278.167 273.645 259.654 312.027 260.861 343.028C261.687 364.251 286.976 367.026 303.096 353.198C319.661 338.989 317.83 310.138 327.864 290.758C330.586 285.5 334.327 280.719 337.888 276.489C345.814 267.075 355.242 260.539 364.899 258.264C384.393 253.672 409.579 258.62 424.281 245.021C438.607 231.769 438.929 208.389 419.792 204.565C388.787 198.371 346.977 212.291 312.007 243.472Z" fill="#D0EAFF"/>
<path d="M266.361 352.008C265.162 321.202 283.573 282.954 317.34 252.845C352.237 221.729 393.893 207.902 424.694 214.055C429.377 214.991 432.84 217.115 435.196 219.955C437.556 222.798 438.831 226.388 439.086 230.29C439.596 238.103 436.005 247.119 428.941 253.654C421.719 260.335 411.891 262.487 401.338 263.523C397.965 263.853 394.54 264.069 391.11 264.284C389.171 264.406 387.231 264.528 385.297 264.671C379.958 265.066 374.697 265.62 369.785 266.777C359.993 269.084 350.479 275.697 342.506 285.167C338.94 289.403 335.169 294.219 332.42 299.528C328.453 307.191 326.324 316.331 324.212 325.4C323.634 327.881 323.057 330.357 322.444 332.795C319.578 344.204 315.923 354.826 307.771 361.818C299.813 368.644 289.612 371.352 281.337 369.766C277.206 368.974 273.567 367.115 270.913 364.179C268.261 361.248 266.563 357.211 266.361 352.008Z" stroke="#7AC2FF"/>
<rect x="11.5718" y="21.9943" width="40" height="10" rx="5" transform="rotate(10.5078 11.5718 21.9943)" fill="#AFD9FE"/>
<rect x="21.6006" y="49.0774" width="40" height="10" rx="5" transform="rotate(-79.4922 21.6006 49.0774)" fill="#AFD9FE"/>
<rect x="310.407" y="84.7796" width="60" height="15" rx="7.5" transform="rotate(-32.9691 310.407 84.7796)" fill="#175E9B" fill-opacity="0.31"/>
<rect x="349.276" y="103.908" width="60" height="15" rx="7.5" transform="rotate(-122.969 349.276 103.908)" fill="#175E9B" fill-opacity="0.31"/>
<rect x="307.099" y="81.927" width="59" height="14" rx="7" transform="rotate(-32.9691 307.099 81.927)" stroke="#175E9B" stroke-opacity="0.7"/>
<rect x="345.423" y="100.217" width="59" height="14" rx="7" transform="rotate(-122.969 345.423 100.217)" stroke="#175E9B" stroke-opacity="0.7"/>
<rect x="141.789" y="322.956" width="32.9254" height="8.23135" rx="4.11567" transform="rotate(22.1492 141.789 322.956)" fill="#99BFE0" fill-opacity="0.31"/>
<rect x="145.375" y="346.456" width="32.9254" height="8.23135" rx="4.11567" transform="rotate(-67.8508 145.375 346.456)" fill="#99BFE0" fill-opacity="0.31"/>
<rect x="142.158" y="320.866" width="31.9254" height="7.23135" rx="3.61567" transform="rotate(22.1492 142.158 320.866)" stroke="#31638E" stroke-opacity="0.7"/>
<rect x="146.122" y="343.44" width="31.9254" height="7.23135" rx="3.61567" transform="rotate(-67.8508 146.122 343.44)" stroke="#31638E" stroke-opacity="0.7"/>
<path d="M27.6177 255.241C36.2821 255.295 43.9264 260.921 46.5528 269.178L55.668 297.835C58.2943 306.092 55.3052 315.101 48.264 320.151L23.8263 337.675C16.7851 342.725 7.29337 342.666 0.31533 337.529L-23.9032 319.703C-30.8813 314.567 -33.7584 305.522 -31.0299 297.298L-21.56 268.756C-18.8315 260.532 -11.1179 255.001 -2.45357 255.055L27.6177 255.241Z" fill="#519FDE" fill-opacity="0.5"/>
<path fill-rule="evenodd" clip-rule="evenodd" d="M-2.40646 255.693C-1.73237 253.661 -0.754008 251.794 0.467783 250.134C0.765041 249.73 1.07671 249.339 1.40191 248.961C1.7289 248.58 2.06957 248.212 2.42304 247.859C2.3664 247.81 2.30754 247.763 2.24649 247.718C0.912263 246.736 -0.965693 247.021 -1.94804 248.355C-3.35398 250.265 -4.47919 252.413 -5.25383 254.748L-7.12938 260.401C-7.65113 261.973 -6.79929 263.671 -5.22673 264.193L-2.40646 255.693ZM-7.08838 269.804C-8.66094 269.282 -10.3587 270.134 -10.8805 271.706L-12.756 277.359C-13.5307 279.694 -13.9128 282.089 -13.9271 284.46C-13.9372 286.117 -12.6022 287.468 -10.9454 287.478C-10.8696 287.479 -10.7944 287.476 -10.7199 287.471C-10.7918 286.976 -10.8453 286.478 -10.8799 285.977C-10.9144 285.48 -10.9302 284.98 -10.9272 284.478C-10.9147 282.418 -10.5827 280.336 -9.90865 278.304L-7.08838 269.804ZM-8.74018 293.695C-8.80387 293.734 -8.86659 293.776 -8.92821 293.82C-10.2748 294.785 -10.5838 296.659 -9.61845 298.006C-8.23683 299.933 -6.54146 301.667 -4.56038 303.125L0.236205 306.656C1.57057 307.638 3.44848 307.353 4.43065 306.018L-2.78201 300.709C-4.50597 299.44 -5.97962 297.933 -7.18027 296.258C-7.47239 295.851 -7.74835 295.433 -8.00782 295.007C-8.26872 294.578 -8.51295 294.141 -8.74018 293.695ZM9.19169 309.523C8.20952 310.857 8.49503 312.735 9.82939 313.717L14.626 317.248C16.6071 318.706 18.7665 319.809 21.0173 320.556C22.5899 321.077 24.2876 320.225 24.8091 318.653C24.833 318.581 24.854 318.508 24.8721 318.436C24.3793 318.351 23.8889 318.248 23.4021 318.127C22.918 318.005 22.4375 317.866 21.9616 317.708C20.0057 317.06 18.1283 316.101 16.4043 314.832L9.19169 309.523ZM31.4034 318.476C31.4207 318.549 31.4408 318.622 31.4638 318.694C31.9658 320.273 33.6528 321.146 35.2317 320.644C37.4916 319.925 39.6646 318.849 41.6636 317.415L46.5036 313.944C47.85 312.979 48.1588 311.105 47.1932 309.758L39.9153 314.977C38.1757 316.225 36.2866 317.16 34.3228 317.785C33.845 317.937 33.3628 318.07 32.8772 318.185C32.389 318.301 31.8974 318.398 31.4034 318.476ZM51.9974 306.313C52.9629 307.66 54.8371 307.968 56.1836 307.003L61.0236 303.532C63.0226 302.099 64.7393 300.386 66.1447 298.476C67.1267 297.141 66.841 295.263 65.5065 294.281C65.4454 294.236 65.3832 294.194 65.32 294.155C65.0873 294.597 64.8376 295.032 64.5714 295.457C64.3067 295.88 64.0256 296.294 63.7284 296.698C62.5071 298.357 61.0149 299.847 59.2753 301.094L51.9974 306.313ZM67.3768 287.955C67.4512 287.961 67.5263 287.965 67.6021 287.965C69.2589 287.976 70.6106 286.641 70.6211 284.984C70.6361 282.613 70.2837 280.214 69.5381 277.87L67.7328 272.194C67.2306 270.615 65.5435 269.742 63.9646 270.244L66.6792 278.779C67.3281 280.819 67.6342 282.905 67.6211 284.965C67.618 285.467 67.5959 285.966 67.5553 286.464C67.5144 286.964 67.4548 287.461 67.3768 287.955ZM62.1727 264.611C63.7516 264.109 64.6244 262.421 64.1222 260.843L62.3169 255.167C61.5713 252.823 60.4728 250.661 59.0906 248.734C58.1249 247.388 56.2506 247.079 54.9043 248.045C54.8427 248.089 54.7833 248.135 54.726 248.183C55.0751 248.541 55.4112 248.913 55.7334 249.297C56.0539 249.68 56.3607 250.075 56.6529 250.483C57.8541 252.157 58.8092 254.036 59.458 256.076L62.1727 264.611ZM49.4659 244.311C49.4946 244.242 49.5209 244.172 49.5448 244.1C50.0668 242.527 49.2152 240.83 47.6427 240.308C45.3922 239.561 43.0014 239.154 40.5416 239.139L34.5858 239.102C32.929 239.092 31.5775 240.427 31.5673 242.083L40.523 242.139C42.6635 242.152 44.7418 242.506 46.6976 243.155C47.1734 243.313 47.642 243.488 48.1025 243.681C48.5655 243.874 49.0202 244.084 49.4659 244.311ZM25.6557 242.047C25.6659 240.39 24.3312 239.038 22.6743 239.028L16.7186 238.991C14.2588 238.976 11.8631 239.353 9.60349 240.072C8.02465 240.574 7.15205 242.261 7.65448 243.84C7.67747 243.912 7.70295 243.983 7.73078 244.052C8.17924 243.831 8.63659 243.626 9.10194 243.439C9.56474 243.252 10.0355 243.082 10.5132 242.93C12.4769 242.306 14.5594 241.978 16.7 241.991L25.6557 242.047Z" fill="#53B0FF" fill-opacity="0.5"/>
<path d="M149.5 149L149.192 148.049L149.5 149ZM262.5 188L262.136 187.069L262.5 188ZM81.5 231.5C82.4265 231.876 82.4265 231.876 82.4265 231.876C82.4265 231.876 82.4265 231.876 82.4265 231.876C82.4265 231.876 82.4266 231.876 82.4266 231.876C82.4267 231.876 82.4269 231.875 82.4272 231.875C82.4277 231.873 82.4286 231.871 82.4298 231.868C82.4321 231.863 82.4357 231.854 82.4405 231.842C82.4502 231.818 82.465 231.782 82.4846 231.735C82.524 231.639 82.5832 231.497 82.662 231.309C82.8196 230.934 83.0554 230.379 83.3667 229.664C83.9895 228.234 84.9147 226.163 86.1216 223.605L84.3128 222.752C83.0965 225.329 82.1631 227.419 81.5331 228.866C81.218 229.589 80.9789 230.152 80.8181 230.535C80.7377 230.726 80.6769 230.872 80.636 230.971C80.6156 231.021 80.6001 231.059 80.5897 231.084C80.5845 231.097 80.5805 231.106 80.5778 231.113C80.5765 231.116 80.5754 231.119 80.5747 231.121C80.5743 231.122 80.5741 231.122 80.5739 231.123C80.5738 231.123 80.5737 231.123 80.5736 231.123C80.5736 231.123 80.5736 231.124 80.5735 231.124C80.5735 231.124 80.5735 231.124 81.5 231.5ZM94.4397 207.422C97.1793 202.506 100.342 197.201 103.88 191.854L102.212 190.75C98.641 196.147 95.4525 201.496 92.6927 206.448L94.4397 207.422ZM114.612 177.202C118.481 172.47 122.628 167.982 127.015 164.007L125.672 162.525C121.197 166.58 116.982 171.144 113.064 175.936L114.612 177.202ZM141.598 153.485C144.279 152.047 147.018 150.855 149.808 149.951L149.192 148.049C146.277 148.993 143.428 150.234 140.653 151.722L141.598 153.485ZM149.808 149.951C153.273 148.829 156.609 148.238 159.838 148.087L159.744 146.089C156.333 146.248 152.821 146.873 149.192 148.049L149.808 149.951ZM179.619 152.446C185.624 155.272 191.394 159.211 197.112 163.538L198.319 161.943C192.563 157.588 186.663 153.55 180.47 150.636L179.619 152.446ZM213.646 176.432C219.453 180.811 225.376 184.826 231.573 187.632L232.398 185.81C226.403 183.095 220.618 179.185 214.85 174.835L213.646 176.432ZM252.434 191.494C255.811 191.159 259.282 190.333 262.864 188.931L262.136 187.069C258.716 188.407 255.423 189.187 252.236 189.504L252.434 191.494ZM262.864 188.931C265.55 187.881 268.152 186.552 270.668 184.995L269.616 183.294C267.191 184.795 264.697 186.067 262.136 187.069L262.864 188.931ZM284.07 173.964C288.016 169.888 291.682 165.347 295.053 160.607L293.423 159.447C290.098 164.123 286.495 168.584 282.633 172.573L284.07 173.964ZM304.281 146.035C307.281 140.751 309.925 135.534 312.192 130.715L310.383 129.864C308.133 134.645 305.513 139.816 302.542 145.047L304.281 146.035ZM318.99 114.898C319.962 112.405 320.701 110.387 321.198 108.99C321.446 108.292 321.633 107.749 321.759 107.38C321.822 107.195 321.87 107.054 321.902 106.958C321.917 106.911 321.93 106.874 321.938 106.85C321.942 106.837 321.945 106.828 321.947 106.822C321.948 106.818 321.949 106.816 321.949 106.814C321.95 106.813 321.95 106.813 321.95 106.812C321.95 106.812 321.95 106.812 321.95 106.812C321.95 106.811 321.95 106.811 321.95 106.811C321.95 106.811 321.95 106.811 321 106.5C320.05 106.189 320.05 106.189 320.05 106.189C320.05 106.189 320.05 106.189 320.05 106.189C320.05 106.189 320.05 106.189 320.05 106.189C320.049 106.189 320.049 106.19 320.049 106.19C320.049 106.192 320.048 106.194 320.047 106.196C320.045 106.202 320.043 106.21 320.039 106.222C320.031 106.244 320.02 106.279 320.005 106.325C319.974 106.417 319.928 106.554 319.866 106.735C319.743 107.096 319.558 107.631 319.313 108.32C318.823 109.7 318.091 111.699 317.127 114.171L318.99 114.898Z" fill="#85C7FF"/>
</g>
<defs>
<clipPath id="clip0_403_441">
<rect width="400" height="400" fill="white"/>
</clipPath>
</defs>
</svg>
