<svg width="400" height="400" viewBox="0 0 400 400" fill="none" xmlns="http://www.w3.org/2000/svg">
<g clip-path="url(#clip0_403_465)">
<path fill-rule="evenodd" clip-rule="evenodd" d="M307.564 29.6477C307.759 29.1308 308.335 28.8696 308.852 29.0642L308.5 30C308.852 29.0642 308.852 29.0641 308.852 29.0642L308.879 29.0742L308.955 29.103C309.021 29.1284 309.121 29.1663 309.251 29.2166C309.513 29.3171 309.9 29.467 310.404 29.6655C311.414 30.0624 312.894 30.6534 314.783 31.4317C318.56 32.9881 323.969 35.2934 330.506 38.2915C331.008 38.5217 331.228 39.1153 330.998 39.6173C330.768 40.1193 330.174 40.3396 329.672 40.1094C323.162 37.1235 317.777 34.8286 314.021 33.2808C312.143 32.507 310.672 31.9199 309.672 31.5267C309.173 31.3302 308.79 31.182 308.533 31.0833C308.405 31.0339 308.308 30.9968 308.243 30.9722L308.171 30.9447L308.149 30.9363L308.148 30.936C307.631 30.7413 307.369 30.1645 307.564 29.6477ZM371.004 60.3927C371.283 59.9164 371.896 59.7571 372.372 60.0368C385.363 67.6664 398.884 76.5601 411.375 86.5471C411.806 86.892 411.877 87.5213 411.532 87.9526C411.187 88.384 410.558 88.4541 410.126 88.1092C397.728 78.197 384.292 69.3564 371.36 61.7614C370.883 61.4817 370.724 60.8689 371.004 60.3927ZM443.165 119.883C443.61 119.557 444.236 119.653 444.562 120.099C449.369 126.66 453.408 133.507 456.42 140.61C459.161 147.072 462.426 153.253 465.894 159.246C466.171 159.724 466.007 160.336 465.529 160.613C465.051 160.889 464.44 160.726 464.163 160.248C460.67 154.212 457.363 147.954 454.579 141.39C451.637 134.453 447.68 127.74 442.949 121.281C442.623 120.835 442.719 120.209 443.165 119.883ZM486.117 195.01C486.608 194.758 487.211 194.953 487.463 195.444C494.275 208.737 498.327 222.093 494.901 236.611C494.774 237.149 494.236 237.481 493.698 237.355C493.161 237.228 492.828 236.689 492.955 236.152C496.222 222.307 492.404 209.472 485.683 196.356C485.431 195.865 485.625 195.262 486.117 195.01ZM222.381 266.42C222.716 266.859 222.632 267.486 222.193 267.822C215.291 273.092 210.121 280.61 208.484 289.678C207.996 292.378 208.231 294.616 209.016 296.505C209.802 298.397 211.171 300.015 213.071 301.423C216.909 304.266 222.787 306.161 229.897 307.662C230.437 307.776 230.783 308.306 230.669 308.847C230.555 309.387 230.024 309.733 229.484 309.618C222.34 308.111 216.091 306.149 211.881 303.03C209.758 301.458 208.123 299.569 207.169 297.272C206.213 294.971 205.972 292.335 206.516 289.322C208.253 279.702 213.733 271.765 220.98 266.232C221.419 265.897 222.046 265.981 222.381 266.42ZM270.231 268.485C270.644 268.118 271.276 268.156 271.642 268.569C276.86 274.452 280.619 282.787 281.992 293.877C282.842 300.743 283.516 307.912 283.616 315.007C283.623 315.559 283.182 316.013 282.63 316.021C282.077 316.029 281.624 315.587 281.616 315.035C281.518 308.042 280.853 300.953 280.007 294.123C278.674 283.355 275.047 275.422 270.146 269.896C269.78 269.483 269.818 268.851 270.231 268.485ZM472.266 270.598C472.651 270.994 472.641 271.627 472.244 272.012C467.654 276.461 462.302 281.047 456.108 285.794C449.701 290.703 443.238 295.626 436.779 300.499C436.338 300.831 435.711 300.743 435.378 300.302C435.046 299.862 435.133 299.235 435.574 298.902C442.029 294.033 448.488 289.113 454.892 284.206C461.034 279.499 466.326 274.963 470.852 270.576C471.249 270.191 471.882 270.201 472.266 270.598ZM292.272 324.448C292.601 324.005 293.228 323.912 293.671 324.242C297.894 327.38 301.181 331.326 303.052 336.357C304.922 341.383 305.35 347.416 303.983 354.685C302.807 360.932 303.145 365.234 304.561 367.985C305.928 370.641 308.402 372.035 312.076 372.245C312.628 372.277 313.049 372.75 313.017 373.301C312.986 373.852 312.513 374.274 311.962 374.242C307.781 374.003 304.556 372.345 302.783 368.901C301.059 365.553 300.814 360.708 302.017 354.315C303.333 347.32 302.894 341.668 301.178 337.054C299.463 332.445 296.446 328.796 292.478 325.847C292.035 325.518 291.943 324.891 292.272 324.448ZM397.848 327.855C398.167 328.306 398.06 328.93 397.609 329.249C383.171 339.469 369.397 348.692 357.036 356.086C356.562 356.37 355.948 356.216 355.665 355.742C355.381 355.268 355.535 354.654 356.009 354.37C368.309 347.012 382.037 337.821 396.454 327.616C396.904 327.297 397.529 327.404 397.848 327.855ZM91.5757 336.118C91.7868 335.607 92.3716 335.365 92.882 335.576C99.6584 338.379 106.198 340.995 112.51 343.431C113.025 343.63 113.282 344.209 113.083 344.725C112.884 345.24 112.305 345.496 111.79 345.297C105.463 342.855 98.9078 340.233 92.1176 337.424C91.6072 337.213 91.3646 336.628 91.5757 336.118ZM272.618 354.211C273.05 354.555 273.121 355.184 272.777 355.616C265.345 364.942 253.387 371.368 234.819 372.914C234.269 372.96 233.786 372.551 233.74 372.001C233.694 371.451 234.103 370.967 234.653 370.921C252.814 369.409 264.205 363.164 271.213 354.37C271.557 353.938 272.186 353.867 272.618 354.211ZM151.02 358.064C151.185 357.537 151.746 357.243 152.273 357.407C167.483 362.151 180.962 365.561 192.897 367.812C193.44 367.914 193.797 368.437 193.695 368.98C193.592 369.522 193.07 369.879 192.527 369.777C180.502 367.509 166.947 364.079 151.677 359.317C151.15 359.152 150.856 358.591 151.02 358.064Z" fill="#F48282"/>
<path fill-rule="evenodd" clip-rule="evenodd" d="M258.365 312.443C262.142 315.085 269.376 311.744 271.552 315.811C273.52 319.488 268.521 323.481 266.104 326.909C264.337 329.415 261.68 330.926 259.427 333.006C257.373 334.904 256.181 338.393 253.403 338.639C250.484 338.897 248.955 334.129 246.026 334.191C241.55 334.286 237.459 341.5 233.723 339.056C230.33 336.838 236.353 331.066 235.267 327.154C234.227 323.414 226.795 322.071 227.971 318.357C229.202 314.471 236.96 317.715 239.313 314.381C242.28 310.176 237.389 302.64 241.367 299.375C244.628 296.699 249.884 300.424 253.207 302.979C256.103 305.205 255.371 310.35 258.365 312.443Z" fill="#FFE6E6"/>
<path fill-rule="evenodd" clip-rule="evenodd" d="M262.723 309.894C266.062 313.072 273.715 310.853 275.257 315.199C276.652 319.13 271.111 322.329 268.208 325.356C266.086 327.569 263.232 328.664 260.693 330.384C258.378 331.952 256.677 335.224 253.893 335.051C250.968 334.869 250.171 329.925 247.266 329.548C242.826 328.971 237.7 335.491 234.372 332.515C231.35 329.814 238.17 325.009 237.682 320.979C237.214 317.125 230.067 314.684 231.786 311.188C233.586 307.53 240.77 311.9 243.596 308.956C247.159 305.243 243.452 297.059 247.875 294.427C251.499 292.27 256.138 296.74 259.041 299.764C261.571 302.399 260.077 307.376 262.723 309.894Z" stroke="#F16D6D" stroke-width="2" stroke-linejoin="round"/>
<circle cx="291" cy="23" r="15" fill="#FF9E9E"/>
<path d="M308 25C308 32.732 301.732 39 294 39C286.268 39 280 32.732 280 25C280 17.268 286.268 11 294 11C301.732 11 308 17.268 308 25Z" stroke="#F48282" stroke-width="2"/>
<path d="M58.4477 377.591C58.2756 381.92 55.3357 385.646 51.1656 386.82L2.91579 400.404C-1.25435 401.578 -5.70622 399.933 -8.11145 396.33L-35.9407 354.639C-38.3459 351.036 -38.1574 346.294 -35.4738 342.893L-4.42341 303.543C-1.73978 300.142 2.82858 298.856 6.89239 300.357L53.9118 317.728C57.9756 319.229 60.6105 323.176 60.4385 327.505L58.4477 377.591Z" fill="#FFEAEA"/>
<path d="M66.2249 368.398C66.0527 372.727 63.1126 376.453 58.9424 377.627L10.6921 391.209C6.52188 392.383 2.07009 390.738 -0.334985 387.134L-28.1624 345.443C-30.5675 341.839 -30.3788 337.097 -27.695 333.696L3.35703 294.347C6.04081 290.946 10.6092 289.66 14.673 291.162L61.6916 308.535C65.7554 310.036 68.3901 313.984 68.2179 318.312L66.2249 368.398Z" stroke="#FFBDBD" stroke-width="4" stroke-linecap="round" stroke-linejoin="round" stroke-dasharray="20 20"/>
<path d="M77.742 359.344C77.5698 363.673 74.6297 367.399 70.4595 368.573L22.2092 382.155C18.039 383.328 13.5872 381.684 11.1821 378.08L-16.6453 336.388C-19.0504 332.785 -18.8617 328.043 -16.1779 324.642L14.8741 285.293C17.5579 281.892 22.1263 280.606 26.1901 282.108L73.2087 299.481C77.2725 300.982 79.9072 304.929 79.735 309.258L77.742 359.344Z" stroke="#EB8E8E" stroke-width="4" stroke-linecap="round" stroke-linejoin="round" stroke-dasharray="20 20"/>
<rect x="76.7236" y="52.8861" width="84.8381" height="21.2095" rx="10.6048" transform="rotate(22.0227 76.7236 52.8861)" fill="#FF6565" fill-opacity="0.3"/>
<rect x="86.0996" y="113.418" width="84.8381" height="21.2095" rx="10.6048" transform="rotate(-67.9773 86.0996 113.418)" fill="#FF6565" fill-opacity="0.3"/>
<rect x="84.8771" y="54.9251" width="83.8381" height="20.2095" rx="10.1048" transform="rotate(22.0227 84.8771 54.9251)" stroke="#EA4242" stroke-opacity="0.5"/>
<rect x="94.6281" y="114.53" width="83.8381" height="20.2095" rx="10.1048" transform="rotate(-67.9773 94.6281 114.53)" stroke="#EA4242" stroke-opacity="0.5"/>
<rect x="45.77" y="114.399" width="24.5219" height="6.13047" rx="3.06524" transform="rotate(-15.3005 45.77 114.399)" fill="#FF9191" fill-opacity="0.3"/>
<rect x="58.5332" y="126.669" width="24.5219" height="6.13047" rx="3.06524" transform="rotate(-105.301 58.5332 126.669)" fill="#FF9191" fill-opacity="0.3"/>
<rect x="47.4506" y="114.44" width="23.5219" height="5.13047" rx="2.56524" transform="rotate(-15.3005 47.4506 114.44)" stroke="#FF9B9B" stroke-opacity="0.5"/>
<rect x="59.9499" y="125.746" width="23.5219" height="5.13047" rx="2.56524" transform="rotate(-105.301 59.9499 125.746)" stroke="#FF9B9B" stroke-opacity="0.5"/>
<rect x="74.1821" y="23.1119" width="24.5219" height="6.13047" rx="3.06524" transform="rotate(12.0826 74.1821 23.1119)" fill="#FFABAB"/>
<rect x="79.8716" y="39.8778" width="24.5219" height="6.13047" rx="3.06524" transform="rotate(-77.9174 79.8716 39.8778)" fill="#FFABAB"/>
<rect x="365.895" y="273.709" width="42.8954" height="10.7238" rx="5.36192" transform="rotate(-21.1999 365.895 273.709)" fill="#F3B1B1"/>
<rect x="390.309" y="292.765" width="42.8954" height="10.7238" rx="5.36192" transform="rotate(-111.2 390.309 292.765)" fill="#F3B1B1"/>
</g>
<defs>
<clipPath id="clip0_403_465">
<rect width="400" height="400" fill="white"/>
</clipPath>
</defs>
</svg>
