<svg width="390" height="303" viewBox="0 0 390 303" fill="none" xmlns="http://www.w3.org/2000/svg">
<g clip-path="url(#clip0_321_603)">
<path fill-rule="evenodd" clip-rule="evenodd" d="M-13.1333 5.30691C1.73334 13.6138 31.4667 30.2277 61.2 38.5346C90.9333 46.8415 120.667 46.8415 150.4 43.5187C180.133 40.196 209.867 33.5504 239.6 26.9049C269.333 20.2594 299.067 13.6138 328.8 8.62968C358.533 3.64553 388.267 0.32276 403.133 -1.33862V56.8098C388.267 56.8098 358.533 56.8098 328.8 56.8098C299.067 56.8098 269.333 56.8098 239.6 56.8098C209.867 56.8098 180.133 56.8098 150.4 56.8098C120.667 56.8098 90.9333 56.8098 61.2 56.8098C31.4667 56.8098 1.73334 56.8098 -13.1333 56.8098V5.30691Z" fill="#FDFDFD"/>
<path d="M-13.1333 56.8098H403.133V308H194H-13.1333V56.8098Z" fill="#FDFDFD"/>
</g>
<defs>
<clipPath id="clip0_321_603">
<rect width="390" height="303" fill="white"/>
</clipPath>
</defs>
</svg>
