<svg width="569" height="562" viewBox="0 0 569 562" fill="none" xmlns="http://www.w3.org/2000/svg">
<path fill-rule="evenodd" clip-rule="evenodd" d="M361.06 85.8837C403.702 111.018 374.204 179.577 390.357 226.622C410.106 284.138 496.865 334.019 464 385.691C430.845 437.819 347.827 378.904 287.265 388.708C238.034 396.678 194.127 461.135 151.136 436.339C108.237 411.596 131.36 344.36 124.672 294.929C119.195 254.452 95.1289 212.57 116.083 177.287C137.069 141.951 185.283 142.637 223.609 128.337C270.345 110.899 318.395 60.7359 361.06 85.8837Z" stroke="#185C96" stroke-width="26"/>
<mask id="mask0_330_402" style="mask-type:alpha" maskUnits="userSpaceOnUse" x="96" y="77" width="369" height="365">
<path fill-rule="evenodd" clip-rule="evenodd" d="M351.639 84.8866C394.801 110.332 365.408 178.954 381.961 226.239C402.199 284.048 490.01 334.559 457.128 386.22C423.955 438.338 339.869 378.784 278.814 388.292C229.182 396.022 185.227 460.45 141.715 435.342C98.2947 410.287 121.264 342.959 114.248 293.331C108.502 252.694 83.9934 210.546 104.946 175.262C125.93 139.925 174.583 140.874 213.177 126.735C260.241 109.493 308.453 59.4269 351.639 84.8866Z" fill="#C4C4C4"/>
</mask>
<g mask="url(#mask0_330_402)">
<path fill-rule="evenodd" clip-rule="evenodd" d="M351.639 84.8866C394.801 110.332 365.408 178.954 381.961 226.239C402.199 284.048 490.01 334.559 457.128 386.22C423.955 438.338 339.869 378.784 278.814 388.292C229.182 396.022 185.227 460.45 141.715 435.342C98.2947 410.287 121.264 342.959 114.248 293.331C108.502 252.694 83.9934 210.546 104.946 175.262C125.93 139.925 174.583 140.874 213.177 126.735C260.241 109.493 308.453 59.4269 351.639 84.8866Z" fill="#04121E"/>
<path d="M166.066 432.613C228.209 432.613 278.585 382.237 278.585 320.094C278.585 257.951 228.209 207.575 166.066 207.575C103.923 207.575 53.5465 257.951 53.5465 320.094C53.5465 382.237 103.923 432.613 166.066 432.613Z" fill="#020406"/>
<mask id="mask1_330_402" style="mask-type:luminance" maskUnits="userSpaceOnUse" x="53" y="207" width="226" height="226">
<path d="M166.066 432.613C228.209 432.613 278.585 382.237 278.585 320.094C278.585 257.951 228.209 207.575 166.066 207.575C103.923 207.575 53.5465 257.951 53.5465 320.094C53.5465 382.237 103.923 432.613 166.066 432.613Z" fill="white"/>
</mask>
<g mask="url(#mask1_330_402)">
<path d="M281.025 379.181H51.0964V433.676H281.025V379.181Z" fill="#AAD0FF"/>
<path opacity="0.2" d="M281.025 378.816H51.0964V433.312H281.025V378.816Z" fill="#231F20"/>
</g>
<path d="M33.0189 333.965C72.8091 333.965 105.065 301.708 105.065 261.918C105.065 222.128 72.8091 189.872 33.0189 189.872C-6.77119 189.872 -39.0275 222.128 -39.0275 261.918C-39.0275 301.708 -6.77119 333.965 33.0189 333.965Z" fill="#1E487B"/>
<path opacity="0.2" d="M33.0189 333.965C72.8091 333.965 105.065 301.708 105.065 261.918C105.065 222.128 72.8091 189.872 33.0189 189.872C-6.77119 189.872 -39.0275 222.128 -39.0275 261.918C-39.0275 301.708 -6.77119 333.965 33.0189 333.965Z" fill="#231F20"/>
<path d="M174.069 365.928L180.448 388.394L136.087 379.677L137.018 365.928H174.069Z" fill="#04121E"/>
<path d="M154.448 289.832C161.709 289.832 167.595 282.23 167.595 272.853C167.595 263.475 161.709 255.874 154.448 255.874C147.187 255.874 141.301 263.475 141.301 272.853C141.301 282.23 147.187 289.832 154.448 289.832Z" fill="#FF8C4D"/>
<path d="M127.992 319.071L137.018 360.01L156.944 373.709C149.472 377.758 145.27 390.829 145.27 390.829L130.017 382.79C111.96 369.714 106.457 345.016 106.457 345.016C101.998 325.273 106.457 315.654 106.457 315.654C112.684 296.453 135.621 292.823 135.621 292.823L156.944 294.793C179.045 300.549 184.523 317.36 184.523 317.36L206.625 362.658C201.021 362.035 195.108 370.757 195.108 370.757L173.315 346.16L174.095 365.933C174.095 365.933 160.766 370.884 147.892 367.452L134.406 359.129L127.992 319.071Z" fill="#7E1113"/>
<path opacity="0.2" d="M143.716 303.642C143.716 303.642 137.302 311.058 127.517 306.517C124.616 305.171 122.358 302.219 121.158 299.258C121.047 298.984 120.946 298.706 120.849 298.417C120.849 298.417 128.554 293.861 135.611 292.819C135.621 292.819 134.913 301.283 143.716 303.642Z" fill="white"/>
<path opacity="0.2" d="M145.037 304.026C145.037 304.026 150.018 311.706 160.912 308.694C160.912 308.694 167.493 306.952 169.518 300.402C165.493 297.821 161.067 295.924 156.422 294.788L155.946 294.747C155.946 294.747 153.932 304.391 145.037 304.026Z" fill="white"/>
<path opacity="0.2" d="M171.315 319.487C171.558 321.704 171.756 323.926 171.948 326.143C172.141 328.361 172.303 330.588 172.485 332.811C172.667 335.033 172.799 337.255 172.935 339.478L173.133 342.819C173.183 343.932 173.249 345.041 173.29 346.155C173.163 345.051 173.067 343.937 172.956 342.829L172.657 339.498C172.465 337.28 172.303 335.058 172.12 332.836C171.938 330.613 171.806 328.391 171.67 326.164C171.533 323.936 171.407 321.714 171.315 319.487Z" fill="#231F20"/>
<path opacity="0.2" d="M136.603 359.797C135.755 360.015 134.92 360.282 134.103 360.597L133.505 360.84L132.923 361.129C132.539 361.32 132.167 361.535 131.809 361.772C131.078 362.234 130.399 362.773 129.784 363.381C129.161 363.995 128.606 364.674 128.129 365.406C128.412 364.552 128.859 363.761 129.445 363.078C130.023 362.378 130.706 361.772 131.47 361.281C132.232 360.789 133.063 360.414 133.935 360.167C134.366 360.04 134.806 359.945 135.252 359.883C135.717 359.833 136.163 359.807 136.603 359.797Z" fill="#231F20"/>
<path d="M202.114 404.685L222.323 362.602L263.879 344.292L244.268 383.271L202.114 404.685Z" fill="#04121E"/>
<path opacity="0.2" d="M202.114 404.685L222.323 362.602L263.879 344.292L244.268 383.271L202.114 404.685Z" fill="black"/>
<path d="M202.114 404.685L157.288 392.231L208.675 367.639L218.794 370.894L202.114 404.685Z" fill="#04121E"/>
<path d="M107.384 358.988L108.224 355.51L109.262 354.993L112.269 357.246L107.384 358.988Z" fill="#04121E"/>
<path d="M108.381 353.925L108.224 355.51L109.262 354.993L108.381 353.925Z" fill="#04121E"/>
<path opacity="0.2" d="M108.381 353.925L108.224 355.51L109.262 354.993L108.381 353.925Z" fill="black"/>
<path d="M148.545 229.287C161.641 229.287 172.257 218.671 172.257 205.575C172.257 192.48 161.641 181.863 148.545 181.863C135.45 181.863 124.833 192.48 124.833 205.575C124.833 218.671 135.45 229.287 148.545 229.287Z" fill="#04121E"/>
<path d="M157.404 218.94L145.867 205.737L148.009 193.826L149.082 194.018L147.032 205.413L158.224 218.221L157.404 218.94Z" fill="white"/>
<path d="M145.27 390.839C145.27 390.839 158.862 398.362 177.127 394.732C177.127 394.732 185.226 394.008 185.95 392.14C185.95 392.14 187.818 389.442 176.403 388.713C176.403 388.713 178.787 385.499 182.837 387.574C182.837 387.574 191.033 390.374 193.007 388.404C193.007 388.404 198.069 390.374 198.819 389.027C198.819 389.027 199.543 388.146 198.404 386.876C198.404 386.876 200.469 387.012 200.429 385.585C200.418 385.382 200.364 385.185 200.269 385.006C200.175 384.827 200.043 384.67 199.882 384.547C197.518 382.618 184.553 373.126 166.855 380.619L156.944 373.719C156.944 373.719 149.629 376.665 145.27 390.839Z" fill="#FF8C4D"/>
<path d="M195.083 370.752C195.083 370.752 197.108 374.488 199.75 371.841L201.618 369.041L199.36 376.508C199.242 376.878 199.214 377.272 199.278 377.655C199.342 378.039 199.496 378.402 199.728 378.714C199.96 379.026 200.263 379.279 200.612 379.45C200.961 379.622 201.346 379.709 201.735 379.702V379.702C202.216 379.702 202.686 379.56 203.088 379.295C203.489 379.029 203.804 378.652 203.992 378.209L206.625 372.023L210.006 377.338C210.279 377.762 210.694 378.074 211.178 378.217C211.661 378.361 212.179 378.325 212.639 378.118V378.118C213.12 377.9 213.501 377.507 213.705 377.02C213.908 376.533 213.92 375.986 213.737 375.49L211.14 368.444L216.861 371.674C217.035 371.773 217.23 371.832 217.43 371.847C217.63 371.862 217.831 371.832 218.019 371.76C218.206 371.688 218.375 371.575 218.514 371.43C218.652 371.284 218.757 371.11 218.82 370.919C218.9 370.682 218.912 370.427 218.856 370.183C218.8 369.939 218.677 369.715 218.501 369.537C217.175 368.196 213.682 365.103 209.424 364.86L206.625 362.683C206.625 362.683 201.309 361.412 195.083 370.752Z" fill="#FF8C4D"/>
<path d="M359.901 193.922H305.42V253.485H359.901V193.922Z" fill="#04121E"/>
<path opacity="0.1" d="M359.901 193.922H305.42V253.485H359.901V193.922Z" fill="black"/>
<path d="M305.42 193.922H249.183V313.098H305.42V193.922Z" fill="#04121E"/>
<path d="M359.906 185.078H195.083V193.927H359.906V185.078Z" fill="#04121E"/>
<path d="M249.563 193.922H195.083V253.485H249.563V193.922Z" fill="#04121E"/>
<path opacity="0.1" d="M249.563 193.922H195.083V253.485H249.563V193.922Z" fill="black"/>
<path d="M249.563 253.49H195.083V313.098H214.967L223.786 332.264C223.91 332.511 224.099 332.72 224.333 332.868C224.566 333.016 224.836 333.098 225.113 333.103C225.39 333.109 225.663 333.039 225.903 332.901C226.143 332.763 226.34 332.562 226.474 332.319L236.34 313.083H249.563V253.49Z" fill="#04121E"/>
<path opacity="0.2" d="M249.563 253.49H195.083V313.098H214.967L223.786 332.264C223.91 332.511 224.099 332.72 224.333 332.868C224.566 333.016 224.836 333.098 225.113 333.103C225.39 333.109 225.663 333.039 225.903 332.901C226.143 332.763 226.34 332.562 226.474 332.319L236.34 313.083H249.563V253.49Z" fill="white"/>
<path d="M359.901 253.49H305.42V313.098H359.901V253.49Z" fill="#04121E"/>
<path opacity="0.2" d="M359.901 253.49H305.42V313.098H359.901V253.49Z" fill="white"/>
<path d="M298.034 200.356H257.126V233.979H298.034V200.356Z" fill="white"/>
<path d="M243.028 260.313H202.119V293.937H243.028V260.313Z" fill="white"/>
<path d="M353.117 260.313H312.209V293.937H353.117V260.313Z" fill="white"/>
<path d="M350.09 299.526H321.787C320.347 299.526 319.18 300.693 319.18 302.133V302.73C319.18 304.17 320.347 305.338 321.787 305.338H350.09C351.53 305.338 352.697 304.17 352.697 302.73V302.133C352.697 300.693 351.53 299.526 350.09 299.526Z" fill="white"/>
<path d="M312.624 299.87V304.998C312.624 305.031 312.632 305.063 312.649 305.091C312.666 305.118 312.69 305.141 312.719 305.156C312.747 305.172 312.78 305.178 312.812 305.176C312.845 305.174 312.876 305.164 312.902 305.145L316.583 302.578C316.606 302.562 316.624 302.54 316.637 302.515C316.65 302.49 316.657 302.462 316.657 302.434C316.657 302.406 316.65 302.378 316.637 302.353C316.624 302.328 316.606 302.306 316.583 302.29L312.902 299.718C312.875 299.699 312.844 299.688 312.811 299.687C312.778 299.685 312.745 299.692 312.716 299.708C312.687 299.724 312.663 299.747 312.647 299.776C312.631 299.805 312.623 299.837 312.624 299.87V299.87Z" fill="white"/>
<path d="M239.388 299.526H211.085C209.645 299.526 208.478 300.693 208.478 302.133V302.73C208.478 304.17 209.645 305.338 211.085 305.338H239.388C240.828 305.338 241.995 304.17 241.995 302.73V302.133C241.995 300.693 240.828 299.526 239.388 299.526Z" fill="white"/>
<path d="M201.922 299.87V304.998C201.922 305.031 201.93 305.063 201.947 305.091C201.964 305.118 201.988 305.141 202.017 305.156C202.045 305.172 202.078 305.178 202.11 305.176C202.143 305.174 202.174 305.164 202.2 305.145L205.881 302.578C205.904 302.562 205.922 302.54 205.935 302.515C205.948 302.49 205.955 302.462 205.955 302.434C205.955 302.406 205.948 302.378 205.935 302.353C205.922 302.328 205.904 302.306 205.881 302.29L202.2 299.718C202.173 299.699 202.142 299.688 202.109 299.687C202.076 299.685 202.043 299.692 202.014 299.708C201.985 299.724 201.961 299.747 201.945 299.776C201.929 299.805 201.921 299.837 201.922 299.87Z" fill="white"/>
<path d="M297.974 240.004H257.035V240.728H297.974V240.004Z" fill="white"/>
<path d="M297.974 246.018H257.035V246.741H297.974V246.018Z" fill="white"/>
<path d="M297.974 251.667H257.035V252.391H297.974V251.667Z" fill="white"/>
<path d="M297.974 257.676H257.035V258.4H297.974V257.676Z" fill="white"/>
<path d="M297.958 281.165H257.02V281.889H297.958V281.165Z" fill="white"/>
<path d="M297.958 287.179H257.02V287.903H297.958V287.179Z" fill="white"/>
<path d="M297.958 292.823H257.02V293.547H297.958V292.823Z" fill="white"/>
<path d="M297.958 298.837H257.02V299.561H297.958V298.837Z" fill="white"/>
<path d="M298.05 304.816H257.111V305.54H298.05V304.816Z" fill="white"/>
<path d="M297.958 263.69H257.02V264.414H297.958V263.69Z" fill="white"/>
<path d="M259.991 275.283C261.367 275.283 262.482 274.168 262.482 272.792C262.482 271.417 261.367 270.302 259.991 270.302C258.616 270.302 257.501 271.417 257.501 272.792C257.501 274.168 258.616 275.283 259.991 275.283Z" fill="white"/>
<path d="M268.501 275.283C269.877 275.283 270.992 274.168 270.992 272.792C270.992 271.417 269.877 270.302 268.501 270.302C267.126 270.302 266.01 271.417 266.01 272.792C266.01 274.168 267.126 275.283 268.501 275.283Z" fill="white"/>
<path d="M277.578 275.283C278.953 275.283 280.068 274.168 280.068 272.792C280.068 271.417 278.953 270.302 277.578 270.302C276.202 270.302 275.087 271.417 275.087 272.792C275.087 274.168 276.202 275.283 277.578 275.283Z" fill="white"/>
<path d="M286.087 275.283C287.463 275.283 288.578 274.168 288.578 272.792C288.578 271.417 287.463 270.302 286.087 270.302C284.712 270.302 283.597 271.417 283.597 272.792C283.597 274.168 284.712 275.283 286.087 275.283Z" fill="white"/>
<path d="M295.427 275.045C296.803 275.045 297.918 273.93 297.918 272.554C297.918 271.179 296.803 270.063 295.427 270.063C294.052 270.063 292.937 271.179 292.937 272.554C292.937 273.93 294.052 275.045 295.427 275.045Z" fill="white"/>
<path opacity="0.1" d="M200.231 191.122C201.126 191.122 201.851 190.397 201.851 189.502C201.851 188.607 201.126 187.882 200.231 187.882C199.336 187.882 198.611 188.607 198.611 189.502C198.611 190.397 199.336 191.122 200.231 191.122Z" fill="white"/>
<path d="M206.351 191.122C207.246 191.122 207.971 190.397 207.971 189.502C207.971 188.607 207.246 187.882 206.351 187.882C205.457 187.882 204.731 188.607 204.731 189.502C204.731 190.397 205.457 191.122 206.351 191.122Z" fill="#7E1113"/>
<path d="M212.163 191.122C213.058 191.122 213.783 190.397 213.783 189.502C213.783 188.607 213.058 187.882 212.163 187.882C211.268 187.882 210.543 188.607 210.543 189.502C210.543 190.397 211.268 191.122 212.163 191.122Z" fill="#AAD0FF"/>
<path d="M229.542 278.034C230.255 273.084 227.482 268.587 223.348 267.992C219.214 267.396 215.284 270.926 214.571 275.877C213.857 280.827 216.63 285.324 220.765 285.919C224.899 286.515 228.829 282.985 229.542 278.034Z" fill="#CB5514"/>
<path d="M214.471 279.727C215.405 279.727 216.162 278.97 216.162 278.037C216.162 277.103 215.405 276.346 214.471 276.346C213.537 276.346 212.781 277.103 212.781 278.037C212.781 278.97 213.537 279.727 214.471 279.727Z" fill="#CB5514"/>
<path d="M217.332 283.357H225.694V290.181C225.694 291.176 225.299 292.13 224.596 292.833C223.892 293.537 222.938 293.932 221.943 293.932H221.088C220.093 293.932 219.139 293.537 218.435 292.833C217.732 292.13 217.337 291.176 217.337 290.181V283.357H217.332Z" fill="#CB5514"/>
<path d="M214.471 276.346C214.471 276.346 212.72 267.704 219.777 266.874C219.777 266.874 230.362 264.611 230.468 276.72C230.468 276.72 229.618 276.179 229.142 276.467C229.142 276.467 229.243 271.754 225.239 269.416C225.239 269.416 218.491 266.682 215.534 276.72L214.471 276.346Z" fill="#04121E"/>
<path d="M224.267 270.296C226.372 270.296 228.079 269.068 228.079 267.553C228.079 266.037 226.372 264.809 224.267 264.809C222.162 264.809 220.455 266.037 220.455 267.553C220.455 269.068 222.162 270.296 224.267 270.296Z" fill="#04121E"/>
<path d="M234.513 293.932H210.128L217.6 289.376C217.6 289.376 220.602 291.907 225.239 289.781L234.513 293.932Z" fill="#7E1113"/>
<path d="M273.31 222.878H281.673V227.49C281.673 228.485 281.278 229.439 280.575 230.142C279.871 230.846 278.917 231.241 277.922 231.241H277.061C276.067 231.241 275.112 230.846 274.409 230.142C273.706 229.439 273.31 228.485 273.31 227.49V222.878V222.878Z" fill="#FF8C4D"/>
<path d="M277.765 225.86C281.318 225.86 284.199 222.016 284.199 217.274C284.199 212.532 281.318 208.688 277.765 208.688C274.211 208.688 271.331 212.532 271.331 217.274C271.331 222.016 274.211 225.86 277.765 225.86Z" fill="#FF8C4D"/>
<path d="M270.911 214.611C270.911 214.611 271.554 208.111 276.074 207.924C276.074 207.924 283.278 205.697 284.624 214.611C284.624 214.611 279.461 214.363 277.765 211.144C277.765 211.128 273.649 215.629 270.911 214.611Z" fill="#3F3D56"/>
<path d="M277.537 209.012C278.98 209.012 280.149 207.843 280.149 206.4C280.149 204.958 278.98 203.788 277.537 203.788C276.095 203.788 274.925 204.958 274.925 206.4C274.925 207.843 276.095 209.012 277.537 209.012Z" fill="#3F3D56"/>
<path d="M271.123 218.823C272.144 218.823 272.971 217.996 272.971 216.975C272.971 215.955 272.144 215.128 271.123 215.128C270.103 215.128 269.276 215.955 269.276 216.975C269.276 217.996 270.103 218.823 271.123 218.823Z" fill="#FF8C4D"/>
<path d="M284.624 219.015C285.645 219.015 286.472 218.188 286.472 217.168C286.472 216.147 285.645 215.32 284.624 215.32C283.604 215.32 282.777 216.147 282.777 217.168C282.777 218.188 283.604 219.015 284.624 219.015Z" fill="#FF8C4D"/>
<path d="M264.507 233.98L273.315 228.168C273.315 228.168 277.077 231.438 281.612 228.168L290.451 233.98H264.507Z" fill="#7E1113"/>
<path d="M328.494 282.755H336.857V287.366C336.857 288.361 336.462 289.315 335.758 290.019C335.055 290.722 334.101 291.118 333.106 291.118H332.25C331.255 291.118 330.301 290.722 329.598 290.019C328.894 289.315 328.499 288.361 328.499 287.366V282.755H328.494Z" fill="#FF8C4D"/>
<path d="M332.954 285.736C336.508 285.736 339.388 281.892 339.388 277.151C339.388 272.409 336.508 268.565 332.954 268.565C329.401 268.565 326.52 272.409 326.52 277.151C326.52 281.892 329.401 285.736 332.954 285.736Z" fill="#FF8C4D"/>
<path d="M326.095 274.488C326.095 274.488 326.738 267.988 331.258 267.801C331.258 267.801 338.462 265.573 339.808 274.488C339.808 274.488 334.645 274.245 332.954 271.025C332.954 271.025 328.838 275.505 326.095 274.488Z" fill="#3F3D56"/>
<path d="M332.721 268.894C334.164 268.894 335.333 267.725 335.333 266.282C335.333 264.839 334.164 263.67 332.721 263.67C331.279 263.67 330.109 264.839 330.109 266.282C330.109 267.725 331.279 268.894 332.721 268.894Z" fill="#3F3D56"/>
<path d="M326.307 278.7C327.328 278.7 328.155 277.872 328.155 276.852C328.155 275.832 327.328 275.004 326.307 275.004C325.287 275.004 324.459 275.832 324.459 276.852C324.459 277.872 325.287 278.7 326.307 278.7Z" fill="#FF8C4D"/>
<path d="M339.808 278.897C340.829 278.897 341.656 278.07 341.656 277.05C341.656 276.029 340.829 275.202 339.808 275.202C338.788 275.202 337.961 276.029 337.961 277.05C337.961 278.07 338.788 278.897 339.808 278.897Z" fill="#FF8C4D"/>
<path d="M319.686 293.861L328.494 288.075C328.494 288.075 332.26 291.34 336.791 288.075L345.63 293.887L319.686 293.861Z" fill="#7E1113"/>
<path d="M243.028 200.356H202.119V233.979H243.028V200.356Z" fill="white"/>
<path d="M239.585 240.206H211.282C209.842 240.206 208.675 241.373 208.675 242.813V243.41C208.675 244.85 209.842 246.018 211.282 246.018H239.585C241.025 246.018 242.192 244.85 242.192 243.41V242.813C242.192 241.373 241.025 240.206 239.585 240.206Z" fill="white"/>
<path d="M202.119 240.545V245.679C202.118 245.711 202.126 245.744 202.143 245.772C202.16 245.801 202.184 245.824 202.213 245.838C202.243 245.853 202.276 245.86 202.308 245.856C202.341 245.853 202.372 245.841 202.398 245.82L206.078 243.259C206.101 243.242 206.12 243.22 206.133 243.194C206.146 243.169 206.152 243.141 206.152 243.112C206.152 243.083 206.146 243.055 206.133 243.03C206.12 243.004 206.101 242.982 206.078 242.965L202.398 240.399C202.371 240.38 202.34 240.369 202.307 240.367C202.275 240.365 202.243 240.372 202.214 240.387C202.185 240.402 202.161 240.425 202.144 240.453C202.128 240.481 202.119 240.513 202.119 240.545V240.545Z" fill="white"/>
<path d="M210.427 233.98C210.427 233.98 213.712 226.73 223.285 227.307C225.506 227.515 227.652 228.224 229.56 229.379C231.469 230.535 233.091 232.108 234.305 233.98H210.427Z" fill="#7E1113"/>
<path d="M222.515 225.849C226.069 225.849 228.949 222.3 228.949 217.922C228.949 213.544 226.069 209.994 222.515 209.994C218.962 209.994 216.081 213.544 216.081 217.922C216.081 222.3 218.962 225.849 222.515 225.849Z" fill="#6D2700"/>
<path d="M215.135 219.456C216.068 219.456 216.825 218.699 216.825 217.765C216.825 216.831 216.068 216.074 215.135 216.074C214.201 216.074 213.444 216.831 213.444 217.765C213.444 218.699 214.201 219.456 215.135 219.456Z" fill="#6D2700"/>
<path d="M229.83 219.456C230.764 219.456 231.521 218.699 231.521 217.765C231.521 216.831 230.764 216.074 229.83 216.074C228.896 216.074 228.139 216.831 228.139 217.765C228.139 218.699 228.896 219.456 229.83 219.456Z" fill="#6D2700"/>
<path d="M218.228 222.984H226.59V227.596C226.59 228.591 226.195 229.545 225.492 230.248C224.788 230.952 223.834 231.347 222.839 231.347H221.984C220.989 231.347 220.035 230.952 219.331 230.248C218.628 229.545 218.233 228.591 218.233 227.596V222.984H218.228Z" fill="#6D2700"/>
<path d="M213.985 216.53C213.985 216.53 211.242 211.179 216.081 210.708C216.081 210.708 215.231 207.033 219.488 206.152C220.358 206.042 221.24 206.105 222.086 206.337C222.931 206.569 223.722 206.966 224.414 207.504C224.414 207.504 229.83 206.998 229.83 212.627C229.83 212.627 231.521 214.368 229.83 216.059C229.531 216.121 229.237 216.204 228.95 216.307C228.95 216.307 227.78 210.197 222.515 209.979C222.515 209.979 217.858 209.544 216.193 216.434C216.193 216.449 214.998 215.593 213.985 216.53Z" fill="#04121E"/>
<path d="M217.124 215.74C217.982 215.74 218.678 215.044 218.678 214.186C218.678 213.328 217.982 212.632 217.124 212.632C216.266 212.632 215.57 213.328 215.57 214.186C215.57 215.044 216.266 215.74 217.124 215.74Z" fill="#04121E"/>
<path d="M218.744 213.614C219.602 213.614 220.298 212.918 220.298 212.06C220.298 211.202 219.602 210.506 218.744 210.506C217.886 210.506 217.19 211.202 217.19 212.06C217.19 212.918 217.886 213.614 218.744 213.614Z" fill="#04121E"/>
<path d="M221.083 212.262C221.941 212.262 222.637 211.567 222.637 210.708C222.637 209.85 221.941 209.154 221.083 209.154C220.224 209.154 219.529 209.85 219.529 210.708C219.529 211.567 220.224 212.262 221.083 212.262Z" fill="#04121E"/>
<path d="M223.452 212.262C224.31 212.262 225.006 211.567 225.006 210.708C225.006 209.85 224.31 209.154 223.452 209.154C222.594 209.154 221.898 209.85 221.898 210.708C221.898 211.567 222.594 212.262 223.452 212.262Z" fill="#04121E"/>
<path d="M225.208 212.87C226.067 212.87 226.763 212.174 226.763 211.316C226.763 210.457 226.067 209.762 225.208 209.762C224.35 209.762 223.654 210.457 223.654 211.316C223.654 212.174 224.35 212.87 225.208 212.87Z" fill="#04121E"/>
<path d="M226.59 213.67C227.449 213.67 228.145 212.974 228.145 212.116C228.145 211.257 227.449 210.561 226.59 210.561C225.732 210.561 225.036 211.257 225.036 212.116C225.036 212.974 225.732 213.67 226.59 213.67Z" fill="#3F3D56"/>
<path d="M227.39 215.229C228.249 215.229 228.944 214.533 228.944 213.675C228.944 212.816 228.249 212.121 227.39 212.121C226.532 212.121 225.836 212.816 225.836 213.675C225.836 214.533 226.532 215.229 227.39 215.229Z" fill="#04121E"/>
<path d="M353.117 200.356H312.209V233.979H353.117V200.356Z" fill="white"/>
<path d="M349.675 240.206H321.371C319.932 240.206 318.764 241.373 318.764 242.813V243.41C318.764 244.85 319.932 246.018 321.371 246.018H349.675C351.115 246.018 352.282 244.85 352.282 243.41V242.813C352.282 241.373 351.115 240.206 349.675 240.206Z" fill="white"/>
<path d="M312.209 240.545V245.679C312.209 245.711 312.219 245.742 312.236 245.769C312.253 245.796 312.277 245.818 312.306 245.833C312.334 245.847 312.366 245.854 312.398 245.852C312.43 245.849 312.461 245.839 312.487 245.82L316.167 243.259C316.19 243.242 316.209 243.22 316.222 243.194C316.235 243.169 316.242 243.141 316.242 243.112C316.242 243.083 316.235 243.055 316.222 243.03C316.209 243.004 316.19 242.982 316.167 242.965L312.487 240.399C312.461 240.38 312.429 240.369 312.397 240.367C312.364 240.365 312.332 240.372 312.303 240.387C312.275 240.402 312.251 240.425 312.234 240.453C312.217 240.481 312.208 240.513 312.209 240.545Z" fill="white"/>
<path d="M320.516 233.98C320.516 233.98 323.807 226.73 333.374 227.307C335.596 227.515 337.741 228.224 339.65 229.379C341.559 230.535 343.181 232.108 344.395 233.98H320.516Z" fill="#7E1113"/>
<path d="M332.605 225.849C336.158 225.849 339.039 222.3 339.039 217.922C339.039 213.544 336.158 209.994 332.605 209.994C329.051 209.994 326.171 213.544 326.171 217.922C326.171 222.3 329.051 225.849 332.605 225.849Z" fill="#FF8C4D"/>
<path d="M325.224 219.456C326.158 219.456 326.915 218.699 326.915 217.765C326.915 216.831 326.158 216.074 325.224 216.074C324.29 216.074 323.533 216.831 323.533 217.765C323.533 218.699 324.29 219.456 325.224 219.456Z" fill="#FF8C4D"/>
<path d="M339.92 219.456C340.854 219.456 341.611 218.699 341.611 217.765C341.611 216.831 340.854 216.074 339.92 216.074C338.986 216.074 338.229 216.831 338.229 217.765C338.229 218.699 338.986 219.456 339.92 219.456Z" fill="#FF8C4D"/>
<path d="M328.322 222.984H336.685V227.596C336.685 228.591 336.29 229.545 335.586 230.248C334.883 230.952 333.929 231.347 332.934 231.347H332.078C331.083 231.347 330.129 230.952 329.426 230.248C328.722 229.545 328.327 228.591 328.327 227.596V222.984H328.322Z" fill="#FF8C4D"/>
<path d="M324.075 216.53C324.075 216.53 321.331 211.179 326.176 210.708C326.176 210.708 325.325 207.033 329.577 206.152C330.448 206.042 331.331 206.105 332.177 206.337C333.023 206.569 333.815 206.965 334.508 207.504C334.508 207.504 339.935 207.033 339.935 212.647C339.935 212.647 341.626 214.389 339.935 216.079C339.636 216.142 339.342 216.225 339.054 216.327C339.054 216.327 337.885 210.217 332.62 210C332.62 210 327.963 209.564 326.302 216.454C326.267 216.449 325.087 215.593 324.075 216.53Z" fill="#3F3D56"/>
<path d="M327.213 215.74C328.072 215.74 328.768 215.044 328.768 214.186C328.768 213.328 328.072 212.632 327.213 212.632C326.355 212.632 325.659 213.328 325.659 214.186C325.659 215.044 326.355 215.74 327.213 215.74Z" fill="#3F3D56"/>
<path d="M328.833 213.614C329.692 213.614 330.388 212.918 330.388 212.06C330.388 211.202 329.692 210.506 328.833 210.506C327.975 210.506 327.279 211.202 327.279 212.06C327.279 212.918 327.975 213.614 328.833 213.614Z" fill="#3F3D56"/>
<path d="M331.177 212.262C332.035 212.262 332.731 211.567 332.731 210.708C332.731 209.85 332.035 209.154 331.177 209.154C330.319 209.154 329.623 209.85 329.623 210.708C329.623 211.567 330.319 212.262 331.177 212.262Z" fill="#3F3D56"/>
<path d="M333.541 212.262C334.4 212.262 335.095 211.567 335.095 210.708C335.095 209.85 334.4 209.154 333.541 209.154C332.683 209.154 331.987 209.85 331.987 210.708C331.987 211.567 332.683 212.262 333.541 212.262Z" fill="#3F3D56"/>
<path d="M335.298 212.87C336.156 212.87 336.852 212.174 336.852 211.316C336.852 210.457 336.156 209.762 335.298 209.762C334.44 209.762 333.744 210.457 333.744 211.316C333.744 212.174 334.44 212.87 335.298 212.87Z" fill="#3F3D56"/>
<path d="M336.68 213.67C337.538 213.67 338.234 212.974 338.234 212.116C338.234 211.257 337.538 210.561 336.68 210.561C335.822 210.561 335.126 211.257 335.126 212.116C335.126 212.974 335.822 213.67 336.68 213.67Z" fill="#3F3D56"/>
<path d="M337.48 215.229C338.338 215.229 339.034 214.533 339.034 213.675C339.034 212.816 338.338 212.121 337.48 212.121C336.621 212.121 335.926 212.816 335.926 213.675C335.926 214.533 336.621 215.229 337.48 215.229Z" fill="#3F3D56"/>
<path d="M229.77 279.727C230.703 279.727 231.46 278.97 231.46 278.037C231.46 277.103 230.703 276.346 229.77 276.346C228.836 276.346 228.079 277.103 228.079 278.037C228.079 278.97 228.836 279.727 229.77 279.727Z" fill="#CB5514"/>
<path d="M159.591 258.471C159.591 258.471 151.188 271.876 139.15 266.358C139.15 266.358 139.458 246.949 156.893 248.301C156.893 248.301 173.032 252.983 168.41 266.059C168.319 266.296 168.143 266.491 167.916 266.604C167.69 266.717 167.428 266.742 167.185 266.672C165.529 266.165 161.986 264.414 159.591 258.471Z" fill="#04121E"/>
<path d="M134.376 270.195L125.168 276.74C124.975 276.89 124.814 277.077 124.695 277.29C124.577 277.503 124.502 277.737 124.476 277.98C124.45 278.222 124.473 278.467 124.544 278.701C124.615 278.934 124.733 279.151 124.889 279.337C126.853 281.656 131.587 286.177 137.489 285.868L140.289 275.591L134.376 270.195Z" fill="#04121E"/>
<path d="M139.975 276.736L135.616 292.818C135.616 292.818 134.993 302.467 145.579 304.026C145.579 304.026 156.331 305.246 157.283 289.432L148.581 279.849L142.683 274.787L140.279 274.437L139.975 276.736Z" fill="#FF8C4D"/>
<path d="M146.019 285.883C146.019 285.883 149.188 293.391 156.65 293.932C157.001 292.456 157.208 290.948 157.268 289.432C157.268 289.432 151.491 291.705 146.019 285.883Z" fill="#F4A48E"/>
<path d="M138.942 276.73C141.579 276.73 143.716 274.466 143.716 271.673C143.716 268.88 141.579 266.616 138.942 266.616C136.306 266.616 134.168 268.88 134.168 271.673C134.168 274.466 136.306 276.73 138.942 276.73Z" fill="#FF8C4D"/>
<path d="M116.111 356.532H116.729C117.446 356.532 118.133 356.817 118.64 357.324C119.147 357.831 119.432 358.519 119.432 359.235V373.709H113.413V359.235C113.413 358.519 113.697 357.833 114.203 357.326C114.709 356.819 115.395 356.534 116.111 356.532V356.532Z" fill="#7E1113"/>
<path d="M125.345 341.826H117.979V373.709H125.345V341.826Z" fill="#04121E"/>
<path opacity="0.2" d="M125.345 341.826H117.979V373.709H125.345V341.826Z" fill="black"/>
<path d="M107.384 358.988L112.269 357.246L117.979 372.063V376.888H113.929L107.384 358.988Z" fill="#04121E"/>
<path opacity="0.2" d="M107.384 358.988L112.269 357.246L117.979 372.063V376.888H113.929L107.384 358.988Z" fill="black"/>
<path d="M106.356 371.998H128.149L122.96 397.527H112.375L106.356 371.998Z" fill="#04121E"/>
</g>
</svg>
