<svg width="1124" height="1110" viewBox="0 0 1124 1110" fill="none" xmlns="http://www.w3.org/2000/svg">
<path fill-rule="evenodd" clip-rule="evenodd" d="M713.235 169.654C797.469 219.303 739.201 354.736 771.11 447.668C810.121 561.285 981.504 659.82 916.583 761.891C851.088 864.865 687.095 748.484 567.461 767.851C470.21 783.595 383.477 910.922 298.553 861.941C213.81 813.063 259.488 680.247 246.275 582.6C235.456 502.644 187.917 419.909 229.309 350.212C270.764 280.41 366.007 281.764 441.716 253.516C534.038 219.07 628.955 119.977 713.235 169.654Z" stroke="#185C96" stroke-width="26"/>
<path d="M591.322 897.113C605.809 906.703 603.986 928.512 588.108 935.564L539.916 956.967C524.636 963.753 507.67 951.689 509.063 935.028L513.285 884.518C514.678 867.857 533.411 858.777 547.352 868.006L591.322 897.113Z" fill="#185C96"/>
<path d="M587.67 891.996C603.028 901.449 601.114 924.35 584.4 931.122L529.166 953.501C513.966 959.659 497.615 947.621 498.981 931.278L503.463 877.66C504.829 861.318 522.952 852.161 536.918 860.758L587.67 891.996Z" fill="#04121E"/>
<path d="M126.562 416.719C184.513 453.696 265.866 431.639 316.129 368.158C323.144 359.299 320.51 346.573 311.212 340.152L272.447 313.383C262.657 306.622 249.373 309.525 241.767 318.674C215.501 350.27 193.968 346.799 177.953 341.819C152.082 333.775 141.864 307.152 160.648 267.333C165.718 256.585 162.743 243.328 152.509 237.287L118.217 217.046C108.474 211.294 95.8024 214.261 90.7186 224.369C54.3436 296.692 68.6194 379.747 126.562 416.719Z" fill="#042C4D"/>
<mask id="mask0_348_563" style="mask-type:alpha" maskUnits="userSpaceOnUse" x="190" y="153" width="728" height="719">
<path fill-rule="evenodd" clip-rule="evenodd" d="M694.625 167.684C779.887 217.95 721.825 353.505 754.523 446.91C794.5 561.107 967.962 660.886 903.007 762.937C837.477 865.89 671.376 748.247 550.768 767.03C452.725 782.299 365.897 909.57 279.943 859.971C194.171 810.478 239.544 677.478 225.684 579.444C214.335 499.17 165.92 415.911 207.309 346.212C248.761 276.408 344.87 278.281 421.109 250.351C514.079 216.292 609.316 117.392 694.625 167.684Z" fill="#C4C4C4"/>
</mask>
<g mask="url(#mask0_348_563)">
<path fill-rule="evenodd" clip-rule="evenodd" d="M694.625 167.684C779.887 217.95 721.825 353.505 754.523 446.91C794.5 561.107 967.962 660.886 903.007 762.937C837.477 865.89 671.376 748.247 550.768 767.03C452.725 782.299 365.897 909.57 279.943 859.971C194.171 810.478 239.544 677.478 225.684 579.444C214.335 499.17 165.92 415.911 207.309 346.212C248.761 276.408 344.87 278.281 421.109 250.351C514.079 216.292 609.316 117.392 694.625 167.684Z" fill="#04121E"/>
<path d="M558.252 805.544C681.008 805.544 780.522 706.03 780.522 583.274C780.522 460.517 681.008 361.004 558.252 361.004C435.495 361.004 335.982 460.517 335.982 583.274C335.982 706.03 435.495 805.544 558.252 805.544Z" fill="#020406"/>
<mask id="mask1_348_563" style="mask-type:luminance" maskUnits="userSpaceOnUse" x="335" y="361" width="446" height="445">
<path d="M558.252 805.544C681.008 805.544 780.522 706.03 780.522 583.274C780.522 460.517 681.008 361.004 558.252 361.004C435.495 361.004 335.982 460.517 335.982 583.274C335.982 706.03 435.495 805.544 558.252 805.544Z" fill="white"/>
</mask>
<g mask="url(#mask1_348_563)">
<path d="M785.342 699.994H331.142V807.644H785.342V699.994Z" fill="#AAD0FF"/>
<path opacity="0.2" d="M785.342 699.274H331.142V806.924H785.342V699.274Z" fill="#231F20"/>
</g>
<path d="M295.432 610.674C374.033 610.674 437.752 546.955 437.752 468.354C437.752 389.753 374.033 326.034 295.432 326.034C216.83 326.034 153.112 389.753 153.112 468.354C153.112 546.955 216.83 610.674 295.432 610.674Z" fill="#1E487B"/>
<path opacity="0.2" d="M295.432 610.674C374.033 610.674 437.752 546.955 437.752 468.354C437.752 389.753 374.033 326.034 295.432 326.034C216.83 326.034 153.112 389.753 153.112 468.354C153.112 546.955 216.83 610.674 295.432 610.674Z" fill="#231F20"/>
<path d="M574.062 673.814L586.662 718.194L499.032 700.974L500.872 673.814H574.062Z" fill="#04121E"/>
<path d="M535.302 523.494C549.644 523.494 561.272 508.477 561.272 489.954C561.272 471.43 549.644 456.414 535.302 456.414C520.959 456.414 509.332 471.43 509.332 489.954C509.332 508.477 520.959 523.494 535.302 523.494Z" fill="#FF8C4D"/>
<path d="M483.042 581.254L500.872 662.124L540.232 689.184C525.472 697.184 517.172 723.004 517.172 723.004L487.042 707.124C451.372 681.294 440.502 632.504 440.502 632.504C431.692 593.504 440.502 574.504 440.502 574.504C452.802 536.574 498.112 529.404 498.112 529.404L540.232 533.294C583.892 544.664 594.712 577.874 594.712 577.874L638.372 667.354C627.302 666.124 615.622 683.354 615.622 683.354L572.572 634.764L574.112 673.824C574.112 673.824 547.782 683.604 522.352 676.824L495.712 660.384L483.042 581.254Z" fill="#7E1113"/>
<path opacity="0.2" d="M514.102 550.774C514.102 550.774 501.432 565.424 482.102 556.454C476.372 553.794 471.912 547.964 469.542 542.114C469.322 541.574 469.122 541.024 468.932 540.454C468.932 540.454 484.152 531.454 498.092 529.394C498.112 529.394 496.712 546.114 514.102 550.774Z" fill="white"/>
<path opacity="0.2" d="M516.712 551.534C516.712 551.534 526.552 566.704 548.072 560.754C548.072 560.754 561.072 557.314 565.072 544.374C557.119 539.275 548.378 535.528 539.202 533.284L538.262 533.204C538.262 533.204 534.282 552.254 516.712 551.534Z" fill="white"/>
<path opacity="0.2" d="M568.622 582.074C569.102 586.454 569.492 590.844 569.872 595.224C570.252 599.604 570.572 604.004 570.932 608.394C571.292 612.784 571.552 617.174 571.822 621.564L572.212 628.164C572.312 630.364 572.442 632.554 572.522 634.754C572.272 632.574 572.082 630.374 571.862 628.184L571.272 621.604C570.892 617.224 570.572 612.834 570.212 608.444C569.852 604.054 569.592 599.664 569.322 595.264C569.052 590.864 568.802 586.474 568.622 582.074Z" fill="#231F20"/>
<path opacity="0.2" d="M500.052 661.704C498.375 662.134 496.726 662.661 495.112 663.284L493.932 663.764L492.782 664.334C492.023 664.712 491.288 665.136 490.582 665.604C489.137 666.516 487.796 667.583 486.582 668.784C485.351 669.995 484.254 671.337 483.312 672.784C483.87 671.096 484.754 669.533 485.912 668.184C487.054 666.801 488.403 665.603 489.912 664.634C491.417 663.663 493.058 662.922 494.782 662.434C495.633 662.182 496.502 661.995 497.382 661.874C498.302 661.774 499.182 661.724 500.052 661.704Z" fill="#231F20"/>
<path d="M629.462 750.374L669.382 667.244L751.472 631.074L712.732 708.074L629.462 750.374Z" fill="#04121E"/>
<path opacity="0.2" d="M629.462 750.374L669.382 667.244L751.472 631.074L712.732 708.074L629.462 750.374Z" fill="black"/>
<path d="M629.462 750.374L540.912 725.774L642.422 677.194L662.412 683.624L629.462 750.374Z" fill="#04121E"/>
<path d="M442.332 660.104L443.992 653.234L446.042 652.214L451.982 656.664L442.332 660.104Z" fill="#04121E"/>
<path d="M444.302 650.104L443.992 653.234L446.042 652.214L444.302 650.104Z" fill="#04121E"/>
<path opacity="0.2" d="M444.302 650.104L443.992 653.234L446.042 652.214L444.302 650.104Z" fill="black"/>
<path d="M523.642 403.894C549.511 403.894 570.482 382.923 570.482 357.054C570.482 331.185 549.511 310.214 523.642 310.214C497.773 310.214 476.802 331.185 476.802 357.054C476.802 382.923 497.773 403.894 523.642 403.894Z" fill="#04121E"/>
<path d="M541.142 383.454L518.352 357.374L522.582 333.844L524.702 334.224L520.652 356.734L542.762 382.034L541.142 383.454Z" fill="white"/>
<path d="M272.101 498.854C260.101 442.274 316.541 432.744 316.541 432.744L345.941 433.984C345.941 433.984 383.111 445.024 383.711 477.634L369.261 562.134C369.261 562.134 368.341 570.804 354.501 569.574L352.711 579.104C352.711 579.104 307.921 586.584 264.771 562.104L279.221 510.504L272.101 498.854Z" fill="#7E1113"/>
<path opacity="0.2" d="M356.362 477.634C356.205 477.808 356.086 478.012 356.012 478.234C355.912 478.454 355.822 478.674 355.742 478.894L355.232 480.214L354.232 482.884L352.232 488.214C350.932 491.764 349.572 495.294 348.232 498.824C346.892 502.354 345.452 505.824 343.982 509.354C342.512 512.884 341.032 516.354 339.402 519.764C340.472 516.114 341.682 512.524 342.942 508.954C344.202 505.384 345.532 501.834 346.942 498.304C348.352 494.774 349.752 491.304 351.272 487.794C352.022 486.054 352.802 484.334 353.612 482.614C354.022 481.754 354.432 480.904 354.872 480.054C355.092 479.634 355.312 479.214 355.552 478.804C355.662 478.594 355.782 478.384 355.912 478.184C356.024 477.973 356.177 477.786 356.362 477.634Z" fill="black"/>
<path d="M354.511 569.574L303.781 531.574C303.781 531.574 317.001 528.654 326.531 511.134L372.311 544.354L369.311 562.114C369.311 562.114 367.531 570.804 354.511 569.574Z" fill="#7E1113"/>
<path d="M302.551 523.244C302.551 523.244 298.861 530.724 303.781 531.594C303.781 531.594 317.921 527.754 326.531 511.154L322.631 506.094L302.551 523.244Z" fill="#7E1113"/>
<path opacity="0.2" d="M302.551 523.244C302.551 523.244 298.861 530.724 303.781 531.594C303.781 531.594 317.921 527.754 326.531 511.154L322.631 506.094L302.551 523.244Z" fill="black"/>
<path d="M288.991 488.114L289.711 464.024C289.735 463.132 289.576 462.245 289.243 461.417C288.91 460.589 288.411 459.838 287.777 459.211C287.142 458.584 286.385 458.094 285.554 457.771C284.722 457.448 283.833 457.299 282.941 457.334L264.711 458.024C263.309 458.076 261.978 458.661 260.991 459.658C260.003 460.655 259.431 461.991 259.391 463.394L258.391 499.314C258.346 501.126 259.006 502.884 260.231 504.22C261.457 505.555 263.152 506.363 264.961 506.474L287.871 507.744L288.991 488.114Z" fill="white"/>
<path d="M228.131 522.224L272.321 535.024L279.181 510.534L264.711 500.084L238.281 493.024C238.281 493.024 244.841 514.634 228.131 522.224Z" fill="#7E1113"/>
<path d="M224.591 509.704C224.041 514.704 224.171 521.074 228.131 522.224C228.131 522.224 244.131 516.994 238.281 493.004C238.281 493.004 235.281 492.204 230.991 496.274C227.353 499.864 225.089 504.616 224.591 509.704Z" fill="#7E1113"/>
<path opacity="0.2" d="M224.591 509.704C224.041 514.704 224.171 521.074 228.131 522.224C228.131 522.224 244.131 516.994 238.281 493.004C238.281 493.004 235.281 492.204 230.991 496.274C227.353 499.864 225.089 504.616 224.591 509.704Z" fill="black"/>
<path d="M238.712 509.614L202.312 495.934C202.312 495.934 174.632 492.084 168.792 485.024C168.792 485.024 163.872 484.074 165.712 482.554C165.712 482.554 162.642 479.794 167.562 479.484L182.012 480.714C182.012 480.714 176.782 477.954 182.012 475.184L195.852 477.644C195.852 477.644 209.992 479.484 215.222 485.334L238.282 493.024C239.818 498.429 239.966 504.135 238.712 509.614Z" fill="#FF8C4D"/>
<path d="M267.801 287.304H150.031V429.054H267.801V287.304Z" fill="#04121E"/>
<path d="M255.812 305.754H163.562V382.834H255.812V305.754Z" fill="white"/>
<path d="M249.802 397.924H184.332C181.012 397.924 178.322 400.614 178.322 403.934V405.314C178.322 408.633 181.012 411.324 184.332 411.324H249.802C253.121 411.324 255.812 408.633 255.812 405.314V403.934C255.812 400.614 253.121 397.924 249.802 397.924Z" fill="white"/>
<path d="M269.711 608.354L274.021 566.574C274.021 566.574 308.211 582.354 352.711 579.104V598.704C352.711 598.704 334.131 608.464 306.411 610.264L306.811 593.484C306.815 593.333 306.784 593.183 306.721 593.046C306.658 592.908 306.565 592.787 306.449 592.691C306.332 592.594 306.196 592.526 306.049 592.49C305.902 592.454 305.749 592.452 305.601 592.484C305.392 592.533 305.205 592.648 305.066 592.811C304.927 592.975 304.845 593.179 304.831 593.394L303.831 610.274C303.831 610.274 284.711 612.024 269.711 608.354Z" fill="#04121E"/>
<path d="M185.711 382.824C185.711 382.824 192.711 367.454 212.971 368.684C217.682 369.121 222.232 370.621 226.28 373.07C230.328 375.519 233.768 378.854 236.341 382.824H185.711Z" fill="#7E1113"/>
<path d="M517.172 723.024C517.172 723.024 544.022 737.884 580.102 730.714C580.102 730.714 596.102 729.284 597.532 725.594C597.532 725.594 601.222 720.264 578.672 718.824C578.672 718.824 583.382 712.474 591.382 716.574C591.382 716.574 607.572 722.104 611.472 718.214C611.472 718.214 621.472 722.104 622.952 719.444C622.952 719.444 624.382 717.704 622.132 715.194C622.132 715.194 626.212 715.464 626.132 712.644C626.111 712.244 626.004 711.854 625.817 711.5C625.631 711.146 625.37 710.837 625.052 710.594C620.382 706.784 594.772 688.034 559.812 702.834L540.232 689.204C540.232 689.204 525.782 695.024 517.172 723.024Z" fill="#FF8C4D"/>
<path d="M615.572 683.344C615.572 683.344 619.572 690.724 624.792 685.494L628.482 679.964L624.022 694.714C623.788 695.446 623.733 696.223 623.859 696.98C623.985 697.738 624.29 698.455 624.748 699.072C625.207 699.688 625.805 700.187 626.494 700.526C627.184 700.866 627.944 701.036 628.712 701.024C629.663 701.023 630.592 700.743 631.385 700.219C632.178 699.694 632.799 698.948 633.172 698.074L638.372 685.854L645.052 696.354C645.59 697.191 646.411 697.808 647.365 698.091C648.32 698.373 649.344 698.303 650.252 697.894C651.202 697.463 651.954 696.688 652.357 695.725C652.76 694.762 652.783 693.683 652.422 692.704L647.292 678.784L658.592 685.164C658.937 685.36 659.321 685.477 659.716 685.507C660.112 685.536 660.509 685.478 660.88 685.335C661.25 685.193 661.584 684.97 661.857 684.682C662.131 684.395 662.337 684.05 662.462 683.674C662.62 683.205 662.645 682.701 662.534 682.219C662.422 681.737 662.179 681.296 661.832 680.944C659.212 678.294 652.312 672.184 643.902 671.704L638.372 667.404C638.372 667.404 627.872 664.894 615.572 683.344Z" fill="#FF8C4D"/>
<path d="M941.152 334.034H833.532V451.694H941.152V334.034Z" fill="#04121E"/>
<path opacity="0.1" d="M941.152 334.034H833.532V451.694H941.152V334.034Z" fill="black"/>
<path d="M833.532 334.034H722.442V569.454H833.532V334.034Z" fill="#04121E"/>
<path d="M941.162 316.564H615.572V334.044H941.162V316.564Z" fill="#04121E"/>
<path d="M723.192 334.034H615.572V451.694H723.192V334.034Z" fill="#04121E"/>
<path opacity="0.1" d="M723.192 334.034H615.572V451.694H723.192V334.034Z" fill="black"/>
<path d="M723.192 451.704H615.572V569.454H654.852L672.272 607.314C672.516 607.803 672.889 608.216 673.352 608.508C673.814 608.801 674.347 608.961 674.894 608.973C675.44 608.984 675.98 608.846 676.453 608.573C676.927 608.3 677.317 607.902 677.582 607.424L697.072 569.424H723.192V451.704Z" fill="#04121E"/>
<path opacity="0.2" d="M723.192 451.704H615.572V569.454H654.852L672.272 607.314C672.516 607.803 672.889 608.216 673.352 608.508C673.814 608.801 674.347 608.961 674.894 608.973C675.44 608.984 675.98 608.846 676.453 608.573C676.927 608.3 677.317 607.902 677.582 607.424L697.072 569.424H723.192V451.704Z" fill="white"/>
<path d="M941.152 451.704H833.532V569.454H941.152V451.704Z" fill="#04121E"/>
<path opacity="0.2" d="M941.152 451.704H833.532V569.454H941.152V451.704Z" fill="white"/>
<path d="M818.942 346.744H738.132V413.164H818.942V346.744Z" fill="white"/>
<path d="M710.282 465.184H629.472V531.604H710.282V465.184Z" fill="white"/>
<path d="M927.752 465.184H846.942V531.604H927.752V465.184Z" fill="white"/>
<path d="M921.772 542.644H865.862C863.017 542.644 860.712 544.95 860.712 547.794V548.974C860.712 551.818 863.017 554.124 865.862 554.124H921.772C924.616 554.124 926.922 551.818 926.922 548.974V547.794C926.922 544.95 924.616 542.644 921.772 542.644Z" fill="white"/>
<path d="M847.762 543.324V553.454C847.761 553.518 847.778 553.581 847.811 553.636C847.844 553.691 847.892 553.736 847.948 553.766C848.005 553.796 848.069 553.81 848.133 553.806C848.197 553.802 848.259 553.78 848.312 553.744L855.582 548.674C855.627 548.641 855.664 548.599 855.69 548.549C855.715 548.499 855.729 548.444 855.729 548.389C855.729 548.333 855.715 548.278 855.69 548.228C855.664 548.179 855.627 548.136 855.582 548.104L848.312 543.024C848.258 542.986 848.196 542.965 848.131 542.961C848.066 542.958 848.001 542.972 847.944 543.003C847.887 543.035 847.839 543.081 847.807 543.138C847.775 543.194 847.759 543.259 847.762 543.324Z" fill="white"/>
<path d="M703.092 542.644H647.182C644.337 542.644 642.032 544.95 642.032 547.794V548.974C642.032 551.818 644.337 554.124 647.182 554.124H703.092C705.936 554.124 708.242 551.818 708.242 548.974V547.794C708.242 544.95 705.936 542.644 703.092 542.644Z" fill="white"/>
<path d="M629.082 543.324V553.454C629.081 553.518 629.098 553.581 629.131 553.636C629.164 553.691 629.212 553.736 629.269 553.766C629.325 553.796 629.389 553.81 629.453 553.806C629.517 553.802 629.579 553.78 629.632 553.744L636.902 548.674C636.947 548.641 636.984 548.599 637.01 548.549C637.035 548.499 637.049 548.444 637.049 548.389C637.049 548.333 637.035 548.278 637.01 548.228C636.984 548.179 636.947 548.136 636.902 548.104L629.632 543.024C629.578 542.986 629.516 542.965 629.451 542.961C629.386 542.958 629.321 542.972 629.264 543.003C629.207 543.035 629.159 543.081 629.127 543.138C629.095 543.194 629.079 543.259 629.082 543.324Z" fill="white"/>
<path d="M818.822 425.064H737.952V426.494H818.822V425.064Z" fill="white"/>
<path d="M818.822 436.944H737.952V438.374H818.822V436.944Z" fill="white"/>
<path d="M818.822 448.104H737.952V449.534H818.822V448.104Z" fill="white"/>
<path d="M818.822 459.974H737.952V461.404H818.822V459.974Z" fill="white"/>
<path d="M818.792 506.374H737.922V507.804H818.792V506.374Z" fill="white"/>
<path d="M818.792 518.254H737.922V519.684H818.792V518.254Z" fill="white"/>
<path d="M818.792 529.404H737.922V530.834H818.792V529.404Z" fill="white"/>
<path d="M818.792 541.284H737.922V542.714H818.792V541.284Z" fill="white"/>
<path d="M818.972 553.094H738.102V554.524H818.972V553.094Z" fill="white"/>
<path d="M818.792 471.854H737.922V473.284H818.792V471.854Z" fill="white"/>
<path d="M743.792 494.754C746.509 494.754 748.712 492.551 748.712 489.834C748.712 487.117 746.509 484.914 743.792 484.914C741.074 484.914 738.872 487.117 738.872 489.834C738.872 492.551 741.074 494.754 743.792 494.754Z" fill="white"/>
<path d="M760.602 494.754C763.319 494.754 765.522 492.551 765.522 489.834C765.522 487.117 763.319 484.914 760.602 484.914C757.884 484.914 755.682 487.117 755.682 489.834C755.682 492.551 757.884 494.754 760.602 494.754Z" fill="white"/>
<path d="M778.532 494.754C781.249 494.754 783.452 492.551 783.452 489.834C783.452 487.117 781.249 484.914 778.532 484.914C775.815 484.914 773.612 487.117 773.612 489.834C773.612 492.551 775.815 494.754 778.532 494.754Z" fill="white"/>
<path d="M795.342 494.754C798.059 494.754 800.262 492.551 800.262 489.834C800.262 487.117 798.059 484.914 795.342 484.914C792.624 484.914 790.422 487.117 790.422 489.834C790.422 492.551 792.624 494.754 795.342 494.754Z" fill="white"/>
<path d="M813.792 494.284C816.509 494.284 818.712 492.081 818.712 489.364C818.712 486.646 816.509 484.444 813.792 484.444C811.074 484.444 808.872 486.646 808.872 489.364C808.872 492.081 811.074 494.284 813.792 494.284Z" fill="white"/>
<path opacity="0.1" d="M625.742 328.504C627.509 328.504 628.941 327.071 628.941 325.304C628.941 323.536 627.509 322.104 625.742 322.104C623.974 322.104 622.542 323.536 622.542 325.304C622.542 327.071 623.974 328.504 625.742 328.504Z" fill="white"/>
<path d="M637.832 328.504C639.599 328.504 641.032 327.071 641.032 325.304C641.032 323.536 639.599 322.104 637.832 322.104C636.064 322.104 634.632 323.536 634.632 325.304C634.632 327.071 636.064 328.504 637.832 328.504Z" fill="#7E1113"/>
<path d="M649.312 328.504C651.079 328.504 652.512 327.071 652.512 325.304C652.512 323.536 651.079 322.104 649.312 322.104C647.544 322.104 646.112 323.536 646.112 325.304C646.112 327.071 647.544 328.504 649.312 328.504Z" fill="#AAD0FF"/>
<path d="M683.642 500.189C685.051 490.41 679.573 481.528 671.407 480.351C663.24 479.174 655.477 486.148 654.068 495.927C652.659 505.707 658.137 514.589 666.303 515.765C674.47 516.942 682.233 509.969 683.642 500.189Z" fill="#CB5514"/>
<path d="M653.872 503.534C655.716 503.534 657.212 502.038 657.212 500.194C657.212 498.349 655.716 496.854 653.872 496.854C652.027 496.854 650.532 498.349 650.532 500.194C650.532 502.038 652.027 503.534 653.872 503.534Z" fill="#CB5514"/>
<path d="M659.522 510.704H676.042V524.184C676.042 526.149 675.261 528.034 673.871 529.423C672.482 530.813 670.597 531.594 668.632 531.594H666.942C664.976 531.594 663.092 530.813 661.702 529.423C660.312 528.034 659.532 526.149 659.532 524.184V510.704H659.522Z" fill="#CB5514"/>
<path d="M653.872 496.854C653.872 496.854 650.412 479.784 664.352 478.144C664.352 478.144 685.262 473.674 685.472 497.594C685.472 497.594 683.792 496.524 682.852 497.094C682.852 497.094 683.052 487.784 675.142 483.164C675.142 483.164 661.812 477.764 655.972 497.594L653.872 496.854Z" fill="#04121E"/>
<path d="M673.222 484.904C677.38 484.904 680.752 482.477 680.752 479.484C680.752 476.49 677.38 474.064 673.222 474.064C669.063 474.064 665.692 476.49 665.692 479.484C665.692 482.477 669.063 484.904 673.222 484.904Z" fill="#04121E"/>
<path d="M693.462 531.594H645.292L660.052 522.594C660.052 522.594 665.982 527.594 675.142 523.394L693.462 531.594Z" fill="#7E1113"/>
<path d="M770.102 391.234H786.622V400.344C786.622 402.309 785.841 404.194 784.451 405.583C783.062 406.973 781.177 407.754 779.212 407.754H777.512C775.546 407.754 773.662 406.973 772.272 405.583C770.882 404.194 770.102 402.309 770.102 400.344V391.234Z" fill="#FF8C4D"/>
<path d="M778.902 397.124C785.921 397.124 791.612 389.53 791.612 380.164C791.612 370.797 785.921 363.204 778.902 363.204C771.882 363.204 766.192 370.797 766.192 380.164C766.192 389.53 771.882 397.124 778.902 397.124Z" fill="#FF8C4D"/>
<path d="M765.362 374.904C765.362 374.904 766.632 362.064 775.562 361.694C775.562 361.694 789.792 357.294 792.452 374.904C792.452 374.904 782.252 374.414 778.902 368.054C778.902 368.024 770.772 376.914 765.362 374.904Z" fill="#3F3D56"/>
<path d="M778.452 363.844C781.302 363.844 783.612 361.533 783.612 358.684C783.612 355.834 781.302 353.524 778.452 353.524C775.602 353.524 773.292 355.834 773.292 358.684C773.292 361.533 775.602 363.844 778.452 363.844Z" fill="#3F3D56"/>
<path d="M765.782 383.224C767.797 383.224 769.432 381.59 769.432 379.574C769.432 377.558 767.797 375.924 765.782 375.924C763.766 375.924 762.132 377.558 762.132 379.574C762.132 381.59 763.766 383.224 765.782 383.224Z" fill="#FF8C4D"/>
<path d="M792.452 383.604C794.468 383.604 796.102 381.97 796.102 379.954C796.102 377.938 794.468 376.304 792.452 376.304C790.436 376.304 788.802 377.938 788.802 379.954C788.802 381.97 790.436 383.604 792.452 383.604Z" fill="#FF8C4D"/>
<path d="M752.712 413.164L770.112 401.684C770.112 401.684 777.542 408.144 786.502 401.684L803.962 413.164H752.712Z" fill="#7E1113"/>
<path d="M879.112 509.514H895.632V518.624C895.632 520.589 894.851 522.474 893.461 523.863C892.072 525.253 890.187 526.034 888.222 526.034H886.532C884.567 526.034 882.682 525.253 881.292 523.863C879.902 522.474 879.122 520.589 879.122 518.624V509.514H879.112Z" fill="#FF8C4D"/>
<path d="M887.922 515.404C894.941 515.404 900.632 507.81 900.632 498.444C900.632 489.077 894.941 481.484 887.922 481.484C880.902 481.484 875.212 489.077 875.212 498.444C875.212 507.81 880.902 515.404 887.922 515.404Z" fill="#FF8C4D"/>
<path d="M874.372 493.184C874.372 493.184 875.642 480.344 884.572 479.974C884.572 479.974 898.802 475.574 901.462 493.184C901.462 493.184 891.262 492.704 887.922 486.344C887.922 486.344 879.792 495.194 874.372 493.184Z" fill="#3F3D56"/>
<path d="M887.462 482.134C890.312 482.134 892.622 479.824 892.622 476.974C892.622 474.124 890.312 471.814 887.462 471.814C884.612 471.814 882.302 474.124 882.302 476.974C882.302 479.824 884.612 482.134 887.462 482.134Z" fill="#3F3D56"/>
<path d="M874.792 501.504C876.807 501.504 878.442 499.869 878.442 497.854C878.442 495.838 876.807 494.204 874.792 494.204C872.776 494.204 871.142 495.838 871.142 497.854C871.142 499.869 872.776 501.504 874.792 501.504Z" fill="#FF8C4D"/>
<path d="M901.462 501.894C903.477 501.894 905.112 500.26 905.112 498.244C905.112 496.228 903.477 494.594 901.462 494.594C899.446 494.594 897.812 496.228 897.812 498.244C897.812 500.26 899.446 501.894 901.462 501.894Z" fill="#FF8C4D"/>
<path d="M861.712 531.454L879.112 520.024C879.112 520.024 886.552 526.474 895.502 520.024L912.962 531.504L861.712 531.454Z" fill="#7E1113"/>
<path d="M710.282 346.744H629.472V413.164H710.282V346.744Z" fill="white"/>
<path d="M703.482 425.464H647.572C644.727 425.464 642.422 427.769 642.422 430.614V431.794C642.422 434.638 644.727 436.944 647.572 436.944H703.482C706.326 436.944 708.632 434.638 708.632 431.794V430.614C708.632 427.769 706.326 425.464 703.482 425.464Z" fill="white"/>
<path d="M629.472 426.134V436.274C629.469 436.339 629.485 436.403 629.518 436.459C629.551 436.515 629.599 436.56 629.657 436.59C629.715 436.619 629.78 436.631 629.845 436.625C629.909 436.619 629.971 436.594 630.022 436.554L637.292 431.494C637.337 431.46 637.374 431.417 637.4 431.366C637.425 431.316 637.438 431.26 637.438 431.204C637.438 431.147 637.425 431.092 637.4 431.041C637.374 430.991 637.337 430.947 637.292 430.914L630.022 425.844C629.969 425.807 629.907 425.786 629.843 425.782C629.779 425.778 629.715 425.791 629.658 425.821C629.602 425.851 629.554 425.896 629.521 425.951C629.488 426.007 629.471 426.07 629.472 426.134Z" fill="white"/>
<path d="M645.882 413.164C645.882 413.164 652.372 398.844 671.282 399.984C675.67 400.395 679.908 401.794 683.679 404.076C687.449 406.359 690.653 409.466 693.052 413.164H645.882Z" fill="#7E1113"/>
<path d="M669.762 397.104C676.781 397.104 682.472 390.092 682.472 381.444C682.472 372.795 676.781 365.784 669.762 365.784C662.742 365.784 657.052 372.795 657.052 381.444C657.052 390.092 662.742 397.104 669.762 397.104Z" fill="#6D2700"/>
<path d="M655.182 384.474C657.026 384.474 658.522 382.978 658.522 381.134C658.522 379.289 657.026 377.794 655.182 377.794C653.337 377.794 651.842 379.289 651.842 381.134C651.842 382.978 653.337 384.474 655.182 384.474Z" fill="#6D2700"/>
<path d="M684.212 384.474C686.056 384.474 687.552 382.978 687.552 381.134C687.552 379.289 686.056 377.794 684.212 377.794C682.367 377.794 680.872 379.289 680.872 381.134C680.872 382.978 682.367 384.474 684.212 384.474Z" fill="#6D2700"/>
<path d="M661.292 391.444H677.812V400.554C677.812 402.519 677.031 404.404 675.641 405.794C674.252 407.183 672.367 407.964 670.402 407.964H668.712C666.746 407.964 664.862 407.183 663.472 405.794C662.082 404.404 661.302 402.519 661.302 400.554V391.444H661.292Z" fill="#6D2700"/>
<path d="M652.912 378.694C652.912 378.694 647.492 368.124 657.052 367.194C657.052 367.194 655.372 359.934 663.782 358.194C665.499 357.977 667.243 358.101 668.913 358.559C670.582 359.017 672.145 359.8 673.512 360.864C673.512 360.864 684.212 359.864 684.212 370.984C684.212 370.984 687.552 374.424 684.212 377.764C683.621 377.887 683.04 378.05 682.472 378.254C682.472 378.254 680.162 366.184 669.762 365.754C669.762 365.754 660.562 364.894 657.272 378.504C657.272 378.534 654.912 376.844 652.912 378.694Z" fill="#04121E"/>
<path d="M659.112 377.134C660.807 377.134 662.182 375.759 662.182 374.064C662.182 372.368 660.807 370.994 659.112 370.994C657.416 370.994 656.042 372.368 656.042 374.064C656.042 375.759 657.416 377.134 659.112 377.134Z" fill="#04121E"/>
<path d="M662.312 372.934C664.007 372.934 665.382 371.559 665.382 369.864C665.382 368.168 664.007 366.794 662.312 366.794C660.616 366.794 659.242 368.168 659.242 369.864C659.242 371.559 660.616 372.934 662.312 372.934Z" fill="#04121E"/>
<path d="M666.932 370.264C668.627 370.264 670.002 368.889 670.002 367.194C670.002 365.498 668.627 364.124 666.932 364.124C665.236 364.124 663.862 365.498 663.862 367.194C663.862 368.889 665.236 370.264 666.932 370.264Z" fill="#04121E"/>
<path d="M671.612 370.264C673.307 370.264 674.682 368.889 674.682 367.194C674.682 365.498 673.307 364.124 671.612 364.124C669.916 364.124 668.542 365.498 668.542 367.194C668.542 368.889 669.916 370.264 671.612 370.264Z" fill="#04121E"/>
<path d="M675.082 371.464C676.777 371.464 678.152 370.089 678.152 368.394C678.152 366.698 676.777 365.324 675.082 365.324C673.386 365.324 672.012 366.698 672.012 368.394C672.012 370.089 673.386 371.464 675.082 371.464Z" fill="#04121E"/>
<path d="M677.812 373.044C679.507 373.044 680.882 371.669 680.882 369.974C680.882 368.278 679.507 366.904 677.812 366.904C676.116 366.904 674.742 368.278 674.742 369.974C674.742 371.669 676.116 373.044 677.812 373.044Z" fill="#3F3D56"/>
<path d="M679.392 376.124C681.087 376.124 682.462 374.749 682.462 373.054C682.462 371.358 681.087 369.984 679.392 369.984C677.696 369.984 676.322 371.358 676.322 373.054C676.322 374.749 677.696 376.124 679.392 376.124Z" fill="#04121E"/>
<path d="M927.752 346.744H846.942V413.164H927.752V346.744Z" fill="white"/>
<path d="M920.952 425.464H865.042C862.197 425.464 859.892 427.769 859.892 430.614V431.794C859.892 434.638 862.197 436.944 865.042 436.944H920.952C923.796 436.944 926.102 434.638 926.102 431.794V430.614C926.102 427.769 923.796 425.464 920.952 425.464Z" fill="white"/>
<path d="M846.942 426.134V436.274C846.943 436.337 846.961 436.399 846.995 436.453C847.029 436.506 847.076 436.55 847.133 436.579C847.189 436.607 847.252 436.62 847.316 436.616C847.379 436.611 847.44 436.59 847.492 436.554L854.762 431.494C854.807 431.46 854.844 431.417 854.87 431.366C854.895 431.316 854.908 431.26 854.908 431.204C854.908 431.147 854.895 431.092 854.87 431.041C854.844 430.991 854.807 430.947 854.762 430.914L847.492 425.844C847.439 425.807 847.377 425.786 847.313 425.782C847.249 425.778 847.185 425.791 847.128 425.821C847.072 425.851 847.024 425.896 846.991 425.951C846.958 426.007 846.941 426.07 846.942 426.134Z" fill="white"/>
<path d="M863.352 413.164C863.352 413.164 869.852 398.844 888.752 399.984C893.14 400.395 897.378 401.794 901.148 404.076C904.919 406.359 908.123 409.466 910.522 413.164H863.352Z" fill="#7E1113"/>
<path d="M887.232 397.104C894.251 397.104 899.942 390.092 899.942 381.444C899.942 372.795 894.251 365.784 887.232 365.784C880.212 365.784 874.522 372.795 874.522 381.444C874.522 390.092 880.212 397.104 887.232 397.104Z" fill="#FF8C4D"/>
<path d="M872.652 384.474C874.496 384.474 875.992 382.978 875.992 381.134C875.992 379.289 874.496 377.794 872.652 377.794C870.807 377.794 869.312 379.289 869.312 381.134C869.312 382.978 870.807 384.474 872.652 384.474Z" fill="#FF8C4D"/>
<path d="M901.682 384.474C903.526 384.474 905.022 382.978 905.022 381.134C905.022 379.289 903.526 377.794 901.682 377.794C899.837 377.794 898.342 379.289 898.342 381.134C898.342 382.978 899.837 384.474 901.682 384.474Z" fill="#FF8C4D"/>
<path d="M878.772 391.444H895.292V400.554C895.292 402.519 894.511 404.404 893.121 405.794C891.732 407.183 889.847 407.964 887.882 407.964H886.192C884.226 407.964 882.342 407.183 880.952 405.794C879.562 404.404 878.782 402.519 878.782 400.554V391.444H878.772Z" fill="#FF8C4D"/>
<path d="M870.382 378.694C870.382 378.694 864.962 368.124 874.532 367.194C874.532 367.194 872.852 359.934 881.252 358.194C882.971 357.977 884.716 358.101 886.388 358.559C888.059 359.017 889.623 359.8 890.992 360.864C890.992 360.864 901.712 359.934 901.712 371.024C901.712 371.024 905.052 374.464 901.712 377.804C901.121 377.927 900.54 378.091 899.972 378.294C899.972 378.294 897.662 366.224 887.262 365.794C887.262 365.794 878.062 364.934 874.782 378.544C874.712 378.534 872.382 376.844 870.382 378.694Z" fill="#3F3D56"/>
<path d="M876.582 377.134C878.277 377.134 879.652 375.759 879.652 374.064C879.652 372.368 878.277 370.994 876.582 370.994C874.886 370.994 873.512 372.368 873.512 374.064C873.512 375.759 874.886 377.134 876.582 377.134Z" fill="#3F3D56"/>
<path d="M879.782 372.934C881.477 372.934 882.852 371.559 882.852 369.864C882.852 368.168 881.477 366.794 879.782 366.794C878.086 366.794 876.712 368.168 876.712 369.864C876.712 371.559 878.086 372.934 879.782 372.934Z" fill="#3F3D56"/>
<path d="M884.412 370.264C886.107 370.264 887.482 368.889 887.482 367.194C887.482 365.498 886.107 364.124 884.412 364.124C882.716 364.124 881.342 365.498 881.342 367.194C881.342 368.889 882.716 370.264 884.412 370.264Z" fill="#3F3D56"/>
<path d="M889.082 370.264C890.777 370.264 892.152 368.889 892.152 367.194C892.152 365.498 890.777 364.124 889.082 364.124C887.386 364.124 886.012 365.498 886.012 367.194C886.012 368.889 887.386 370.264 889.082 370.264Z" fill="#3F3D56"/>
<path d="M892.552 371.464C894.247 371.464 895.622 370.089 895.622 368.394C895.622 366.698 894.247 365.324 892.552 365.324C890.856 365.324 889.482 366.698 889.482 368.394C889.482 370.089 890.856 371.464 892.552 371.464Z" fill="#3F3D56"/>
<path d="M895.282 373.044C896.977 373.044 898.352 371.669 898.352 369.974C898.352 368.278 896.977 366.904 895.282 366.904C893.586 366.904 892.212 368.278 892.212 369.974C892.212 371.669 893.586 373.044 895.282 373.044Z" fill="#3F3D56"/>
<path d="M896.862 376.124C898.557 376.124 899.932 374.749 899.932 373.054C899.932 371.358 898.557 369.984 896.862 369.984C895.166 369.984 893.792 371.358 893.792 373.054C893.792 374.749 895.166 376.124 896.862 376.124Z" fill="#3F3D56"/>
<path d="M684.092 503.534C685.936 503.534 687.432 502.038 687.432 500.194C687.432 498.349 685.936 496.854 684.092 496.854C682.247 496.854 680.752 498.349 680.752 500.194C680.752 502.038 682.247 503.534 684.092 503.534Z" fill="#CB5514"/>
<path d="M545.462 461.544C545.462 461.544 528.862 488.024 505.082 477.124C505.082 477.124 505.692 438.784 540.132 441.454C540.132 441.454 572.012 450.704 562.882 476.534C562.703 477.002 562.355 477.386 561.907 477.61C561.459 477.834 560.943 477.882 560.462 477.744C557.192 476.744 550.192 473.284 545.462 461.544Z" fill="#04121E"/>
<path d="M495.652 484.704L477.462 497.634C477.081 497.929 476.764 498.298 476.529 498.718C476.294 499.139 476.146 499.603 476.095 500.082C476.044 500.561 476.09 501.045 476.23 501.506C476.37 501.967 476.602 502.394 476.912 502.764C480.792 507.344 490.142 516.274 501.802 515.664L507.332 495.364L495.652 484.704Z" fill="#04121E"/>
<path d="M506.712 497.624L498.102 529.394C498.102 529.394 496.872 548.454 517.782 551.534C517.782 551.534 539.022 553.944 540.902 522.704L523.712 503.774L512.062 493.774L507.312 493.084L506.712 497.624Z" fill="#FF8C4D"/>
<path d="M518.652 515.694C518.652 515.694 524.912 530.524 539.652 531.594C540.344 528.677 540.753 525.699 540.872 522.704C540.872 522.704 529.462 527.194 518.652 515.694Z" fill="#F4A48E"/>
<path d="M504.672 497.614C509.88 497.614 514.102 493.141 514.102 487.624C514.102 482.106 509.88 477.634 504.672 477.634C499.464 477.634 495.242 482.106 495.242 487.624C495.242 493.141 499.464 497.614 504.672 497.614Z" fill="#FF8C4D"/>
<path d="M316.542 427.514V433.294C316.54 435.284 316.932 437.256 317.694 439.095C318.457 440.933 319.575 442.604 320.984 444.009C322.394 445.415 324.067 446.529 325.908 447.286C327.749 448.044 329.721 448.43 331.712 448.424C335.676 448.424 339.483 446.869 342.312 444.092C345.142 441.315 346.768 437.538 346.842 433.574L347.332 406.294L342.572 405.374L316.542 427.514Z" fill="#FF8C4D"/>
<path d="M293.321 521.024L313.871 526.264C313.871 526.264 319.761 523.894 326.531 511.184L291.271 465.674C291.271 465.674 285.741 467.924 290.271 476.534C290.271 476.534 299.081 490.064 290.061 488.424C290.061 488.424 271.611 483.714 256.651 474.484C256.651 474.484 248.861 473.664 256.651 482.684C256.371 485.11 256.649 487.568 257.466 489.87C258.282 492.172 259.615 494.256 261.361 495.964C261.361 495.964 260.541 500.724 263.211 502.164C263.191 502.134 259.911 512.024 293.321 521.024Z" fill="#FF8C4D"/>
<path d="M201.711 357.204H219.441V371.284C219.441 373.405 218.599 375.44 217.098 376.94C215.598 378.441 213.563 379.284 211.441 379.284H209.651C207.53 379.284 205.495 378.441 203.995 376.94C202.494 375.44 201.651 373.405 201.651 371.284V357.204H201.711Z" fill="#E99C72"/>
<path d="M459.572 655.254H460.792C462.208 655.254 463.566 655.816 464.568 656.818C465.569 657.819 466.132 659.177 466.132 660.594V689.184H454.242V660.594C454.242 659.179 454.803 657.822 455.802 656.821C456.801 655.82 458.157 655.256 459.572 655.254Z" fill="#7E1113"/>
<path d="M477.812 626.204H463.262V689.184H477.812V626.204Z" fill="#04121E"/>
<path opacity="0.2" d="M477.812 626.204H463.262V689.184H477.812V626.204Z" fill="black"/>
<path d="M442.332 660.104L451.982 656.664L463.262 685.934V695.464H455.262L442.332 660.104Z" fill="#04121E"/>
<path opacity="0.2" d="M442.332 660.104L451.982 656.664L463.262 685.934V695.464H455.262L442.332 660.104Z" fill="black"/>
<path d="M440.302 685.804H483.352L473.102 736.234H452.192L440.302 685.804Z" fill="#04121E"/>
<path d="M316.542 431.404V427.514C316.542 427.514 324.862 435.194 336.702 424.984C336.712 425.024 328.002 439.864 316.542 431.404Z" fill="#F4A48E"/>
<path d="M347.24 400.285C348.894 382.418 340.641 367.045 328.807 365.949C316.972 364.854 306.037 378.45 304.383 396.317C302.729 414.184 310.981 429.557 322.816 430.653C334.65 431.748 345.585 418.152 347.24 400.285Z" fill="#FF8C4D"/>
<path d="M351.161 408.204C355.254 408.204 358.571 404.886 358.571 400.794C358.571 396.701 355.254 393.384 351.161 393.384C347.069 393.384 343.751 396.701 343.751 400.794C343.751 404.886 347.069 408.204 351.161 408.204Z" fill="#FF8C4D"/>
<path d="M357.591 369.554C367.431 383.394 354.591 394.244 354.591 394.244C353.479 393.661 352.238 393.369 350.982 393.395C349.727 393.421 348.498 393.765 347.411 394.394C334.901 398.784 336.751 385.904 336.751 385.904C319.941 384.674 316.901 369.904 316.901 369.904C315.101 371.283 313.516 372.925 312.201 374.774C312.201 374.774 310.461 360.774 319.901 358.424C321.833 357.972 323.858 358.136 325.691 358.894C327.601 359.674 330.191 360.464 332.241 363.354C332.271 363.354 348.051 354.644 357.591 369.554Z" fill="#04121E"/>
<path d="M201.711 357.204V363.274C201.711 363.274 208.161 367.344 214.451 362.664C214.431 362.664 205.071 361.134 201.711 357.204Z" fill="#F4A48E"/>
<path d="M195.132 349.724C197.114 349.724 198.722 348.116 198.722 346.134C198.722 344.151 197.114 342.544 195.132 342.544C193.149 342.544 191.542 344.151 191.542 346.134C191.542 348.116 193.149 349.724 195.132 349.724Z" fill="#FF8C4D"/>
<path d="M225.59 359.18C227.573 359.18 229.18 357.573 229.18 355.59C229.18 353.607 227.573 352 225.59 352C223.607 352 222 353.607 222 355.59C222 357.573 223.607 359.18 225.59 359.18Z" fill="#E99C72"/>
<path d="M191.643 354.081C191.643 354.081 185.823 342.741 196.093 341.741C196.093 341.741 194.293 333.951 203.313 332.111C205.158 331.878 207.03 332.012 208.824 332.505C210.617 332.997 212.295 333.839 213.763 334.981C213.763 334.981 225.243 333.981 225.243 345.841C225.243 345.841 228.833 349.531 225.243 353.121C224.607 353.251 223.982 353.428 223.373 353.651C223.373 353.651 220.893 340.651 209.733 340.231C209.733 340.231 199.853 339.301 196.333 353.911C196.313 353.911 193.773 352.101 191.643 354.081Z" fill="#3F3D56"/>
<path d="M210.781 373.274C218.315 373.274 224.421 365.748 224.421 356.464C224.421 347.18 218.315 339.654 210.781 339.654C203.248 339.654 197.141 347.18 197.141 356.464C197.141 365.748 203.248 373.274 210.781 373.274Z" fill="#E99C72"/>
</g>
</svg>
