<svg width="200" height="389" viewBox="0 0 200 389" fill="none" xmlns="http://www.w3.org/2000/svg">
<g clip-path="url(#clip0_319_566)">
<path fill-rule="evenodd" clip-rule="evenodd" d="M267.06 19.8838C309.701 45.0176 280.204 113.577 296.357 160.622C316.106 218.139 402.865 268.019 370 319.691C336.845 371.819 253.827 312.904 193.265 322.708C144.034 330.678 100.127 395.135 57.1361 370.339C14.2365 345.596 37.3602 278.36 30.6715 228.929C25.1945 188.452 1.1288 146.57 22.0829 111.287C43.0686 75.9513 91.283 76.6369 129.609 62.3371C176.345 44.8993 224.395 -5.26401 267.06 19.8838Z" stroke="#185C96" stroke-width="26"/>
<mask id="mask0_319_566" style="mask-type:alpha" maskUnits="userSpaceOnUse" x="2" y="11" width="369" height="365">
<path fill-rule="evenodd" clip-rule="evenodd" d="M257.639 18.8866C300.801 44.3322 271.408 112.954 287.961 160.239C308.198 218.048 396.01 268.559 363.128 320.22C329.955 372.338 245.869 312.784 184.814 322.292C135.182 330.022 91.2272 394.45 47.7149 369.342C4.29465 344.287 27.2637 276.959 20.2475 227.331C14.5024 186.694 -10.0066 144.546 10.9458 109.262C31.9299 73.9254 80.5829 74.8737 119.177 60.7347C166.241 43.493 214.453 -6.57306 257.639 18.8866Z" fill="#C4C4C4"/>
</mask>
<g mask="url(#mask0_319_566)">
<path fill-rule="evenodd" clip-rule="evenodd" d="M257.639 18.8866C300.801 44.3322 271.408 112.954 287.961 160.239C308.198 218.048 396.01 268.559 363.128 320.22C329.955 372.338 245.869 312.784 184.814 322.292C135.182 330.022 91.2272 394.45 47.7149 369.342C4.29465 344.287 27.2637 276.959 20.2475 227.331C14.5024 186.694 -10.0066 144.546 10.9458 109.262C31.9299 73.9254 80.5829 74.8737 119.177 60.7347C166.241 43.493 214.453 -6.57306 257.639 18.8866Z" fill="#04121E"/>
<path d="M72.0657 366.613C134.208 366.613 184.585 316.237 184.585 254.094C184.585 191.951 134.208 141.575 72.0657 141.575C9.92302 141.575 -40.4536 191.951 -40.4536 254.094C-40.4536 316.237 9.92302 366.613 72.0657 366.613Z" fill="#020406"/>
<mask id="mask1_319_566" style="mask-type:luminance" maskUnits="userSpaceOnUse" x="-41" y="141" width="226" height="226">
<path d="M72.0657 366.613C134.208 366.613 184.585 316.237 184.585 254.094C184.585 191.951 134.208 141.575 72.0657 141.575C9.92302 141.575 -40.4536 191.951 -40.4536 254.094C-40.4536 316.237 9.92302 366.613 72.0657 366.613Z" fill="white"/>
</mask>
<g mask="url(#mask1_319_566)">
<path d="M187.025 313.181H-42.9037V367.676H187.025V313.181Z" fill="#AAD0FF"/>
<path opacity="0.2" d="M187.025 312.816H-42.9037V367.312H187.025V312.816Z" fill="#231F20"/>
</g>
<path d="M-60.9811 267.965C-21.191 267.965 11.0653 235.708 11.0653 195.918C11.0653 156.128 -21.191 123.872 -60.9811 123.872C-100.771 123.872 -133.028 156.128 -133.028 195.918C-133.028 235.708 -100.771 267.965 -60.9811 267.965Z" fill="#1E487B"/>
<path opacity="0.2" d="M-60.9811 267.965C-21.191 267.965 11.0653 235.708 11.0653 195.918C11.0653 156.128 -21.191 123.872 -60.9811 123.872C-100.771 123.872 -133.028 156.128 -133.028 195.918C-133.028 235.708 -100.771 267.965 -60.9811 267.965Z" fill="#231F20"/>
<path d="M80.0693 299.928L86.4478 322.394L42.087 313.677L43.0184 299.928H80.0693Z" fill="#04121E"/>
<path d="M60.4478 223.832C67.7085 223.832 73.5945 216.23 73.5945 206.853C73.5945 197.475 67.7085 189.874 60.4478 189.874C53.187 189.874 47.301 197.475 47.301 206.853C47.301 216.23 53.187 223.832 60.4478 223.832Z" fill="#FF8C4D"/>
<path d="M33.9923 253.071L43.0184 294.01L62.9435 307.709C55.4716 311.758 51.2699 324.829 51.2699 324.829L36.0172 316.79C17.9601 303.714 12.4574 279.016 12.4574 279.016C7.99751 259.273 12.4574 249.654 12.4574 249.654C18.684 230.453 41.6212 226.823 41.6212 226.823L62.9435 228.793C85.0454 234.549 90.5228 251.36 90.5228 251.36L112.625 296.658C107.021 296.035 101.108 304.757 101.108 304.757L79.3149 280.16L80.0945 299.933C80.0945 299.933 66.7656 304.884 53.8922 301.452L40.4062 293.129L33.9923 253.071Z" fill="#7E1113"/>
<path opacity="0.2" d="M49.7158 237.642C49.7158 237.642 43.3018 245.058 33.5165 240.517C30.6158 239.171 28.358 236.219 27.1582 233.258C27.0468 232.984 26.9456 232.706 26.8494 232.417C26.8494 232.417 34.5542 227.861 41.611 226.819C41.6212 226.819 40.9125 235.283 49.7158 237.642Z" fill="white"/>
<path opacity="0.2" d="M51.037 238.026C51.037 238.026 56.0183 245.706 66.9123 242.694C66.9123 242.694 73.4933 240.952 75.5182 234.402C71.4924 231.821 67.0672 229.924 62.4221 228.788L61.9462 228.747C61.9462 228.747 59.9314 238.391 51.037 238.026Z" fill="white"/>
<path opacity="0.2" d="M77.3153 253.487C77.5583 255.704 77.7557 257.926 77.9481 260.143C78.1405 262.361 78.3025 264.588 78.4847 266.811C78.6669 269.033 78.7985 271.255 78.9352 273.478L79.1327 276.819C79.1833 277.932 79.2491 279.041 79.2896 280.155C79.163 279.051 79.0669 277.937 78.9555 276.829L78.6568 273.498C78.4644 271.28 78.3025 269.058 78.1202 266.836C77.938 264.613 77.8063 262.391 77.6697 260.164C77.533 257.936 77.4064 255.714 77.3153 253.487Z" fill="#231F20"/>
<path opacity="0.2" d="M42.6032 293.797C41.7548 294.015 40.9198 294.282 40.1025 294.597L39.5051 294.84L38.9229 295.129C38.539 295.32 38.1671 295.535 37.8092 295.772C37.0782 296.234 36.3993 296.773 35.7843 297.381C35.1613 297.995 34.6063 298.674 34.129 299.406C34.4118 298.552 34.8589 297.761 35.4452 297.078C36.0233 296.378 36.7064 295.772 37.4701 295.281C38.2322 294.789 39.0631 294.414 39.9354 294.167C40.3664 294.04 40.8064 293.945 41.2516 293.883C41.7173 293.833 42.1628 293.807 42.6032 293.797Z" fill="#231F20"/>
<path d="M108.114 338.685L128.323 296.602L169.879 278.292L150.268 317.271L108.114 338.685Z" fill="#04121E"/>
<path opacity="0.2" d="M108.114 338.685L128.323 296.602L169.879 278.292L150.268 317.271L108.114 338.685Z" fill="black"/>
<path d="M108.114 338.685L63.2877 326.231L114.675 301.639L124.794 304.894L108.114 338.685Z" fill="#04121E"/>
<path d="M13.3838 292.988L14.2241 289.51L15.2619 288.993L18.2689 291.246L13.3838 292.988Z" fill="#04121E"/>
<path d="M14.3811 287.925L14.2241 289.51L15.2619 288.993L14.3811 287.925Z" fill="#04121E"/>
<path opacity="0.2" d="M14.3811 287.925L14.2241 289.51L15.2619 288.993L14.3811 287.925Z" fill="black"/>
<path d="M54.5452 163.287C67.6408 163.287 78.2569 152.671 78.2569 139.575C78.2569 126.479 67.6408 115.863 54.5452 115.863C41.4495 115.863 30.8334 126.479 30.8334 139.575C30.8334 152.671 41.4495 163.287 54.5452 163.287Z" fill="#04121E"/>
<path d="M63.4042 152.94L51.8672 139.737L54.0086 127.826L55.0818 128.018L53.0316 139.413L64.2243 152.221L63.4042 152.94Z" fill="white"/>
<path d="M51.2698 324.839C51.2698 324.839 64.8621 332.362 83.1268 328.732C83.1268 328.732 91.2264 328.008 91.9503 326.14C91.9503 326.14 93.8183 323.442 82.4029 322.713C82.4029 322.713 84.7872 319.499 88.837 321.574C88.837 321.574 97.0329 324.374 99.0072 322.404C99.0072 322.404 104.069 324.374 104.819 323.027C104.819 323.027 105.543 322.146 104.404 320.876C104.404 320.876 106.469 321.012 106.428 319.585C106.418 319.382 106.364 319.185 106.269 319.006C106.175 318.827 106.043 318.67 105.882 318.547C103.518 316.618 90.5532 307.126 72.8554 314.619L62.9435 307.719C62.9435 307.719 55.6285 310.665 51.2698 324.839Z" fill="#FF8C4D"/>
<path d="M101.083 304.752C101.083 304.752 103.108 308.488 105.75 305.841L107.618 303.041L105.36 310.508C105.242 310.878 105.214 311.272 105.278 311.655C105.342 312.039 105.496 312.402 105.728 312.714C105.96 313.026 106.263 313.279 106.612 313.45C106.961 313.622 107.346 313.709 107.735 313.702V313.702C108.216 313.702 108.686 313.56 109.088 313.295C109.489 313.029 109.804 312.652 109.992 312.209L112.625 306.023L116.006 311.338C116.279 311.762 116.694 312.074 117.178 312.217C117.661 312.361 118.179 312.325 118.639 312.118V312.118C119.12 311.9 119.501 311.507 119.705 311.02C119.908 310.533 119.92 309.986 119.737 309.49L117.14 302.444L122.861 305.674C123.035 305.773 123.23 305.832 123.43 305.847C123.63 305.862 123.831 305.832 124.019 305.76C124.206 305.688 124.375 305.575 124.514 305.43C124.652 305.284 124.757 305.11 124.82 304.919C124.9 304.682 124.912 304.427 124.856 304.183C124.8 303.939 124.677 303.715 124.501 303.537C123.175 302.196 119.682 299.103 115.424 298.86L112.625 296.683C112.625 296.683 107.309 295.412 101.083 304.752Z" fill="#FF8C4D"/>
<path d="M211.42 127.922H155.183V247.098H211.42V127.922Z" fill="#04121E"/>
<path d="M265.906 119.078H101.083V127.927H265.906V119.078Z" fill="#04121E"/>
<path d="M155.563 127.922H101.083V187.484H155.563V127.922Z" fill="#04121E"/>
<path opacity="0.1" d="M155.563 127.922H101.083V187.484H155.563V127.922Z" fill="black"/>
<path d="M155.563 187.49H101.083V247.098H120.967L129.786 266.264C129.91 266.511 130.099 266.72 130.333 266.868C130.566 267.016 130.836 267.098 131.113 267.103C131.39 267.109 131.663 267.039 131.903 266.901C132.143 266.763 132.34 266.562 132.474 266.319L142.34 247.083H155.563V187.49Z" fill="#04121E"/>
<path opacity="0.2" d="M155.563 187.49H101.083V247.098H120.967L129.786 266.264C129.91 266.511 130.099 266.72 130.333 266.868C130.566 267.016 130.836 267.098 131.113 267.103C131.39 267.109 131.663 267.039 131.903 266.901C132.143 266.763 132.34 266.562 132.474 266.319L142.34 247.083H155.563V187.49Z" fill="white"/>
<path d="M204.034 134.356H163.126V167.979H204.034V134.356Z" fill="white"/>
<path d="M149.028 194.313H108.119V227.937H149.028V194.313Z" fill="white"/>
<path d="M145.388 233.526H117.085C115.645 233.526 114.478 234.693 114.478 236.133V236.73C114.478 238.17 115.645 239.337 117.085 239.337H145.388C146.828 239.337 147.995 238.17 147.995 236.73V236.133C147.995 234.693 146.828 233.526 145.388 233.526Z" fill="white"/>
<path d="M107.922 233.87V238.998C107.922 239.031 107.93 239.063 107.947 239.091C107.964 239.119 107.988 239.141 108.016 239.156C108.045 239.172 108.078 239.179 108.11 239.177C108.142 239.175 108.174 239.164 108.2 239.145L111.881 236.579C111.904 236.562 111.922 236.541 111.935 236.515C111.948 236.49 111.955 236.463 111.955 236.434C111.955 236.406 111.948 236.378 111.935 236.353C111.922 236.328 111.904 236.306 111.881 236.29L108.2 233.718C108.173 233.7 108.142 233.689 108.109 233.687C108.076 233.685 108.043 233.692 108.014 233.708C107.985 233.724 107.961 233.747 107.945 233.776C107.929 233.805 107.921 233.837 107.922 233.87Z" fill="white"/>
<path d="M203.974 174.004H163.035V174.728H203.974V174.004Z" fill="white"/>
<path d="M203.974 180.018H163.035V180.741H203.974V180.018Z" fill="white"/>
<path d="M203.974 185.667H163.035V186.391H203.974V185.667Z" fill="white"/>
<path d="M203.974 191.676H163.035V192.4H203.974V191.676Z" fill="white"/>
<path d="M203.958 215.165H163.02V215.889H203.958V215.165Z" fill="white"/>
<path d="M203.958 221.179H163.02V221.903H203.958V221.179Z" fill="white"/>
<path d="M203.958 226.823H163.02V227.547H203.958V226.823Z" fill="white"/>
<path d="M203.958 232.837H163.02V233.561H203.958V232.837Z" fill="white"/>
<path d="M204.05 238.816H163.111V239.54H204.05V238.816Z" fill="white"/>
<path d="M203.958 197.69H163.02V198.414H203.958V197.69Z" fill="white"/>
<path d="M165.991 209.283C167.367 209.283 168.482 208.168 168.482 206.792C168.482 205.417 167.367 204.302 165.991 204.302C164.616 204.302 163.501 205.417 163.501 206.792C163.501 208.168 164.616 209.283 165.991 209.283Z" fill="white"/>
<path d="M174.501 209.283C175.877 209.283 176.992 208.168 176.992 206.792C176.992 205.417 175.877 204.302 174.501 204.302C173.125 204.302 172.01 205.417 172.01 206.792C172.01 208.168 173.125 209.283 174.501 209.283Z" fill="white"/>
<path d="M183.578 209.283C184.953 209.283 186.068 208.168 186.068 206.792C186.068 205.417 184.953 204.302 183.578 204.302C182.202 204.302 181.087 205.417 181.087 206.792C181.087 208.168 182.202 209.283 183.578 209.283Z" fill="white"/>
<path d="M192.087 209.283C193.463 209.283 194.578 208.168 194.578 206.792C194.578 205.417 193.463 204.302 192.087 204.302C190.712 204.302 189.597 205.417 189.597 206.792C189.597 208.168 190.712 209.283 192.087 209.283Z" fill="white"/>
<path d="M201.427 209.045C202.803 209.045 203.918 207.93 203.918 206.554C203.918 205.179 202.803 204.063 201.427 204.063C200.052 204.063 198.937 205.179 198.937 206.554C198.937 207.93 200.052 209.045 201.427 209.045Z" fill="white"/>
<path opacity="0.1" d="M106.231 125.122C107.126 125.122 107.851 124.397 107.851 123.502C107.851 122.608 107.126 121.882 106.231 121.882C105.336 121.882 104.611 122.608 104.611 123.502C104.611 124.397 105.336 125.122 106.231 125.122Z" fill="white"/>
<path d="M112.351 125.122C113.246 125.122 113.971 124.397 113.971 123.502C113.971 122.608 113.246 121.882 112.351 121.882C111.457 121.882 110.731 122.608 110.731 123.502C110.731 124.397 111.457 125.122 112.351 125.122Z" fill="#7E1113"/>
<path d="M118.163 125.122C119.058 125.122 119.783 124.397 119.783 123.502C119.783 122.608 119.058 121.882 118.163 121.882C117.268 121.882 116.543 122.608 116.543 123.502C116.543 124.397 117.268 125.122 118.163 125.122Z" fill="#AAD0FF"/>
<path d="M135.542 212.034C136.255 207.084 133.482 202.588 129.348 201.992C125.214 201.396 121.284 204.926 120.571 209.877C119.857 214.828 122.63 219.324 126.765 219.92C130.899 220.515 134.829 216.985 135.542 212.034Z" fill="#CB5514"/>
<path d="M120.471 213.727C121.405 213.727 122.162 212.97 122.162 212.037C122.162 211.103 121.405 210.346 120.471 210.346C119.537 210.346 118.781 211.103 118.781 212.037C118.781 212.97 119.537 213.727 120.471 213.727Z" fill="#CB5514"/>
<path d="M123.331 217.357H131.694V224.181C131.694 225.176 131.299 226.13 130.596 226.833C129.892 227.537 128.938 227.932 127.943 227.932H127.088C126.093 227.932 125.139 227.537 124.435 226.833C123.732 226.13 123.337 225.176 123.337 224.181V217.357H123.331Z" fill="#CB5514"/>
<path d="M120.471 210.346C120.471 210.346 118.72 201.704 125.777 200.874C125.777 200.874 136.362 198.611 136.468 210.72C136.468 210.72 135.618 210.179 135.142 210.467C135.142 210.467 135.243 205.754 131.239 203.416C131.239 203.416 124.491 200.682 121.534 210.72L120.471 210.346Z" fill="#04121E"/>
<path d="M130.267 204.296C132.372 204.296 134.079 203.068 134.079 201.553C134.079 200.037 132.372 198.809 130.267 198.809C128.162 198.809 126.455 200.037 126.455 201.553C126.455 203.068 128.162 204.296 130.267 204.296Z" fill="#04121E"/>
<path d="M140.513 227.932H116.128L123.6 223.376C123.6 223.376 126.602 225.907 131.239 223.781L140.513 227.932Z" fill="#7E1113"/>
<path d="M179.31 156.878H187.673V161.49C187.673 162.485 187.278 163.439 186.574 164.142C185.871 164.846 184.917 165.241 183.922 165.241H183.061C182.066 165.241 181.112 164.846 180.409 164.142C179.705 163.439 179.31 162.485 179.31 161.49V156.878V156.878Z" fill="#FF8C4D"/>
<path d="M183.765 159.859C187.318 159.859 190.199 156.016 190.199 151.274C190.199 146.532 187.318 142.688 183.765 142.688C180.211 142.688 177.331 146.532 177.331 151.274C177.331 156.016 180.211 159.859 183.765 159.859Z" fill="#FF8C4D"/>
<path d="M176.911 148.611C176.911 148.611 177.554 142.111 182.074 141.924C182.074 141.924 189.278 139.697 190.624 148.611C190.624 148.611 185.461 148.363 183.765 145.144C183.765 145.128 179.649 149.629 176.911 148.611Z" fill="#3F3D56"/>
<path d="M183.537 143.012C184.98 143.012 186.149 141.843 186.149 140.4C186.149 138.958 184.98 137.788 183.537 137.788C182.095 137.788 180.925 138.958 180.925 140.4C180.925 141.843 182.095 143.012 183.537 143.012Z" fill="#3F3D56"/>
<path d="M177.123 152.823C178.144 152.823 178.971 151.996 178.971 150.975C178.971 149.955 178.144 149.128 177.123 149.128C176.103 149.128 175.276 149.955 175.276 150.975C175.276 151.996 176.103 152.823 177.123 152.823Z" fill="#FF8C4D"/>
<path d="M190.624 153.016C191.645 153.016 192.472 152.188 192.472 151.168C192.472 150.147 191.645 149.32 190.624 149.32C189.604 149.32 188.777 150.147 188.777 151.168C188.777 152.188 189.604 153.016 190.624 153.016Z" fill="#FF8C4D"/>
<path d="M170.507 167.979L179.315 162.168C179.315 162.168 183.077 165.438 187.612 162.168L196.451 167.979H170.507Z" fill="#7E1113"/>
<path d="M149.028 134.356H108.119V167.979H149.028V134.356Z" fill="white"/>
<path d="M145.585 174.206H117.282C115.842 174.206 114.675 175.373 114.675 176.813V177.41C114.675 178.85 115.842 180.018 117.282 180.018H145.585C147.025 180.018 148.192 178.85 148.192 177.41V176.813C148.192 175.373 147.025 174.206 145.585 174.206Z" fill="white"/>
<path d="M108.119 174.545V179.678C108.118 179.711 108.126 179.744 108.143 179.772C108.159 179.8 108.184 179.823 108.213 179.838C108.242 179.853 108.275 179.859 108.308 179.856C108.341 179.853 108.372 179.84 108.398 179.82L112.078 177.259C112.101 177.242 112.12 177.22 112.133 177.194C112.145 177.169 112.152 177.14 112.152 177.112C112.152 177.083 112.145 177.055 112.133 177.03C112.12 177.004 112.101 176.982 112.078 176.965L108.398 174.398C108.371 174.38 108.34 174.369 108.307 174.367C108.275 174.365 108.243 174.372 108.214 174.387C108.185 174.402 108.161 174.425 108.144 174.453C108.128 174.481 108.119 174.513 108.119 174.545V174.545Z" fill="white"/>
<path d="M116.426 167.98C116.426 167.98 119.712 160.731 129.285 161.308C131.506 161.516 133.652 162.224 135.56 163.379C137.469 164.535 139.091 166.108 140.305 167.98H116.426Z" fill="#7E1113"/>
<path d="M128.515 159.849C132.069 159.849 134.949 156.3 134.949 151.922C134.949 147.544 132.069 143.994 128.515 143.994C124.962 143.994 122.081 147.544 122.081 151.922C122.081 156.3 124.962 159.849 128.515 159.849Z" fill="#6D2700"/>
<path d="M121.134 153.456C122.068 153.456 122.825 152.699 122.825 151.765C122.825 150.831 122.068 150.074 121.134 150.074C120.201 150.074 119.444 150.831 119.444 151.765C119.444 152.699 120.201 153.456 121.134 153.456Z" fill="#6D2700"/>
<path d="M135.83 153.456C136.764 153.456 137.521 152.699 137.521 151.765C137.521 150.831 136.764 150.074 135.83 150.074C134.896 150.074 134.139 150.831 134.139 151.765C134.139 152.699 134.896 153.456 135.83 153.456Z" fill="#6D2700"/>
<path d="M124.228 156.984H132.59V161.596C132.59 162.591 132.195 163.545 131.492 164.248C130.788 164.952 129.834 165.347 128.839 165.347H127.984C126.989 165.347 126.035 164.952 125.331 164.248C124.628 163.545 124.233 162.591 124.233 161.596V156.984H124.228Z" fill="#6D2700"/>
<path d="M119.985 150.53C119.985 150.53 117.242 145.179 122.081 144.708C122.081 144.708 121.231 141.033 125.488 140.152C126.358 140.042 127.24 140.105 128.086 140.337C128.931 140.569 129.722 140.965 130.414 141.504C130.414 141.504 135.83 140.997 135.83 146.627C135.83 146.627 137.521 148.368 135.83 150.059C135.531 150.121 135.237 150.204 134.949 150.307C134.949 150.307 133.78 144.197 128.515 143.979C128.515 143.979 123.858 143.544 122.192 150.434C122.192 150.449 120.998 149.593 119.985 150.53Z" fill="#04121E"/>
<path d="M123.124 149.74C123.982 149.74 124.678 149.044 124.678 148.186C124.678 147.328 123.982 146.632 123.124 146.632C122.266 146.632 121.57 147.328 121.57 148.186C121.57 149.044 122.266 149.74 123.124 149.74Z" fill="#04121E"/>
<path d="M124.744 147.614C125.602 147.614 126.298 146.918 126.298 146.06C126.298 145.202 125.602 144.506 124.744 144.506C123.885 144.506 123.19 145.202 123.19 146.06C123.19 146.918 123.885 147.614 124.744 147.614Z" fill="#04121E"/>
<path d="M127.083 146.262C127.941 146.262 128.637 145.566 128.637 144.708C128.637 143.85 127.941 143.154 127.083 143.154C126.224 143.154 125.529 143.85 125.529 144.708C125.529 145.566 126.224 146.262 127.083 146.262Z" fill="#04121E"/>
<path d="M129.452 146.262C130.31 146.262 131.006 145.566 131.006 144.708C131.006 143.85 130.31 143.154 129.452 143.154C128.594 143.154 127.898 143.85 127.898 144.708C127.898 145.566 128.594 146.262 129.452 146.262Z" fill="#04121E"/>
<path d="M131.208 146.87C132.067 146.87 132.763 146.174 132.763 145.316C132.763 144.457 132.067 143.761 131.208 143.761C130.35 143.761 129.654 144.457 129.654 145.316C129.654 146.174 130.35 146.87 131.208 146.87Z" fill="#04121E"/>
<path d="M132.59 147.67C133.449 147.67 134.144 146.974 134.144 146.115C134.144 145.257 133.449 144.561 132.59 144.561C131.732 144.561 131.036 145.257 131.036 146.115C131.036 146.974 131.732 147.67 132.59 147.67Z" fill="#3F3D56"/>
<path d="M133.39 149.229C134.249 149.229 134.944 148.533 134.944 147.675C134.944 146.816 134.249 146.121 133.39 146.121C132.532 146.121 131.836 146.816 131.836 147.675C131.836 148.533 132.532 149.229 133.39 149.229Z" fill="#04121E"/>
<path d="M135.77 213.727C136.703 213.727 137.46 212.97 137.46 212.037C137.46 211.103 136.703 210.346 135.77 210.346C134.836 210.346 134.079 211.103 134.079 212.037C134.079 212.97 134.836 213.727 135.77 213.727Z" fill="#CB5514"/>
<path d="M65.5911 192.471C65.5911 192.471 57.1877 205.876 45.1496 200.358C45.1496 200.358 45.4584 180.949 62.8929 182.301C62.8929 182.301 79.0315 186.983 74.4096 200.059C74.3192 200.296 74.1432 200.491 73.9163 200.604C73.6895 200.717 73.4283 200.742 73.1845 200.672C71.5292 200.165 67.9856 198.414 65.5911 192.471Z" fill="#04121E"/>
<path d="M40.3758 204.195L31.1675 210.741C30.9748 210.89 30.8142 211.077 30.6953 211.29C30.5764 211.503 30.5018 211.737 30.4758 211.98C30.4498 212.222 30.473 212.468 30.544 212.701C30.615 212.934 30.7324 213.151 30.8891 213.338C32.8533 215.656 37.5865 220.177 43.4891 219.868L46.2886 209.591L40.3758 204.195Z" fill="#04121E"/>
<path d="M45.9747 210.736L41.6161 226.818C41.6161 226.818 40.9934 236.467 51.5787 238.026C51.5787 238.026 62.3309 239.246 63.2827 223.432L54.5806 213.849L48.683 208.787L46.2784 208.437L45.9747 210.736Z" fill="#FF8C4D"/>
<path d="M52.0191 219.883C52.0191 219.883 55.1881 227.39 62.6499 227.932C63.0006 226.455 63.2074 224.948 63.2675 223.432C63.2675 223.432 57.4914 225.705 52.0191 219.883Z" fill="#F4A48E"/>
<path d="M44.9421 210.73C47.5785 210.73 49.7158 208.466 49.7158 205.673C49.7158 202.88 47.5785 200.616 44.9421 200.616C42.3056 200.616 40.1683 202.88 40.1683 205.673C40.1683 208.466 42.3056 210.73 44.9421 210.73Z" fill="#FF8C4D"/>
<path d="M22.1112 290.532H22.7288C23.4457 290.532 24.1333 290.817 24.6403 291.324C25.1472 291.831 25.432 292.519 25.432 293.235V307.709H19.413V293.235C19.413 292.519 19.6971 291.833 20.2029 291.326C20.7088 290.819 21.3951 290.534 22.1112 290.532V290.532Z" fill="#7E1113"/>
<path d="M31.3448 275.826H23.9791V307.709H31.3448V275.826Z" fill="#04121E"/>
<path opacity="0.2" d="M31.3448 275.826H23.9791V307.709H31.3448V275.826Z" fill="black"/>
<path d="M13.3838 292.988L18.2689 291.246L23.9791 306.063V310.888H19.9293L13.3838 292.988Z" fill="#04121E"/>
<path opacity="0.2" d="M13.3838 292.988L18.2689 291.246L23.9791 306.063V310.888H19.9293L13.3838 292.988Z" fill="black"/>
<path d="M12.3561 305.998H34.1492L28.9604 331.527H18.3751L12.3561 305.998Z" fill="#04121E"/>
</g>
</g>
<defs>
<clipPath id="clip0_319_566">
<rect width="200" height="389" fill="white"/>
</clipPath>
</defs>
</svg>
